<svg xmlns="http://www.w3.org/2000/svg" xmlns:xlink="http://www.w3.org/1999/xlink" id="Layer_1" width="97.773" height="118.167" x="0" y="0" enable-background="new 0 0 97.773 118.167" version="1.0" viewBox="0 0 97.773 118.167" xml:space="preserve"><g><g opacity=".25"><path fill-rule="evenodd" d="M36.547,64.229V7.991c0-1.237,1.086-2.325,2.325-2.325h25.252 c1.236,0,2.326,1.088,2.326,2.325v56.238h26.146c2.491,0,3.392,1.99,1.746,3.861l-41.596,47.34c-0.965,1.099-2.531,1.099-3.496,0 L7.655,68.09c-1.645-1.871-0.745-3.861,1.746-3.861H36.547z" clip-rule="evenodd"/><path fill-rule="evenodd" d="M36.547,64.229V7.991c0-1.237,1.086-2.325,2.325-2.325h25.252 c1.236,0,2.326,1.088,2.326,2.325v56.238h26.146c2.491,0,3.392,1.99,1.746,3.861l-41.596,47.34c-0.965,1.099-2.531,1.099-3.496,0 L7.655,68.09c-1.645-1.871-0.745-3.861,1.746-3.861H36.547z" clip-rule="evenodd"/></g><g><linearGradient id="SVGID_1_" x1="3.231" x2="91.585" y1="58.568" y2="58.568" gradientUnits="userSpaceOnUse"><stop offset="0" style="stop-color:#7cd4ff"/><stop offset="1" style="stop-color:#3777ae"/></linearGradient><path fill="url(#SVGID_1_)" fill-rule="evenodd" stroke="#194E6A" d="M32.956,61.836V5.598 c0-1.236,1.086-2.324,2.326-2.324h25.252c1.236,0,2.326,1.088,2.326,2.324v56.238h26.146c2.49,0,3.391,1.99,1.746,3.861 l-41.596,47.34c-0.965,1.1-2.531,1.1-3.496,0L4.063,65.698c-1.645-1.871-0.744-3.861,1.746-3.861H32.956z" clip-rule="evenodd"/><linearGradient id="SVGID_2_" x1="3.231" x2="91.585" y1="58.568" y2="58.568" gradientUnits="userSpaceOnUse"><stop offset="0" style="stop-color:#7cd4ff"/><stop offset="1" style="stop-color:#3777ae"/></linearGradient><path fill="url(#SVGID_2_)" fill-rule="evenodd" stroke="#194E6A" d="M32.956,61.836V5.598 c0-1.236,1.086-2.324,2.326-2.324h25.252c1.236,0,2.326,1.088,2.326,2.324v56.238h26.146c2.49,0,3.391,1.99,1.746,3.861 l-41.596,47.34c-0.965,1.1-2.531,1.1-3.496,0L4.063,65.698c-1.645-1.871-0.744-3.861,1.746-3.861H32.956z" clip-rule="evenodd"/></g></g></svg>