<svg xmlns="http://www.w3.org/2000/svg" xmlns:xlink="http://www.w3.org/1999/xlink" id="Layer_1" width="127.943" height="121.595" x="0" y="0" enable-background="new 0 0 127.943 121.595" version="1.0" viewBox="0 0 127.943 121.595" xml:space="preserve"><g><g opacity=".25"><polygon fill-rule="evenodd" points="102.557 118.798 66.084 118.8 29.613 118.798 18.34 84.112 7.073 49.425 36.576 27.985 66.084 6.55 125.096 49.425 113.828 84.112" clip-rule="evenodd"/><polygon fill-rule="evenodd" points="102.557 118.798 66.084 118.8 29.613 118.798 18.34 84.112 7.073 49.425 36.576 27.985 66.084 6.55 125.096 49.425 113.828 84.112" clip-rule="evenodd"/></g><g><linearGradient id="SVGID_1_" x1="3.482" x2="121.506" y1="60.283" y2="60.283" gradientUnits="userSpaceOnUse"><stop offset="0" style="stop-color:#7cd4ff"/><stop offset="1" style="stop-color:#3777ae"/></linearGradient><polygon fill="url(#SVGID_1_)" fill-rule="evenodd" stroke="#194E6A" points="98.965 116.405 62.494 116.407 26.021 116.405 14.75 81.72 3.482 47.032 32.984 25.594 62.494 4.158 121.506 47.032 110.236 81.72" clip-rule="evenodd"/><linearGradient id="SVGID_2_" x1="3.482" x2="121.506" y1="60.283" y2="60.283" gradientUnits="userSpaceOnUse"><stop offset="0" style="stop-color:#7cd4ff"/><stop offset="1" style="stop-color:#3777ae"/></linearGradient><polygon fill="url(#SVGID_2_)" fill-rule="evenodd" stroke="#194E6A" points="98.965 116.405 62.494 116.407 26.021 116.405 14.75 81.72 3.482 47.032 32.984 25.594 62.494 4.158 121.506 47.032 110.236 81.72" clip-rule="evenodd"/></g></g></svg>