<svg xmlns="http://www.w3.org/2000/svg" xmlns:xlink="http://www.w3.org/1999/xlink" id="Layer_1" width="157.533" height="112.898" x="0" y="0" enable-background="new 0 0 157.533 112.898" version="1.0" viewBox="0 0 157.533 112.898" xml:space="preserve"><g><g opacity=".25"><g><polygon points="10.126 8.483 152.763 8.483 152.763 108.233 10.126 108.233 10.126 8.483"/><path d="M81.445,58.358"/></g><g><polygon points="10.126 8.483 152.763 8.483 152.763 108.233 10.126 108.233 10.126 8.483"/><path d="M81.445,58.358"/></g></g><g><g><linearGradient id="SVGID_1_" x1="6.509" x2="149.146" y1="54.637" y2="54.637" gradientUnits="userSpaceOnUse"><stop offset="0" style="stop-color:#7cd4ff"/><stop offset="1" style="stop-color:#3777ae"/></linearGradient><polygon fill="url(#SVGID_1_)" stroke="#194E6A" points="6.509 4.762 149.146 4.762 149.146 104.511 6.509 104.511 6.509 4.762"/><path fill="#999" d="M77.828,54.635"/></g><g><linearGradient id="SVGID_2_" x1="6.509" x2="149.146" y1="54.637" y2="54.637" gradientUnits="userSpaceOnUse"><stop offset="0" style="stop-color:#7cd4ff"/><stop offset="1" style="stop-color:#3777ae"/></linearGradient><polygon fill="url(#SVGID_2_)" stroke="#194E6A" points="6.509 4.762 149.146 4.762 149.146 104.511 6.509 104.511 6.509 4.762"/><path fill="none" stroke="#000" stroke-miterlimit="3.864" d="M77.828,54.635"/></g></g></g></svg>