<svg xmlns="http://www.w3.org/2000/svg" xmlns:xlink="http://www.w3.org/1999/xlink" id="Layer_1" width="157.533" height="112.898" x="0" y="0" enable-background="new 0 0 157.533 112.898" version="1.0" viewBox="0 0 157.533 112.898" xml:space="preserve"><g><g opacity=".25"><path fill-rule="evenodd" d="M9.633,17.481c0-4.787,3.88-8.668,8.668-8.668h125.167 c4.787,0,8.668,3.881,8.668,8.668v82.062c0,4.788-3.881,8.671-8.668,8.671H18.302c-4.788,0-8.668-3.883-8.668-8.671V17.481z" clip-rule="evenodd"/><path fill-rule="evenodd" d="M9.633,17.481c0-4.787,3.88-8.668,8.668-8.668h125.167 c4.787,0,8.668,3.881,8.668,8.668v82.062c0,4.788-3.881,8.671-8.668,8.671H18.302c-4.788,0-8.668-3.883-8.668-8.671V17.481z" clip-rule="evenodd"/></g><g><linearGradient id="SVGID_1_" x1="6.017" x2="148.52" y1="54.79" y2="54.79" gradientUnits="userSpaceOnUse"><stop offset="0" style="stop-color:#7cd4ff"/><stop offset="1" style="stop-color:#3777ae"/></linearGradient><path fill="url(#SVGID_1_)" fill-rule="evenodd" stroke="#194E6A" d="M6.017,13.758 c0-4.786,3.88-8.668,8.668-8.668h125.167c4.787,0,8.668,3.882,8.668,8.668v82.064c0,4.787-3.881,8.666-8.668,8.666H14.685 c-4.788,0-8.668-3.879-8.668-8.666V13.758z" clip-rule="evenodd"/><linearGradient id="SVGID_2_" x1="6.017" x2="148.52" y1="54.79" y2="54.79" gradientUnits="userSpaceOnUse"><stop offset="0" style="stop-color:#7cd4ff"/><stop offset="1" style="stop-color:#3777ae"/></linearGradient><path fill="url(#SVGID_2_)" fill-rule="evenodd" stroke="#194E6A" d="M6.017,13.758 c0-4.786,3.88-8.668,8.668-8.668h125.167c4.787,0,8.668,3.882,8.668,8.668v82.064c0,4.787-3.881,8.666-8.668,8.666H14.685 c-4.788,0-8.668-3.879-8.668-8.666V13.758z" clip-rule="evenodd"/></g></g></svg>