<svg xmlns="http://www.w3.org/2000/svg" xmlns:xlink="http://www.w3.org/1999/xlink" id="Layer_1" width="116.139" height="134.172" x="0" y="0" enable-background="new 0 0 116.139 134.172" version="1.0" viewBox="0 0 116.139 134.172" xml:space="preserve"><g><g opacity=".25"><ellipse cx="60.182" cy="24.381" fill-rule="evenodd" clip-rule="evenodd" rx="48.899" ry="18.583"/></g><g opacity=".25"><path fill-rule="evenodd" d="M109.166,35.278v77.655l-0.169,0.613c0,10.262-21.892,18.58-48.899,18.58 c-27.007,0-48.898-8.318-48.898-18.58c0-0.207-0.006-0.41,0.012-0.613V35.426c8.615,6.975,27.267,11.805,48.887,11.805 C81.87,47.231,100.631,42.333,109.166,35.278z" clip-rule="evenodd"/></g><g><linearGradient id="SVGID_1_" x1="7.69" x2="105.489" y1="21.988" y2="21.988" gradientUnits="userSpaceOnUse"><stop offset="0" style="stop-color:#7cd4ff"/><stop offset="1" style="stop-color:#3777ae"/></linearGradient><ellipse cx="56.59" cy="21.989" fill="url(#SVGID_1_)" fill-rule="evenodd" stroke="#194E6A" clip-rule="evenodd" rx="48.899" ry="18.583"/></g><g><linearGradient id="SVGID_2_" x1="7.607" x2="105.575" y1="81.31" y2="81.31" gradientUnits="userSpaceOnUse"><stop offset="0" style="stop-color:#7cd4ff"/><stop offset="1" style="stop-color:#3777ae"/></linearGradient><path fill="url(#SVGID_2_)" fill-rule="evenodd" stroke="#194E6A" d="M105.575,32.886v77.654l-0.17,0.613 c0,10.262-21.891,18.58-48.898,18.58s-48.898-8.318-48.898-18.58c0-0.205-0.006-0.41,0.012-0.613V33.034 c8.615,6.975,27.266,11.805,48.887,11.805C78.278,44.839,97.04,39.941,105.575,32.886z" clip-rule="evenodd"/></g></g></svg>