<svg xmlns="http://www.w3.org/2000/svg" xmlns:xlink="http://www.w3.org/1999/xlink" id="Layer_1" width="129.314" height="122.966" x="0" y="0" enable-background="new 0 0 129.314 122.966" version="1.0" viewBox="0 0 129.314 122.966" xml:space="preserve"><g><g opacity=".25"><polygon fill-rule="evenodd" points="103.883 120.471 66.771 93.508 29.657 120.471 43.833 76.843 6.72 49.878 52.593 49.876 66.771 6.249 80.948 49.876 126.82 49.878 89.708 76.843" clip-rule="evenodd"/><polygon fill-rule="evenodd" points="103.883 120.471 66.771 93.508 29.657 120.471 43.833 76.843 6.72 49.878 52.593 49.876 66.771 6.249 80.948 49.876 126.82 49.878 89.708 76.843" clip-rule="evenodd"/></g><g><linearGradient id="SVGID_1_" x1="3.128" x2="123.228" y1="60.968" y2="60.968" gradientUnits="userSpaceOnUse"><stop offset="0" style="stop-color:#7cd4ff"/><stop offset="1" style="stop-color:#3777ae"/></linearGradient><polygon fill="url(#SVGID_1_)" fill-rule="evenodd" stroke="#194E6A" points="100.292 118.078 63.179 91.115 26.066 118.078 40.242 74.451 3.128 47.486 49.001 47.484 63.179 3.857 77.357 47.484 123.228 47.486 86.117 74.451" clip-rule="evenodd"/><linearGradient id="SVGID_2_" x1="3.128" x2="123.228" y1="60.968" y2="60.968" gradientUnits="userSpaceOnUse"><stop offset="0" style="stop-color:#7cd4ff"/><stop offset="1" style="stop-color:#3777ae"/></linearGradient><polygon fill="url(#SVGID_2_)" fill-rule="evenodd" stroke="#194E6A" points="100.292 118.078 63.179 91.115 26.066 118.078 40.242 74.451 3.128 47.486 49.001 47.484 63.179 3.857 77.357 47.484 123.228 47.486 86.117 74.451" clip-rule="evenodd"/></g></g></svg>