<svg xmlns="http://www.w3.org/2000/svg" xmlns:xlink="http://www.w3.org/1999/xlink" id="Layer_1" width="116.137" height="115.055" x="0" y="0" enable-background="new 0 0 116.137 115.055" version="1.0" viewBox="0 0 116.137 115.055" xml:space="preserve"><g><g opacity=".25"><path fill-rule="evenodd" d="M5.901,31.21c0-14.409,11.679-26.088,26.088-26.088h56.389 c14.408,0,26.086,11.679,26.086,26.088v56.389c0,14.408-11.678,26.088-26.086,26.088H31.989c-14.409,0-26.088-11.68-26.088-26.088 V31.21z" clip-rule="evenodd"/></g><g><linearGradient id="SVGID_1_" x1="2.309" x2="110.872" y1="57.012" y2="57.012" gradientUnits="userSpaceOnUse"><stop offset="0" style="stop-color:#7cd4ff"/><stop offset="1" style="stop-color:#3777ae"/></linearGradient><path fill="url(#SVGID_1_)" fill-rule="evenodd" stroke="#194E6A" d="M2.309,28.818 c0-14.409,11.68-26.088,26.088-26.088h56.389c14.408,0,26.086,11.679,26.086,26.088v56.388c0,14.408-11.678,26.088-26.086,26.088 H28.397c-14.408,0-26.088-11.68-26.088-26.088V28.818z" clip-rule="evenodd"/></g></g></svg>