<svg xmlns="http://www.w3.org/2000/svg" xmlns:xlink="http://www.w3.org/1999/xlink" id="Layer_1" width="138.629" height="121.897" x="0" y="0" enable-background="new 0 0 138.629 121.897" version="1.0" viewBox="0 0 138.629 121.897" xml:space="preserve"><g><g opacity=".25"><polygon fill-rule="evenodd" points="136.192 118.913 71.427 118.915 6.662 118.913 39.042 62.824 71.427 6.737 103.812 62.824" clip-rule="evenodd"/><polygon fill-rule="evenodd" points="136.192 118.913 71.427 118.915 6.662 118.913 39.042 62.824 71.427 6.737 103.812 62.824" clip-rule="evenodd"/></g><g><linearGradient id="SVGID_1_" x1="3.071" x2="132.601" y1="60.434" y2="60.434" gradientUnits="userSpaceOnUse"><stop offset="0" style="stop-color:#7cd4ff"/><stop offset="1" style="stop-color:#3777ae"/></linearGradient><polygon fill="url(#SVGID_1_)" fill-rule="evenodd" stroke="#194E6A" points="132.601 116.521 67.836 116.523 3.071 116.521 35.452 60.431 67.836 4.344 100.22 60.431" clip-rule="evenodd"/><linearGradient id="SVGID_2_" x1="3.071" x2="132.601" y1="60.434" y2="60.434" gradientUnits="userSpaceOnUse"><stop offset="0" style="stop-color:#7cd4ff"/><stop offset="1" style="stop-color:#3777ae"/></linearGradient><polygon fill="url(#SVGID_2_)" fill-rule="evenodd" stroke="#194E6A" points="132.601 116.521 67.836 116.523 3.071 116.521 35.452 60.431 67.836 4.344 100.22 60.431" clip-rule="evenodd"/></g></g></svg>