<svg xmlns="http://www.w3.org/2000/svg" xmlns:xlink="http://www.w3.org/1999/xlink" id="Layer_1" width="138.629" height="121.897" x="0" y="0" enable-background="new 0 0 138.629 121.897" version="1.0" viewBox="0 0 138.629 121.897" xml:space="preserve"><g><g opacity=".25"><path fill-rule="evenodd" d="M71.427,120.692l-58.237-0.001c-6.572-0.001-9.401-4.899-6.115-10.592 l29.118-50.437l29.12-50.435c3.286-5.692,8.944-5.692,12.23,0l29.12,50.435l29.117,50.437c3.287,5.692,0.457,10.591-6.114,10.592 L71.427,120.692z" clip-rule="evenodd"/><path fill-rule="evenodd" d="M71.427,120.692l-58.237-0.001c-6.572-0.001-9.401-4.899-6.115-10.592 l29.118-50.437l29.12-50.435c3.286-5.692,8.944-5.692,12.23,0l29.12,50.435l29.117,50.437c3.287,5.692,0.457,10.591-6.114,10.592 L71.427,120.692z" clip-rule="evenodd"/></g><g><linearGradient id="SVGID_1_" x1="2.109" x2="133.565" y1="60.434" y2="60.434" gradientUnits="userSpaceOnUse"><stop offset="0" style="stop-color:#7cd4ff"/><stop offset="1" style="stop-color:#3777ae"/></linearGradient><path fill="url(#SVGID_1_)" fill-rule="evenodd" stroke="#194E6A" d="M67.836,118.3l-58.237-0.002 c-6.572,0-9.401-4.898-6.115-10.592l29.118-50.436l29.12-50.435c3.286-5.692,8.944-5.692,12.23,0l29.12,50.435l29.117,50.436 c3.287,5.693,0.457,10.592-6.114,10.592L67.836,118.3z" clip-rule="evenodd"/><linearGradient id="SVGID_2_" x1="2.109" x2="133.565" y1="60.434" y2="60.434" gradientUnits="userSpaceOnUse"><stop offset="0" style="stop-color:#7cd4ff"/><stop offset="1" style="stop-color:#3777ae"/></linearGradient><path fill="url(#SVGID_2_)" fill-rule="evenodd" stroke="#194E6A" d="M67.836,118.3l-58.237-0.002 c-6.572,0-9.401-4.898-6.115-10.592l29.118-50.436l29.12-50.435c3.286-5.692,8.944-5.692,12.23,0l29.12,50.435l29.117,50.436 c3.287,5.693,0.457,10.592-6.114,10.592L67.836,118.3z" clip-rule="evenodd"/></g></g></svg>