<svg xmlns="http://www.w3.org/2000/svg" xmlns:xlink="http://www.w3.org/1999/xlink" id="Layer_1" width="129.314" height="122.966" x="0" y="0" enable-background="new 0 0 129.314 122.966" version="1.0" viewBox="0 0 129.314 122.966" xml:space="preserve"><g><g opacity=".25"><path fill-rule="evenodd" d="M66.77,97.773l-29.76,21.621c-5.72,4.155-11.191,0.181-9.009-6.546L39.37,77.866 L9.612,56.245c-5.72-4.157-3.631-10.588,3.44-10.59l36.783-0.001l11.367-34.98c2.185-6.727,8.947-6.727,11.134,0l11.368,34.98 l36.781,0.001c7.071,0.002,9.162,6.433,3.441,10.59L94.17,77.866l11.363,34.982c2.187,6.727-3.286,10.701-9.007,6.546 L66.77,97.773z" clip-rule="evenodd"/><path fill-rule="evenodd" d="M66.77,97.773l-29.76,21.621c-5.72,4.155-11.191,0.181-9.009-6.546L39.37,77.866 L9.612,56.245c-5.72-4.157-3.631-10.588,3.44-10.59l36.783-0.001l11.367-34.98c2.185-6.727,8.947-6.727,11.134,0l11.368,34.98 l36.781,0.001c7.071,0.002,9.162,6.433,3.441,10.59L94.17,77.866l11.363,34.982c2.187,6.727-3.286,10.701-9.007,6.546 L66.77,97.773z" clip-rule="evenodd"/></g><g><linearGradient id="SVGID_1_" x1="2.724" x2="123.633" y1="60.968" y2="60.968" gradientUnits="userSpaceOnUse"><stop offset="0" style="stop-color:#7cd4ff"/><stop offset="1" style="stop-color:#3777ae"/></linearGradient><path fill="url(#SVGID_1_)" fill-rule="evenodd" stroke="#194E6A" d="M63.178,95.382l-29.76,21.621 c-5.719,4.154-11.191,0.18-9.008-6.547l11.367-34.982L6.02,53.853c-5.719-4.156-3.631-10.588,3.441-10.59h36.783l11.367-34.98 c2.184-6.727,8.947-6.727,11.133,0l11.369,34.98h36.781c7.07,0.002,9.162,6.434,3.441,10.59L90.579,75.474l11.363,34.982 c2.188,6.727-3.285,10.701-9.006,6.547L63.178,95.382z" clip-rule="evenodd"/><linearGradient id="SVGID_2_" x1="2.724" x2="123.633" y1="60.968" y2="60.968" gradientUnits="userSpaceOnUse"><stop offset="0" style="stop-color:#7cd4ff"/><stop offset="1" style="stop-color:#3777ae"/></linearGradient><path fill="url(#SVGID_2_)" fill-rule="evenodd" stroke="#194E6A" d="M63.178,95.382l-29.76,21.621 c-5.719,4.154-11.191,0.18-9.008-6.547l11.367-34.982L6.02,53.853c-5.719-4.156-3.631-10.588,3.441-10.59h36.783l11.367-34.98 c2.184-6.727,8.947-6.727,11.133,0l11.369,34.98h36.781c7.07,0.002,9.162,6.434,3.441,10.59L90.579,75.474l11.363,34.982 c2.188,6.727-3.285,10.701-9.006,6.547L63.178,95.382z" clip-rule="evenodd"/></g></g></svg>