<svg xmlns="http://www.w3.org/2000/svg" xmlns:xlink="http://www.w3.org/1999/xlink" id="Layer_1" width="154.685" height="138.05" x="0" y="0" enable-background="new 0 0 154.685 138.05" version="1.0" viewBox="0 0 154.685 138.05" xml:space="preserve"><g><g opacity=".25"><g><circle cx="88.365" cy="131.57" r="4.988" fill-rule="evenodd" clip-rule="evenodd"/><circle cx="88.365" cy="131.57" r="4.988" fill-rule="evenodd" clip-rule="evenodd"/></g><g><path fill-rule="evenodd" d="M87.263,116.331c0-4.268,3.462-7.73,7.731-7.73c4.271,0,7.732,3.463,7.732,7.73 c0,4.272-3.462,7.733-7.732,7.733C90.725,124.064,87.263,120.604,87.263,116.331z" clip-rule="evenodd"/><path fill-rule="evenodd" d="M87.263,116.331c0-4.268,3.462-7.73,7.731-7.73c4.271,0,7.732,3.463,7.732,7.73 c0,4.272-3.462,7.733-7.732,7.733C90.725,124.064,87.263,120.604,87.263,116.331z" clip-rule="evenodd"/></g><g><path fill-rule="evenodd" d="M7.437,14.007c0-4.84,3.922-8.762,8.761-8.762h126.516 c4.838,0,8.76,3.922,8.76,8.762v82.946c0,4.839-3.922,8.763-8.76,8.763H16.198c-4.839,0-8.761-3.924-8.761-8.763V14.007z" clip-rule="evenodd"/><path fill-rule="evenodd" d="M7.437,14.007c0-4.84,3.922-8.762,8.761-8.762h126.516 c4.838,0,8.76,3.922,8.76,8.762v82.946c0,4.839-3.922,8.763-8.76,8.763H16.198c-4.839,0-8.761-3.924-8.761-8.763V14.007z" clip-rule="evenodd"/></g></g><g><linearGradient id="SVGID_1_" x1="79.787" x2="89.762" y1="129.18" y2="129.18" gradientUnits="userSpaceOnUse"><stop offset="0" style="stop-color:#7cd4ff"/><stop offset="1" style="stop-color:#3777ae"/></linearGradient><circle cx="84.774" cy="129.179" r="4.988" fill="url(#SVGID_1_)" fill-rule="evenodd" stroke="#194E6A" clip-rule="evenodd"/><linearGradient id="SVGID_2_" x1="79.787" x2="89.762" y1="129.18" y2="129.18" gradientUnits="userSpaceOnUse"><stop offset="0" style="stop-color:#7cd4ff"/><stop offset="1" style="stop-color:#3777ae"/></linearGradient><circle cx="84.774" cy="129.179" r="4.988" fill="url(#SVGID_2_)" fill-rule="evenodd" stroke="#194E6A" clip-rule="evenodd"/></g><g><linearGradient id="SVGID_3_" x1="83.672" x2="99.136" y1="113.94" y2="113.94" gradientUnits="userSpaceOnUse"><stop offset="0" style="stop-color:#7cd4ff"/><stop offset="1" style="stop-color:#3777ae"/></linearGradient><path fill="url(#SVGID_3_)" fill-rule="evenodd" stroke="#194E6A" d="M83.672,113.938 c0-4.268,3.462-7.73,7.731-7.73c4.271,0,7.732,3.463,7.732,7.73c0,4.273-3.462,7.734-7.732,7.734 C87.134,121.673,83.672,118.212,83.672,113.938z" clip-rule="evenodd"/><linearGradient id="SVGID_4_" x1="83.672" x2="99.136" y1="113.94" y2="113.94" gradientUnits="userSpaceOnUse"><stop offset="0" style="stop-color:#7cd4ff"/><stop offset="1" style="stop-color:#3777ae"/></linearGradient><path fill="url(#SVGID_4_)" fill-rule="evenodd" stroke="#194E6A" d="M83.672,113.938 c0-4.268,3.462-7.73,7.731-7.73c4.271,0,7.732,3.463,7.732,7.73c0,4.273-3.462,7.734-7.732,7.734 C87.134,121.673,83.672,118.212,83.672,113.938z" clip-rule="evenodd"/></g><g><linearGradient id="SVGID_5_" x1="3.846" x2="147.882" y1="53.088" y2="53.088" gradientUnits="userSpaceOnUse"><stop offset="0" style="stop-color:#7cd4ff"/><stop offset="1" style="stop-color:#3777ae"/></linearGradient><path fill="url(#SVGID_5_)" fill-rule="evenodd" stroke="#194E6A" d="M3.846,11.614 c0-4.84,3.922-8.762,8.761-8.762h126.516c4.838,0,8.76,3.922,8.76,8.762v82.947c0,4.838-3.922,8.762-8.76,8.762H12.607 c-4.839,0-8.761-3.924-8.761-8.762V11.614z" clip-rule="evenodd"/><linearGradient id="SVGID_6_" x1="3.846" x2="147.882" y1="53.088" y2="53.088" gradientUnits="userSpaceOnUse"><stop offset="0" style="stop-color:#7cd4ff"/><stop offset="1" style="stop-color:#3777ae"/></linearGradient><path fill="url(#SVGID_6_)" fill-rule="evenodd" stroke="#194E6A" d="M3.846,11.614 c0-4.84,3.922-8.762,8.761-8.762h126.516c4.838,0,8.76,3.922,8.76,8.762v82.947c0,4.838-3.922,8.762-8.76,8.762H12.607 c-4.839,0-8.761-3.924-8.761-8.762V11.614z" clip-rule="evenodd"/></g></g></svg>