<svg xmlns="http://www.w3.org/2000/svg" xmlns:xlink="http://www.w3.org/1999/xlink" id="Layer_1" width="136.857" height="120.909" x="0" y="0" enable-background="new 0 0 136.857 120.909" version="1.0" viewBox="0 0 136.857 120.909" xml:space="preserve"><g><g opacity=".25"><polygon fill-rule="evenodd" points="102.508 117.698 70.543 117.698 38.575 117.698 6.61 62.332 22.593 34.648 38.575 6.966 70.543 6.966 102.508 6.966 118.492 34.648 134.473 62.332 118.492 90.015" clip-rule="evenodd"/><polygon fill-rule="evenodd" points="102.508 117.698 70.543 117.698 38.575 117.698 6.61 62.332 22.593 34.648 38.575 6.966 70.543 6.966 102.508 6.966 118.492 34.648 134.473 62.332 118.492 90.015" clip-rule="evenodd"/></g><g><linearGradient id="SVGID_1_" x1="3.019" x2="130.881" y1="59.94" y2="59.94" gradientUnits="userSpaceOnUse"><stop offset="0" style="stop-color:#7cd4ff"/><stop offset="1" style="stop-color:#3777ae"/></linearGradient><polygon fill="url(#SVGID_1_)" fill-rule="evenodd" stroke="#194E6A" points="98.916 115.306 66.951 115.306 34.984 115.306 3.02 59.939 19.002 32.257 34.984 4.573 66.951 4.573 98.916 4.573 114.9 32.257 130.881 59.939 114.9 87.623" clip-rule="evenodd"/><linearGradient id="SVGID_2_" x1="3.019" x2="130.881" y1="59.94" y2="59.94" gradientUnits="userSpaceOnUse"><stop offset="0" style="stop-color:#7cd4ff"/><stop offset="1" style="stop-color:#3777ae"/></linearGradient><polygon fill="url(#SVGID_2_)" fill-rule="evenodd" stroke="#194E6A" points="98.916 115.306 66.951 115.306 34.984 115.306 3.02 59.939 19.002 32.257 34.984 4.573 66.951 4.573 98.916 4.573 114.9 32.257 130.881 59.939 114.9 87.623" clip-rule="evenodd"/></g></g></svg>