<svg xmlns="http://www.w3.org/2000/svg" xmlns:xlink="http://www.w3.org/1999/xlink" id="Layer_1" width="121.085" height="95.54" x="0" y="0" enable-background="new 0 0 121.085 95.54" version="1.0" viewBox="0 0 121.085 95.54" xml:space="preserve"><g><g opacity=".25"><path fill-rule="evenodd" d="M65.925,64.1H9.687c-1.238,0-2.326-1.088-2.326-2.326V36.522 c0-1.237,1.088-2.325,2.326-2.325h56.239V8.049c0-2.493,1.988-3.391,3.861-1.748l47.34,41.599c1.098,0.965,1.098,2.529,0,3.494 l-47.34,41.598c-1.873,1.646-3.861,0.745-3.861-1.745V64.1z" clip-rule="evenodd"/><path fill-rule="evenodd" d="M65.925,64.1H9.687c-1.238,0-2.326-1.088-2.326-2.326V36.522 c0-1.237,1.088-2.325,2.326-2.325h56.239V8.049c0-2.493,1.988-3.391,3.861-1.748l47.34,41.599c1.098,0.965,1.098,2.529,0,3.494 l-47.34,41.598c-1.873,1.646-3.861,0.745-3.861-1.745V64.1z" clip-rule="evenodd"/></g><g><linearGradient id="SVGID_1_" x1="3.77" x2="114.359" y1="47.255" y2="47.255" gradientUnits="userSpaceOnUse"><stop offset="0" style="stop-color:#7cd4ff"/><stop offset="1" style="stop-color:#3777ae"/></linearGradient><path fill="url(#SVGID_1_)" fill-rule="evenodd" stroke="#194E6A" d="M62.334,61.707H6.096 c-1.238,0-2.326-1.088-2.326-2.326V34.129c0-1.236,1.088-2.324,2.326-2.324h56.239V5.657c0-2.492,1.988-3.391,3.861-1.748 l47.34,41.6c1.098,0.965,1.098,2.529,0,3.494L66.196,90.6c-1.873,1.645-3.861,0.744-3.861-1.746V61.707z" clip-rule="evenodd"/><linearGradient id="SVGID_2_" x1="3.77" x2="114.359" y1="47.255" y2="47.255" gradientUnits="userSpaceOnUse"><stop offset="0" style="stop-color:#7cd4ff"/><stop offset="1" style="stop-color:#3777ae"/></linearGradient><path fill="url(#SVGID_2_)" fill-rule="evenodd" stroke="#194E6A" d="M62.334,61.707H6.096 c-1.238,0-2.326-1.088-2.326-2.326V34.129c0-1.236,1.088-2.324,2.326-2.324h56.239V5.657c0-2.492,1.988-3.391,3.861-1.748 l47.34,41.6c1.098,0.965,1.098,2.529,0,3.494L66.196,90.6c-1.873,1.645-3.861,0.744-3.861-1.746V61.707z" clip-rule="evenodd"/></g></g></svg>