<svg xmlns="http://www.w3.org/2000/svg" xmlns:xlink="http://www.w3.org/1999/xlink" id="Layer_1" width="154.685" height="138.05" x="0" y="0" enable-background="new 0 0 154.685 138.05" version="1.0" viewBox="0 0 154.685 138.05" xml:space="preserve"><g><g opacity=".25"><path fill-rule="evenodd" d="M7.437,14.08c0-4.84,3.922-8.762,8.76-8.762h126.516 c4.838,0,8.762,3.922,8.762,8.762v82.946c0,4.839-3.924,8.763-8.762,8.763h-35.27l-20.107,30.696v-30.696H16.197 c-4.838,0-8.76-3.924-8.76-8.763V14.08z" clip-rule="evenodd"/><path fill-rule="evenodd" d="M7.437,14.08c0-4.84,3.922-8.762,8.76-8.762h126.516 c4.838,0,8.762,3.922,8.762,8.762v82.946c0,4.839-3.924,8.763-8.762,8.763h-35.27l-20.107,30.696v-30.696H16.197 c-4.838,0-8.76-3.924-8.76-8.763V14.08z" clip-rule="evenodd"/></g><g><linearGradient id="SVGID_1_" x1="3.846" x2="147.882" y1="68.51" y2="68.51" gradientUnits="userSpaceOnUse"><stop offset="0" style="stop-color:#7cd4ff"/><stop offset="1" style="stop-color:#3777ae"/></linearGradient><path fill="url(#SVGID_1_)" fill-rule="evenodd" stroke="#194E6A" d="M3.846,11.688 c0-4.84,3.922-8.762,8.76-8.762h126.517c4.838,0,8.76,3.922,8.76,8.762v82.947c0,4.838-3.922,8.762-8.76,8.762h-35.27 l-20.107,30.697v-30.697h-71.14c-4.838,0-8.76-3.924-8.76-8.762V11.688z" clip-rule="evenodd"/><linearGradient id="SVGID_2_" x1="3.846" x2="147.882" y1="68.51" y2="68.51" gradientUnits="userSpaceOnUse"><stop offset="0" style="stop-color:#7cd4ff"/><stop offset="1" style="stop-color:#3777ae"/></linearGradient><path fill="url(#SVGID_2_)" fill-rule="evenodd" stroke="#194E6A" d="M3.846,11.688 c0-4.84,3.922-8.762,8.76-8.762h126.517c4.838,0,8.76,3.922,8.76,8.762v82.947c0,4.838-3.922,8.762-8.76,8.762h-35.27 l-20.107,30.697v-30.697h-71.14c-4.838,0-8.76-3.924-8.76-8.762V11.688z" clip-rule="evenodd"/></g></g></svg>