<svg xmlns="http://www.w3.org/2000/svg" xmlns:xlink="http://www.w3.org/1999/xlink" id="Layer_1" width="118.344" height="94.854" x="0" y="0" enable-background="new 0 0 118.344 94.854" version="1.0" viewBox="0 0 118.344 94.854" xml:space="preserve"><g><g opacity=".25"><path fill-rule="evenodd" d="M64.195,63.032H7.956c-1.237,0-2.325-1.088-2.325-2.326V35.454 c0-1.237,1.088-2.325,2.325-2.325h56.239V6.981c0-2.493,1.988-3.391,3.861-1.748l47.34,41.599c1.098,0.965,1.098,2.529,0,3.494 l-47.34,41.598c-1.873,1.646-3.861,0.745-3.861-1.745V63.032z" clip-rule="evenodd"/><path fill-rule="evenodd" d="M64.195,63.032H7.956c-1.237,0-2.325-1.088-2.325-2.326V35.454 c0-1.237,1.088-2.325,2.325-2.325h56.239V6.981c0-2.493,1.988-3.391,3.861-1.748l47.34,41.599c1.098,0.965,1.098,2.529,0,3.494 l-47.34,41.598c-1.873,1.646-3.861,0.745-3.861-1.745V63.032z" clip-rule="evenodd"/></g><g><linearGradient id="SVGID_1_" x1="2.759" x2="113.662" y1="47.762" y2="47.762" gradientUnits="userSpaceOnUse"><stop offset="0" style="stop-color:#bebebe"/><stop offset="1" style="stop-color:#6a6a6a"/></linearGradient><path fill="url(#SVGID_1_)" fill-rule="evenodd" stroke="#414141" d="M61.49,62.254H5.092 c-1.241,0-2.333-1.09-2.333-2.332V34.599c0-1.24,1.092-2.332,2.333-2.332H61.49V6.046c0-2.5,1.994-3.4,3.872-1.754l47.475,41.717 c1.101,0.969,1.101,2.537,0,3.503L65.362,91.229c-1.878,1.65-3.872,0.748-3.872-1.75V62.254z" clip-rule="evenodd"/><linearGradient id="SVGID_2_" x1="2.759" x2="113.662" y1="47.762" y2="47.762" gradientUnits="userSpaceOnUse"><stop offset="0" style="stop-color:#bebebe"/><stop offset="1" style="stop-color:#6a6a6a"/></linearGradient><path fill="url(#SVGID_2_)" fill-rule="evenodd" stroke="#414141" d="M61.49,62.254H5.092 c-1.241,0-2.333-1.09-2.333-2.332V34.599c0-1.24,1.092-2.332,2.333-2.332H61.49V6.046c0-2.5,1.994-3.4,3.872-1.754l47.475,41.717 c1.101,0.969,1.101,2.537,0,3.503L65.362,91.229c-1.878,1.65-3.872,0.748-3.872-1.75V62.254z" clip-rule="evenodd"/></g></g></svg>