<svg xmlns="http://www.w3.org/2000/svg" xmlns:xlink="http://www.w3.org/1999/xlink" id="Layer_1" width="157.533" height="112.898" x="0" y="0" enable-background="new 0 0 157.533 112.898" version="1.0" viewBox="0 0 157.533 112.898" xml:space="preserve"><g><g opacity=".25"><g><polygon points="9.955 8.483 152.59 8.483 152.59 108.233 9.955 108.233 9.955 8.483"/><path d="M81.274,58.358"/></g><g><polygon points="9.955 8.483 152.59 8.483 152.59 108.233 9.955 108.233 9.955 8.483"/><path d="M81.274,58.358"/></g></g><g><g><linearGradient id="SVGID_1_" x1="6.338" x2="148.974" y1="54.637" y2="54.637" gradientUnits="userSpaceOnUse"><stop offset="0" style="stop-color:#bebebe"/><stop offset="1" style="stop-color:#6a6a6a"/></linearGradient><polygon fill="url(#SVGID_1_)" stroke="#414141" points="6.338 4.762 148.974 4.762 148.974 104.511 6.338 104.511 6.338 4.762"/><linearGradient id="SVGID_2_" x1="77.657" x2="77.657" y1="54.635" y2="54.635" gradientUnits="userSpaceOnUse"><stop offset="0" style="stop-color:#bebebe"/><stop offset="1" style="stop-color:#6a6a6a"/></linearGradient><path fill="url(#SVGID_2_)" stroke="#414141" d="M77.657,54.635"/></g><g><linearGradient id="SVGID_3_" x1="6.338" x2="148.974" y1="54.637" y2="54.637" gradientUnits="userSpaceOnUse"><stop offset="0" style="stop-color:#bebebe"/><stop offset="1" style="stop-color:#6a6a6a"/></linearGradient><polygon fill="url(#SVGID_3_)" stroke="#414141" points="6.338 4.762 148.974 4.762 148.974 104.511 6.338 104.511 6.338 4.762"/><linearGradient id="SVGID_4_" x1="77.657" x2="77.657" y1="54.635" y2="54.635" gradientUnits="userSpaceOnUse"><stop offset="0" style="stop-color:#bebebe"/><stop offset="1" style="stop-color:#6a6a6a"/></linearGradient><path fill="url(#SVGID_4_)" stroke="#414141" d="M77.657,54.635"/></g></g></g></svg>