<svg xmlns="http://www.w3.org/2000/svg" xmlns:xlink="http://www.w3.org/1999/xlink" id="Layer_1" width="123.828" height="119.538" x="0" y="0" enable-background="new 0 0 123.828 119.538" version="1.0" viewBox="0 0 123.828 119.538" xml:space="preserve"><g><g opacity=".25"><polygon fill-rule="evenodd" points="99.906 117.543 63.435 117.545 26.963 117.543 15.69 82.858 4.423 48.171 33.926 26.732 63.435 5.296 122.446 48.171 111.178 82.858" clip-rule="evenodd"/><polygon fill-rule="evenodd" points="99.906 117.543 63.435 117.545 26.963 117.543 15.69 82.858 4.423 48.171 33.926 26.732 63.435 5.296 122.446 48.171 111.178 82.858" clip-rule="evenodd"/></g><g><linearGradient id="SVGID_1_" x1="2.017" x2="120.374" y1="59.638" y2="59.638" gradientUnits="userSpaceOnUse"><stop offset="0" style="stop-color:#bebebe"/><stop offset="1" style="stop-color:#6a6a6a"/></linearGradient><polygon fill="url(#SVGID_1_)" fill-rule="evenodd" stroke="#414141" points="97.771 115.92 61.194 115.922 24.62 115.92 13.315 81.137 2.017 46.351 31.603 24.851 61.194 3.354 120.374 46.351 109.073 81.137" clip-rule="evenodd"/><linearGradient id="SVGID_2_" x1="2.017" x2="120.374" y1="59.638" y2="59.638" gradientUnits="userSpaceOnUse"><stop offset="0" style="stop-color:#bebebe"/><stop offset="1" style="stop-color:#6a6a6a"/></linearGradient><polygon fill="url(#SVGID_2_)" fill-rule="evenodd" stroke="#414141" points="97.771 115.92 61.194 115.922 24.62 115.92 13.315 81.137 2.017 46.351 31.603 24.851 61.194 3.354 120.374 46.351 109.073 81.137" clip-rule="evenodd"/></g></g></svg>