<svg xmlns="http://www.w3.org/2000/svg" xmlns:xlink="http://www.w3.org/1999/xlink" id="Layer_1" width="133.428" height="118.852" x="0" y="0" enable-background="new 0 0 133.428 118.852" version="1.0" viewBox="0 0 133.428 118.852" xml:space="preserve"><g><g opacity=".25"><polygon fill-rule="evenodd" points="99.986 116.443 68.022 116.443 36.054 116.443 4.089 61.077 20.072 33.394 36.054 5.71 68.022 5.71 99.986 5.71 115.971 33.394 131.951 61.077 115.971 88.759" clip-rule="evenodd"/><polygon fill-rule="evenodd" points="99.986 116.443 68.022 116.443 36.054 116.443 4.089 61.077 20.072 33.394 36.054 5.71 68.022 5.71 99.986 5.71 115.971 33.394 131.951 61.077 115.971 88.759" clip-rule="evenodd"/></g><g><linearGradient id="SVGID_1_" x1="2.111" x2="130.336" y1="59.294" y2="59.294" gradientUnits="userSpaceOnUse"><stop offset="0" style="stop-color:#bebebe"/><stop offset="1" style="stop-color:#6a6a6a"/></linearGradient><polygon fill="url(#SVGID_1_)" fill-rule="evenodd" stroke="#414141" points="98.281 114.818 66.226 114.818 34.166 114.818 2.111 59.294 18.138 31.533 34.166 3.771 66.226 3.771 98.281 3.771 114.311 31.533 130.336 59.294 114.311 87.056" clip-rule="evenodd"/><linearGradient id="SVGID_2_" x1="2.111" x2="130.336" y1="59.294" y2="59.294" gradientUnits="userSpaceOnUse"><stop offset="0" style="stop-color:#bebebe"/><stop offset="1" style="stop-color:#6a6a6a"/></linearGradient><polygon fill="url(#SVGID_2_)" fill-rule="evenodd" stroke="#414141" points="98.281 114.818 66.226 114.818 34.166 114.818 2.111 59.294 18.138 31.533 34.166 3.771 66.226 3.771 98.281 3.771 114.311 31.533 130.336 59.294 114.311 87.056" clip-rule="evenodd"/></g></g></svg>