<svg xmlns="http://www.w3.org/2000/svg" xmlns:xlink="http://www.w3.org/1999/xlink" id="Layer_1" width="157.533" height="112.898" x="0" y="0" enable-background="new 0 0 157.533 112.898" version="1.0" viewBox="0 0 157.533 112.898" xml:space="preserve"><g><g opacity=".25"><path fill-rule="evenodd" d="M9.955,17.229c0-4.787,3.879-8.668,8.666-8.668h125.167 c4.789,0,8.671,3.881,8.671,8.668v82.062c0,4.788-3.882,8.671-8.671,8.671H18.621c-4.787,0-8.666-3.883-8.666-8.671V17.229z" clip-rule="evenodd"/><path fill-rule="evenodd" d="M9.955,17.229c0-4.787,3.879-8.668,8.666-8.668h125.167 c4.789,0,8.671,3.881,8.671,8.668v82.062c0,4.788-3.882,8.671-8.671,8.671H18.621c-4.787,0-8.666-3.883-8.666-8.671V17.229z" clip-rule="evenodd"/></g><g><linearGradient id="SVGID_1_" x1="6.338" x2="148.841" y1="54.538" y2="54.538" gradientUnits="userSpaceOnUse"><stop offset="0" style="stop-color:#bebebe"/><stop offset="1" style="stop-color:#6a6a6a"/></linearGradient><path fill="url(#SVGID_1_)" fill-rule="evenodd" stroke="#414141" d="M6.338,13.506 c0-4.786,3.878-8.668,8.666-8.668h125.167c4.788,0,8.67,3.882,8.67,8.668v82.064c0,4.787-3.882,8.666-8.67,8.666H15.004 c-4.788,0-8.666-3.879-8.666-8.666V13.506z" clip-rule="evenodd"/><linearGradient id="SVGID_2_" x1="6.338" x2="148.841" y1="54.538" y2="54.538" gradientUnits="userSpaceOnUse"><stop offset="0" style="stop-color:#bebebe"/><stop offset="1" style="stop-color:#6a6a6a"/></linearGradient><path fill="url(#SVGID_2_)" fill-rule="evenodd" stroke="#414141" d="M6.338,13.506 c0-4.786,3.878-8.668,8.666-8.668h125.167c4.788,0,8.67,3.882,8.67,8.668v82.064c0,4.787-3.882,8.666-8.67,8.666H15.004 c-4.788,0-8.666-3.879-8.666-8.666V13.506z" clip-rule="evenodd"/></g></g></svg>