<svg xmlns="http://www.w3.org/2000/svg" xmlns:xlink="http://www.w3.org/1999/xlink" id="Layer_1" width="153.178" height="138.27" x="0" y="0" enable-background="new 0 0 153.178 138.27" version="1.0" viewBox="0 0 153.178 138.27" xml:space="preserve"><g><g opacity=".25"><g><circle cx="87.277" cy="131.214" r="4.988" fill-rule="evenodd" clip-rule="evenodd"/><circle cx="87.277" cy="131.214" r="4.988" fill-rule="evenodd" clip-rule="evenodd"/></g><g><path fill-rule="evenodd" d="M86.175,115.975c0-4.268,3.462-7.73,7.731-7.73c4.271,0,7.732,3.463,7.732,7.73 c0,4.272-3.462,7.733-7.732,7.733C89.637,123.708,86.175,120.248,86.175,115.975z" clip-rule="evenodd"/><path fill-rule="evenodd" d="M86.175,115.975c0-4.268,3.462-7.73,7.731-7.73c4.271,0,7.732,3.463,7.732,7.73 c0,4.272-3.462,7.733-7.732,7.733C89.637,123.708,86.175,120.248,86.175,115.975z" clip-rule="evenodd"/></g><g><path fill-rule="evenodd" d="M6.349,13.651c0-4.84,3.922-8.762,8.761-8.762h126.516 c4.838,0,8.76,3.922,8.76,8.762v82.946c0,4.839-3.922,8.763-8.76,8.763H15.109c-4.839,0-8.761-3.924-8.761-8.763V13.651z" clip-rule="evenodd"/><path fill-rule="evenodd" d="M6.349,13.651c0-4.84,3.922-8.762,8.761-8.762h126.516 c4.838,0,8.76,3.922,8.76,8.762v82.946c0,4.839-3.922,8.763-8.76,8.763H15.109c-4.839,0-8.761-3.924-8.761-8.763V13.651z" clip-rule="evenodd"/></g></g><g><linearGradient id="SVGID_1_" x1="79.584" x2="89.588" y1="130.114" y2="130.114" gradientUnits="userSpaceOnUse"><stop offset="0" style="stop-color:#bebebe"/><stop offset="1" style="stop-color:#6a6a6a"/></linearGradient><circle cx="84.586" cy="130.112" r="5.002" fill="url(#SVGID_1_)" fill-rule="evenodd" stroke="#414141" clip-rule="evenodd"/><linearGradient id="SVGID_2_" x1="79.584" x2="89.588" y1="130.114" y2="130.114" gradientUnits="userSpaceOnUse"><stop offset="0" style="stop-color:#bebebe"/><stop offset="1" style="stop-color:#6a6a6a"/></linearGradient><circle cx="84.586" cy="130.112" r="5.002" fill="url(#SVGID_2_)" fill-rule="evenodd" stroke="#414141" clip-rule="evenodd"/></g><g><linearGradient id="SVGID_3_" x1="83.481" x2="98.988" y1="114.83" y2="114.83" gradientUnits="userSpaceOnUse"><stop offset="0" style="stop-color:#bebebe"/><stop offset="1" style="stop-color:#6a6a6a"/></linearGradient><path fill="url(#SVGID_3_)" fill-rule="evenodd" stroke="#414141" d="M83.48,114.829 c0-4.279,3.471-7.752,7.754-7.752c4.282,0,7.754,3.473,7.754,7.752c0,4.285-3.472,7.754-7.754,7.754 C86.951,122.583,83.48,119.114,83.48,114.829z" clip-rule="evenodd"/><linearGradient id="SVGID_4_" x1="83.481" x2="98.988" y1="114.83" y2="114.83" gradientUnits="userSpaceOnUse"><stop offset="0" style="stop-color:#bebebe"/><stop offset="1" style="stop-color:#6a6a6a"/></linearGradient><path fill="url(#SVGID_4_)" fill-rule="evenodd" stroke="#414141" d="M83.48,114.829 c0-4.279,3.471-7.752,7.754-7.752c4.282,0,7.754,3.473,7.754,7.752c0,4.285-3.472,7.754-7.754,7.754 C86.951,122.583,83.48,119.114,83.48,114.829z" clip-rule="evenodd"/></g><g><linearGradient id="SVGID_5_" x1="3.428" x2="147.873" y1="53.806" y2="53.806" gradientUnits="userSpaceOnUse"><stop offset="0" style="stop-color:#bebebe"/><stop offset="1" style="stop-color:#6a6a6a"/></linearGradient><path fill="url(#SVGID_5_)" fill-rule="evenodd" stroke="#414141" d="M3.428,12.213 c0-4.854,3.933-8.785,8.785-8.785h126.875c4.853,0,8.785,3.932,8.785,8.785v83.182c0,4.854-3.933,8.789-8.785,8.789H12.213 c-4.853,0-8.785-3.936-8.785-8.789V12.213z" clip-rule="evenodd"/><linearGradient id="SVGID_6_" x1="3.428" x2="147.873" y1="53.806" y2="53.806" gradientUnits="userSpaceOnUse"><stop offset="0" style="stop-color:#bebebe"/><stop offset="1" style="stop-color:#6a6a6a"/></linearGradient><path fill="url(#SVGID_6_)" fill-rule="evenodd" stroke="#414141" d="M3.428,12.213 c0-4.854,3.933-8.785,8.785-8.785h126.875c4.853,0,8.785,3.932,8.785,8.785v83.182c0,4.854-3.933,8.789-8.785,8.789H12.213 c-4.853,0-8.785-3.936-8.785-8.789V12.213z" clip-rule="evenodd"/></g></g></svg>