<svg xmlns="http://www.w3.org/2000/svg" xmlns:xlink="http://www.w3.org/1999/xlink" id="Layer_1" width="137.543" height="122.28" x="0" y="0" enable-background="new 0 0 137.543 122.28" version="1.0" viewBox="0 0 137.543 122.28" xml:space="preserve"><g><g opacity=".25"><polygon fill-rule="evenodd" points="135.558 118.878 70.792 118.88 6.027 118.878 38.408 62.789 70.792 6.702 103.177 62.789" clip-rule="evenodd"/><polygon fill-rule="evenodd" points="135.558 118.878 70.792 118.88 6.027 118.878 38.408 62.789 70.792 6.702 103.177 62.789" clip-rule="evenodd"/></g><g><linearGradient id="SVGID_1_" x1="2.62" x2="132.517" y1="61.011" y2="61.011" gradientUnits="userSpaceOnUse"><stop offset="0" style="stop-color:#bebebe"/><stop offset="1" style="stop-color:#6a6a6a"/></linearGradient><polygon fill="url(#SVGID_1_)" fill-rule="evenodd" stroke="#414141" points="132.517 117.257 67.569 117.259 2.62 117.257 35.092 61.009 67.569 4.763 100.044 61.009" clip-rule="evenodd"/><linearGradient id="SVGID_2_" x1="2.62" x2="132.517" y1="61.011" y2="61.011" gradientUnits="userSpaceOnUse"><stop offset="0" style="stop-color:#bebebe"/><stop offset="1" style="stop-color:#6a6a6a"/></linearGradient><polygon fill="url(#SVGID_2_)" fill-rule="evenodd" stroke="#414141" points="132.517 117.257 67.569 117.259 2.62 117.257 35.092 61.009 67.569 4.763 100.044 61.009" clip-rule="evenodd"/></g></g></svg>