<svg xmlns="http://www.w3.org/2000/svg" xmlns:xlink="http://www.w3.org/1999/xlink" id="Layer_1" width="153.178" height="138.27" x="0" y="0" enable-background="new 0 0 153.178 138.27" version="1.0" viewBox="0 0 153.178 138.27" xml:space="preserve"><g><g opacity=".25"><path fill-rule="evenodd" d="M6.606,13.725c0-4.84,3.922-8.762,8.76-8.762h126.517 c4.838,0,8.761,3.922,8.761,8.762v82.947c0,4.838-3.923,8.762-8.761,8.762h-35.27L86.506,136.13v-30.697h-71.14 c-4.838,0-8.76-3.924-8.76-8.762V13.725z" clip-rule="evenodd"/><path fill-rule="evenodd" d="M6.606,13.725c0-4.84,3.922-8.762,8.76-8.762h126.517 c4.838,0,8.761,3.922,8.761,8.762v82.947c0,4.838-3.923,8.762-8.761,8.762h-35.27L86.506,136.13v-30.697h-71.14 c-4.838,0-8.76-3.924-8.76-8.762V13.725z" clip-rule="evenodd"/></g><g><linearGradient id="SVGID_1_" x1="3.169" x2="147.615" y1="69.271" y2="69.271" gradientUnits="userSpaceOnUse"><stop offset="0" style="stop-color:#bebebe"/><stop offset="1" style="stop-color:#6a6a6a"/></linearGradient><path fill="url(#SVGID_1_)" fill-rule="evenodd" stroke="#414141" d="M3.169,12.287 c0-4.854,3.934-8.785,8.785-8.785H138.83c4.852,0,8.785,3.932,8.785,8.785v83.181c0,4.854-3.934,8.789-8.785,8.789h-35.369 l-20.166,30.783v-30.783H11.954c-4.852,0-8.785-3.936-8.785-8.789V12.287z" clip-rule="evenodd"/><linearGradient id="SVGID_2_" x1="3.169" x2="147.615" y1="69.271" y2="69.271" gradientUnits="userSpaceOnUse"><stop offset="0" style="stop-color:#bebebe"/><stop offset="1" style="stop-color:#6a6a6a"/></linearGradient><path fill="url(#SVGID_2_)" fill-rule="evenodd" stroke="#414141" d="M3.169,12.287 c0-4.854,3.934-8.785,8.785-8.785H138.83c4.852,0,8.785,3.932,8.785,8.785v83.181c0,4.854-3.934,8.789-8.785,8.789h-35.369 l-20.166,30.783v-30.783H11.954c-4.852,0-8.785-3.936-8.785-8.789V12.287z" clip-rule="evenodd"/></g></g></svg>