<svg xmlns="http://www.w3.org/2000/svg" xmlns:xlink="http://www.w3.org/1999/xlink" id="Layer_1" width="96.402" height="118.167" x="0" y="0" enable-background="new 0 0 96.402 118.167" version="1.0" viewBox="0 0 96.402 118.167" xml:space="preserve"><g><g opacity=".25"><path fill-rule="evenodd" d="M35.026,63.52V7.282c0-1.237,1.086-2.325,2.325-2.325h25.251 c1.236,0,2.326,1.088,2.326,2.325V63.52h26.146c2.491,0,3.392,1.99,1.746,3.861l-41.596,47.34c-0.965,1.1-2.531,1.1-3.496,0 L6.133,67.381C4.489,65.51,5.388,63.52,7.879,63.52H35.026z" clip-rule="evenodd"/><path fill-rule="evenodd" d="M35.026,63.52V7.282c0-1.237,1.086-2.325,2.325-2.325h25.251 c1.236,0,2.326,1.088,2.326,2.325V63.52h26.146c2.491,0,3.392,1.99,1.746,3.861l-41.596,47.34c-0.965,1.1-2.531,1.1-3.496,0 L6.133,67.381C4.489,65.51,5.388,63.52,7.879,63.52H35.026z" clip-rule="evenodd"/></g><g><linearGradient id="SVGID_1_" x1="3.382" x2="91.987" y1="59.433" y2="59.433" gradientUnits="userSpaceOnUse"><stop offset="0" style="stop-color:#bebebe"/><stop offset="1" style="stop-color:#6a6a6a"/></linearGradient><path fill="url(#SVGID_1_)" fill-rule="evenodd" stroke="#414141" d="M33.191,62.711V6.313 c0-1.24,1.09-2.332,2.334-2.332h25.322c1.24,0,2.332,1.092,2.332,2.332v56.398h26.221c2.5,0,3.402,1.996,1.752,3.873 l-41.714,47.473c-0.967,1.104-2.537,1.104-3.506,0L4.218,66.584c-1.65-1.877-0.748-3.873,1.75-3.873H33.191z" clip-rule="evenodd"/><linearGradient id="SVGID_2_" x1="3.382" x2="91.987" y1="59.433" y2="59.433" gradientUnits="userSpaceOnUse"><stop offset="0" style="stop-color:#bebebe"/><stop offset="1" style="stop-color:#6a6a6a"/></linearGradient><path fill="url(#SVGID_2_)" fill-rule="evenodd" stroke="#414141" d="M33.191,62.711V6.313 c0-1.24,1.09-2.332,2.334-2.332h25.322c1.24,0,2.332,1.092,2.332,2.332v56.398h26.221c2.5,0,3.402,1.996,1.752,3.873 l-41.714,47.473c-0.967,1.104-2.537,1.104-3.506,0L4.218,66.584c-1.65-1.877-0.748-3.873,1.75-3.873H33.191z" clip-rule="evenodd"/></g></g></svg>