<svg xmlns="http://www.w3.org/2000/svg" xmlns:xlink="http://www.w3.org/1999/xlink" id="Layer_1" width="109.295" height="133.251" x="0" y="0" enable-background="new 0 0 109.295 133.251" version="1.0" viewBox="0 0 109.295 133.251" xml:space="preserve"><g><g opacity=".25"><ellipse cx="55.932" cy="23.934" fill-rule="evenodd" clip-rule="evenodd" rx="48.9" ry="18.583"/></g><g opacity=".25"><path fill-rule="evenodd" d="M104.917,34.83v77.655l-0.169,0.612c0,10.262-21.892,18.581-48.9,18.581 c-27.007,0-48.898-8.319-48.898-18.581c0-0.206-0.006-0.409,0.012-0.612V34.978c8.615,6.976,27.267,11.806,48.887,11.806 C77.621,46.783,96.382,41.885,104.917,34.83z" clip-rule="evenodd"/></g><g><linearGradient id="SVGID_1_" x1="5.096" x2="103.173" y1="21.569" y2="21.569" gradientUnits="userSpaceOnUse"><stop offset="0" style="stop-color:#bebebe"/><stop offset="1" style="stop-color:#6a6a6a"/></linearGradient><ellipse cx="54.135" cy="21.57" fill="url(#SVGID_1_)" fill-rule="evenodd" stroke="#414141" clip-rule="evenodd" rx="49.038" ry="18.636"/></g><g><linearGradient id="SVGID_2_" x1="5.013" x2="103.259" y1="81.059" y2="81.059" gradientUnits="userSpaceOnUse"><stop offset="0" style="stop-color:#bebebe"/><stop offset="1" style="stop-color:#6a6a6a"/></linearGradient><path fill="url(#SVGID_2_)" fill-rule="evenodd" stroke="#414141" d="M103.259,32.497v77.877l-0.17,0.613 c0,10.291-21.953,18.634-49.038,18.634c-27.084,0-49.037-8.343-49.037-18.634c0-0.205-0.006-0.41,0.01-0.613V32.646 c8.641,6.995,27.346,11.839,49.027,11.839C75.886,44.484,94.698,39.572,103.259,32.497z" clip-rule="evenodd"/></g></g></svg>