<svg xmlns="http://www.w3.org/2000/svg" xmlns:xlink="http://www.w3.org/1999/xlink" id="Layer_1" width="129.18" height="121.815" x="0" y="0" enable-background="new 0 0 129.18 121.815" version="1.0" viewBox="0 0 129.18 121.815" xml:space="preserve"><g><g opacity=".25"><polygon fill-rule="evenodd" points="102.995 119.442 65.882 92.479 28.768 119.442 42.944 75.813 5.832 48.849 51.705 48.847 65.882 5.22 80.06 48.847 125.931 48.849 88.819 75.813" clip-rule="evenodd"/><polygon fill-rule="evenodd" points="102.995 119.442 65.882 92.479 28.768 119.442 42.944 75.813 5.832 48.849 51.705 48.847 65.882 5.22 80.06 48.847 125.931 48.849 88.819 75.813" clip-rule="evenodd"/></g><g><linearGradient id="SVGID_1_" x1="3.883" x2="124.325" y1="61.007" y2="61.007" gradientUnits="userSpaceOnUse"><stop offset="0" style="stop-color:#bebebe"/><stop offset="1" style="stop-color:#6a6a6a"/></linearGradient><polygon fill="url(#SVGID_1_)" fill-rule="evenodd" stroke="#414141" points="101.323 118.28 64.104 91.241 26.885 118.28 41.1 74.528 3.883 47.486 49.887 47.486 64.104 3.734 78.323 47.486 124.325 47.486 87.106 74.528" clip-rule="evenodd"/><linearGradient id="SVGID_2_" x1="3.883" x2="124.325" y1="61.007" y2="61.007" gradientUnits="userSpaceOnUse"><stop offset="0" style="stop-color:#bebebe"/><stop offset="1" style="stop-color:#6a6a6a"/></linearGradient><polygon fill="url(#SVGID_2_)" fill-rule="evenodd" stroke="#414141" points="101.323 118.28 64.104 91.241 26.885 118.28 41.1 74.528 3.883 47.486 49.887 47.486 64.104 3.734 78.323 47.486 124.325 47.486 87.106 74.528" clip-rule="evenodd"/></g></g></svg>