<svg xmlns="http://www.w3.org/2000/svg" xmlns:xlink="http://www.w3.org/1999/xlink" id="Layer_1" width="116.462" height="115.054" x="0" y="0" enable-background="new 0 0 116.462 115.054" version="1.0" viewBox="0 0 116.462 115.054" xml:space="preserve"><g><g opacity=".25"><path fill-rule="evenodd" d="M5.463,31.209c0-14.409,11.679-26.088,26.088-26.088h56.388 c14.408,0,26.086,11.679,26.086,26.088v56.388c0,14.408-11.678,26.088-26.086,26.088H31.551c-14.409,0-26.088-11.68-26.088-26.088 V31.209z" clip-rule="evenodd"/></g><g><linearGradient id="SVGID_1_" x1="3.071" x2="111.943" y1="57.167" y2="57.167" gradientUnits="userSpaceOnUse"><stop offset="0" style="stop-color:#bebebe"/><stop offset="1" style="stop-color:#6a6a6a"/></linearGradient><path fill="url(#SVGID_1_)" fill-rule="evenodd" stroke="#414141" d="M3.071,28.893 c0-14.449,11.711-26.161,26.162-26.161h56.549c14.449,0,26.16,11.712,26.16,26.161V85.44c0,14.449-11.711,26.162-26.16,26.162 H29.233c-14.451,0-26.162-11.713-26.162-26.162V28.893z" clip-rule="evenodd"/></g></g></svg>