<svg xmlns="http://www.w3.org/2000/svg" xmlns:xlink="http://www.w3.org/1999/xlink" id="Layer_1" width="137.543" height="122.28" x="0" y="0" enable-background="new 0 0 137.543 122.28" version="1.0" viewBox="0 0 137.543 122.28" xml:space="preserve"><g><g opacity=".25"><path fill-rule="evenodd" d="M70.535,120.661l-58.237-0.001c-6.572-0.001-9.401-4.899-6.115-10.592 l29.118-50.437l29.12-50.435c3.286-5.692,8.944-5.692,12.23,0l29.12,50.435l29.117,50.437c3.287,5.692,0.457,10.591-6.114,10.592 L70.535,120.661z" clip-rule="evenodd"/><path fill-rule="evenodd" d="M70.535,120.661l-58.237-0.001c-6.572-0.001-9.401-4.899-6.115-10.592 l29.118-50.437l29.12-50.435c3.286-5.692,8.944-5.692,12.23,0l29.12,50.435l29.117,50.437c3.287,5.692,0.457,10.591-6.114,10.592 L70.535,120.661z" clip-rule="evenodd"/></g><g><linearGradient id="SVGID_1_" x1="1.914" x2="133.742" y1="61.013" y2="61.013" gradientUnits="userSpaceOnUse"><stop offset="0" style="stop-color:#bebebe"/><stop offset="1" style="stop-color:#6a6a6a"/></linearGradient><path fill="url(#SVGID_1_)" fill-rule="evenodd" stroke="#414141" d="M67.829,119.044l-58.404-0.001 c-6.591-0.001-9.428-4.914-6.133-10.622L32.493,57.84L61.696,7.263c3.295-5.708,8.968-5.708,12.265,0l29.202,50.578l29.2,50.581 c3.297,5.708,0.459,10.621-6.132,10.622L67.829,119.044z" clip-rule="evenodd"/><linearGradient id="SVGID_2_" x1="1.914" x2="133.742" y1="61.013" y2="61.013" gradientUnits="userSpaceOnUse"><stop offset="0" style="stop-color:#bebebe"/><stop offset="1" style="stop-color:#6a6a6a"/></linearGradient><path fill="url(#SVGID_2_)" fill-rule="evenodd" stroke="#414141" d="M67.829,119.044l-58.404-0.001 c-6.591-0.001-9.428-4.914-6.133-10.622L32.493,57.84L61.696,7.263c3.295-5.708,8.968-5.708,12.265,0l29.202,50.578l29.2,50.581 c3.297,5.708,0.459,10.621-6.132,10.622L67.829,119.044z" clip-rule="evenodd"/></g></g></svg>