<svg xmlns="http://www.w3.org/2000/svg" xmlns:xlink="http://www.w3.org/1999/xlink" id="Layer_1" width="116.463" height="93.249" x="0" y="0" enable-background="new 0 0 116.463 93.249" version="1.0" viewBox="0 0 116.463 93.249" xml:space="preserve"><g><path fill="none" fill-rule="evenodd" stroke="#595959" d="M61.819,60.847H5.581 c-1.238,0-2.326-1.088-2.326-2.326V33.268c0-1.237,1.088-2.325,2.326-2.325h56.238V4.795c0-2.493,1.988-3.391,3.861-1.748 l47.34,41.599c1.098,0.965,1.098,2.529,0,3.495L65.68,89.738c-1.873,1.646-3.861,0.745-3.861-1.745V60.847z" clip-rule="evenodd"/><path fill="none" fill-rule="evenodd" stroke="#595959" d="M61.819,60.847H5.581 c-1.238,0-2.326-1.088-2.326-2.326V33.268c0-1.237,1.088-2.325,2.326-2.325h56.238V4.795c0-2.493,1.988-3.391,3.861-1.748 l47.34,41.599c1.098,0.965,1.098,2.529,0,3.495L65.68,89.738c-1.873,1.646-3.861,0.745-3.861-1.745V60.847z" clip-rule="evenodd"/></g></svg>