<svg xmlns="http://www.w3.org/2000/svg" xmlns:xlink="http://www.w3.org/1999/xlink" id="Layer_1" width="151.256" height="138.503" x="0" y="0" enable-background="new 0 0 151.256 138.503" version="1.0" viewBox="0 0 151.256 138.503" xml:space="preserve"><g><path fill="none" fill-rule="evenodd" stroke="#595959" d="M3.927,12.199c0-4.84,3.922-8.762,8.76-8.762 h126.516c4.838,0,8.761,3.922,8.761,8.762v82.947c0,4.838-3.923,8.762-8.761,8.762h-35.27l-20.107,30.697v-30.697H12.688 c-4.838,0-8.76-3.924-8.76-8.762V12.199z" clip-rule="evenodd"/><path fill="none" fill-rule="evenodd" stroke="#595959" d="M3.927,12.199c0-4.84,3.922-8.762,8.76-8.762 h126.516c4.838,0,8.761,3.922,8.761,8.762v82.947c0,4.838-3.923,8.762-8.761,8.762h-35.27l-20.107,30.697v-30.697H12.688 c-4.838,0-8.76-3.924-8.76-8.762V12.199z" clip-rule="evenodd"/></g></svg>