<svg xmlns="http://www.w3.org/2000/svg" xmlns:xlink="http://www.w3.org/1999/xlink" id="Layer_1" width="151.256" height="138.503" x="0" y="0" enable-background="new 0 0 151.256 138.503" version="1.0" viewBox="0 0 151.256 138.503" xml:space="preserve"><g><g><circle cx="84.856" cy="129.688" r="4.988" fill="none" fill-rule="evenodd" stroke="#595959" clip-rule="evenodd"/><circle cx="84.856" cy="129.688" r="4.988" fill="none" fill-rule="evenodd" stroke="#595959" clip-rule="evenodd"/></g><g><path fill="none" fill-rule="evenodd" stroke="#595959" d="M83.754,114.449c0-4.268,3.462-7.73,7.731-7.73 c4.271,0,7.732,3.463,7.732,7.73c0,4.272-3.462,7.733-7.732,7.733C87.216,122.183,83.754,118.722,83.754,114.449z" clip-rule="evenodd"/><path fill="none" fill-rule="evenodd" stroke="#595959" d="M83.754,114.449c0-4.268,3.462-7.73,7.731-7.73 c4.271,0,7.732,3.463,7.732,7.73c0,4.272-3.462,7.733-7.732,7.733C87.216,122.183,83.754,118.722,83.754,114.449z" clip-rule="evenodd"/></g><g><path fill="none" fill-rule="evenodd" stroke="#595959" d="M3.927,12.125c0-4.84,3.922-8.762,8.761-8.762 h126.517c4.838,0,8.76,3.922,8.76,8.762v82.946c0,4.839-3.922,8.763-8.76,8.763H12.688c-4.839,0-8.761-3.924-8.761-8.763V12.125z" clip-rule="evenodd"/><path fill="none" fill-rule="evenodd" stroke="#595959" d="M3.927,12.125c0-4.84,3.922-8.762,8.761-8.762 h126.517c4.838,0,8.76,3.922,8.76,8.762v82.946c0,4.839-3.922,8.763-8.76,8.763H12.688c-4.839,0-8.761-3.924-8.761-8.763V12.125z" clip-rule="evenodd"/></g></g></svg>