<svg xmlns="http://www.w3.org/2000/svg" xmlns:xlink="http://www.w3.org/1999/xlink" id="Layer_1" width="157.533" height="112.898" x="0" y="0" enable-background="new 0 0 157.533 112.898" version="1.0" viewBox="0 0 157.533 112.898" xml:space="preserve"><g><path fill="none" fill-rule="evenodd" stroke="#595959" d="M7.752,15.981c0-4.786,3.878-8.668,8.666-8.668 h125.168c4.787,0,8.669,3.882,8.669,8.668v82.064c0,4.787-3.882,8.666-8.669,8.666H16.418c-4.788,0-8.666-3.879-8.666-8.666V15.981 z" clip-rule="evenodd"/><path fill="none" fill-rule="evenodd" stroke="#595959" d="M7.752,15.981c0-4.786,3.878-8.668,8.666-8.668 h125.168c4.787,0,8.669,3.882,8.669,8.668v82.064c0,4.787-3.882,8.666-8.669,8.666H16.418c-4.788,0-8.666-3.879-8.666-8.666V15.981 z" clip-rule="evenodd"/></g></svg>