<svg xmlns="http://www.w3.org/2000/svg" xmlns:xlink="http://www.w3.org/1999/xlink" id="Layer_1" width="97.774" height="116.878" x="0" y="0" enable-background="new 0 0 97.774 116.878" version="1.0" viewBox="0 0 97.774 116.878" xml:space="preserve"><g><path fill="none" fill-rule="evenodd" stroke="#595959" d="M34.752,61.478V5.239 c0-1.237,1.086-2.325,2.325-2.325H62.33c1.236,0,2.326,1.088,2.326,2.325v56.239h26.146c2.491,0,3.392,1.99,1.746,3.861 l-41.596,47.34c-0.965,1.098-2.531,1.098-3.496,0L5.86,65.339c-1.645-1.871-0.745-3.861,1.746-3.861H34.752z" clip-rule="evenodd"/><path fill="none" fill-rule="evenodd" stroke="#595959" d="M34.752,61.478V5.239 c0-1.237,1.086-2.325,2.325-2.325H62.33c1.236,0,2.326,1.088,2.326,2.325v56.239h26.146c2.491,0,3.392,1.99,1.746,3.861 l-41.596,47.34c-0.965,1.098-2.531,1.098-3.496,0L5.86,65.339c-1.645-1.871-0.745-3.861,1.746-3.861H34.752z" clip-rule="evenodd"/></g></svg>