<svg xmlns="http://www.w3.org/2000/svg" xmlns:xlink="http://www.w3.org/1999/xlink" id="Layer_1" width="116.463" height="93.249" x="0" y="0" enable-background="new 0 0 116.463 93.249" version="1.0" viewBox="0 0 116.463 93.249" xml:space="preserve"><g><path fill="none" fill-rule="evenodd" stroke="#595959" d="M55.279,31.942h56.24 c1.236,0,2.324,1.086,2.324,2.325v25.253c0,1.235-1.088,2.325-2.324,2.325h-56.24v26.147c0,2.49-1.988,3.391-3.86,1.745 L4.078,48.141c-1.097-0.963-1.097-2.53,0-3.495l47.34-41.599c1.872-1.643,3.86-0.745,3.86,1.748V31.942z" clip-rule="evenodd"/><path fill="none" fill-rule="evenodd" stroke="#595959" d="M55.279,31.942h56.24 c1.236,0,2.324,1.086,2.324,2.325v25.253c0,1.235-1.088,2.325-2.324,2.325h-56.24v26.147c0,2.49-1.988,3.391-3.86,1.745 L4.078,48.141c-1.097-0.963-1.097-2.53,0-3.495l47.34-41.599c1.872-1.643,3.86-0.745,3.86,1.748V31.942z" clip-rule="evenodd"/></g></svg>