<svg xmlns="http://www.w3.org/2000/svg" xmlns:xlink="http://www.w3.org/1999/xlink" id="Layer_1" width="151.256" height="138.503" x="0" y="0" enable-background="new 0 0 151.256 138.503" version="1.0" viewBox="0 0 151.256 138.503" xml:space="preserve"><switch><g><rect width="151.256" height="138.503" fill="none"/><g><path fill="none" stroke="#595959" d="M147.327,12.199v82.947c0,4.838-3.922,8.762-8.76,8.762H67.43v30.697l-20.106-30.697 H12.053c-4.838,0-8.761-3.924-8.761-8.762V12.199c0-4.84,3.923-8.762,8.761-8.762h126.517c4.838,0,8.76,3.922,8.76,8.762H147.327 z"/><path fill="none" stroke="#595959" d="M147.327,12.199v82.947c0,4.838-3.922,8.762-8.76,8.762H67.43v30.697l-20.106-30.697 H12.053c-4.838,0-8.761-3.924-8.761-8.762V12.199c0-4.84,3.923-8.762,8.761-8.762h126.517c4.838,0,8.76,3.922,8.76,8.762H147.327 z"/></g></g></switch></svg>