<svg xmlns="http://www.w3.org/2000/svg" xmlns:xlink="http://www.w3.org/1999/xlink" id="Layer_1" width="97.774" height="116.878" x="0" y="0" enable-background="new 0 0 97.774 116.878" version="1.0" viewBox="0 0 97.774 116.878" xml:space="preserve"><g><path fill="none" fill-rule="evenodd" stroke="#595959" d="M63.658,54.937v56.24 c0,1.236-1.089,2.326-2.326,2.326H36.08c-1.238,0-2.326-1.09-2.326-2.326v-56.24H7.607c-2.491,0-3.393-1.989-1.746-3.859 L47.458,3.737c0.964-1.099,2.529-1.099,3.493,0l41.599,47.341c1.644,1.87,0.745,3.859-1.748,3.859H63.658z" clip-rule="evenodd"/><path fill="none" fill-rule="evenodd" stroke="#595959" d="M63.658,54.937v56.24 c0,1.236-1.089,2.326-2.326,2.326H36.08c-1.238,0-2.326-1.09-2.326-2.326v-56.24H7.607c-2.491,0-3.393-1.989-1.746-3.859 L47.458,3.737c0.964-1.099,2.529-1.099,3.493,0l41.599,47.341c1.644,1.87,0.745,3.859-1.748,3.859H63.658z" clip-rule="evenodd"/></g></svg>