<svg xmlns="http://www.w3.org/2000/svg" xmlns:xlink="http://www.w3.org/1999/xlink" id="Layer_1" width="136.036" height="120.908" x="0" y="0" enable-background="new 0 0 136.036 120.908" version="1.0" viewBox="0 0 136.036 120.908" xml:space="preserve"><g><path fill="none" fill-rule="evenodd" stroke="#595959" d="M68.334,119.001L10.097,119 c-6.572-0.001-9.401-4.899-6.115-10.592L33.1,57.972L62.22,7.538c3.286-5.691,8.944-5.691,12.23,0l29.12,50.435l29.117,50.437 c3.287,5.692,0.457,10.591-6.114,10.592L68.334,119.001z" clip-rule="evenodd"/><path fill="none" fill-rule="evenodd" stroke="#595959" d="M68.334,119.001L10.097,119 c-6.572-0.001-9.401-4.899-6.115-10.592L33.1,57.972L62.22,7.538c3.286-5.691,8.944-5.691,12.23,0l29.12,50.435l29.117,50.437 c3.287,5.692,0.457,10.591-6.114,10.592L68.334,119.001z" clip-rule="evenodd"/></g></svg>