<svg xmlns="http://www.w3.org/2000/svg" xmlns:xlink="http://www.w3.org/1999/xlink" id="Layer_1" width="153.157" height="137.618" x="0" y="0" enable-background="new 0 0 153.157 137.618" version="1.0" viewBox="0 0 153.157 137.618" xml:space="preserve"><g><g opacity=".25"><g><path fill-rule="evenodd" d="M82.666,131.472c0-2.754,2.232-4.984,4.988-4.984 c2.754,0,4.988,2.23,4.988,4.984c0,2.756-2.234,4.99-4.988,4.99C84.898,136.462,82.666,134.228,82.666,131.472z" clip-rule="evenodd"/><path fill-rule="evenodd" d="M82.666,131.472c0-2.754,2.232-4.984,4.988-4.984 c2.754,0,4.988,2.23,4.988,4.984c0,2.756-2.234,4.99-4.988,4.99C84.898,136.462,82.666,134.228,82.666,131.472z" clip-rule="evenodd"/></g><g><circle cx="94.284" cy="116.233" r="7.731" fill-rule="evenodd" clip-rule="evenodd"/><circle cx="94.284" cy="116.233" r="7.731" fill-rule="evenodd" clip-rule="evenodd"/></g><g><path fill-rule="evenodd" d="M6.725,13.909c0-4.84,3.922-8.762,8.761-8.762h126.516 c4.838,0,8.76,3.922,8.76,8.762v82.946c0,4.84-3.922,8.764-8.76,8.764H15.486c-4.839,0-8.761-3.924-8.761-8.764V13.909z" clip-rule="evenodd"/><path fill-rule="evenodd" d="M6.725,13.909c0-4.84,3.922-8.762,8.761-8.762h126.516 c4.838,0,8.76,3.922,8.76,8.762v82.946c0,4.84-3.922,8.764-8.76,8.764H15.486c-4.839,0-8.761-3.924-8.761-8.764V13.909z" clip-rule="evenodd"/></g></g><g><g><linearGradient id="SVGID_1_" x1="78.97" x2="88.947" y1="128.844" y2="128.844" gradientUnits="userSpaceOnUse"><stop offset="0" style="stop-color:#ff897a"/><stop offset="1" style="stop-color:#ff3400"/></linearGradient><circle cx="83.958" cy="128.843" r="4.988" fill="url(#SVGID_1_)" fill-rule="evenodd" stroke="#6F0000" clip-rule="evenodd"/><linearGradient id="SVGID_2_" x1="78.97" x2="88.947" y1="128.844" y2="128.844" gradientUnits="userSpaceOnUse"><stop offset="0" style="stop-color:#ff897a"/><stop offset="1" style="stop-color:#ff3400"/></linearGradient><circle cx="83.958" cy="128.843" r="4.988" fill="url(#SVGID_2_)" fill-rule="evenodd" stroke="#6F0000" clip-rule="evenodd"/></g><g><linearGradient id="SVGID_3_" x1="82.857" x2="98.32" y1="113.605" y2="113.605" gradientUnits="userSpaceOnUse"><stop offset="0" style="stop-color:#ff897a"/><stop offset="1" style="stop-color:#ff3400"/></linearGradient><path fill="url(#SVGID_3_)" fill-rule="evenodd" stroke="#6F0000" d="M82.857,113.603 c0-4.268,3.461-7.73,7.73-7.73c4.271,0,7.732,3.463,7.732,7.73c0,4.273-3.461,7.734-7.732,7.734 C86.318,121.337,82.857,117.876,82.857,113.603z" clip-rule="evenodd"/><linearGradient id="SVGID_4_" x1="82.857" x2="98.32" y1="113.605" y2="113.605" gradientUnits="userSpaceOnUse"><stop offset="0" style="stop-color:#ff897a"/><stop offset="1" style="stop-color:#ff3400"/></linearGradient><path fill="url(#SVGID_4_)" fill-rule="evenodd" stroke="#6F0000" d="M82.857,113.603 c0-4.268,3.461-7.73,7.73-7.73c4.271,0,7.732,3.463,7.732,7.73c0,4.273-3.461,7.734-7.732,7.734 C86.318,121.337,82.857,117.876,82.857,113.603z" clip-rule="evenodd"/></g><g><linearGradient id="SVGID_5_" x1="3.03" x2="147.066" y1="52.752" y2="52.752" gradientUnits="userSpaceOnUse"><stop offset="0" style="stop-color:#ff897a"/><stop offset="1" style="stop-color:#ff3400"/></linearGradient><path fill="url(#SVGID_5_)" fill-rule="evenodd" stroke="#6F0000" d="M3.03,11.279 c0-4.84,3.922-8.762,8.761-8.762h126.515c4.84,0,8.76,3.922,8.76,8.762v82.947c0,4.838-3.92,8.762-8.76,8.762H11.791 c-4.839,0-8.761-3.924-8.761-8.762V11.279z" clip-rule="evenodd"/><linearGradient id="SVGID_6_" x1="3.03" x2="147.066" y1="52.752" y2="52.752" gradientUnits="userSpaceOnUse"><stop offset="0" style="stop-color:#ff897a"/><stop offset="1" style="stop-color:#ff3400"/></linearGradient><path fill="url(#SVGID_6_)" fill-rule="evenodd" stroke="#6F0000" d="M3.03,11.279 c0-4.84,3.922-8.762,8.761-8.762h126.515c4.84,0,8.76,3.922,8.76,8.762v82.947c0,4.838-3.92,8.762-8.76,8.762H11.791 c-4.839,0-8.761-3.924-8.761-8.762V11.279z" clip-rule="evenodd"/></g></g></g></svg>