<svg xmlns="http://www.w3.org/2000/svg" xmlns:xlink="http://www.w3.org/1999/xlink" id="Layer_1" width="128.463" height="121.082" x="0" y="0" enable-background="new 0 0 128.463 121.082" version="1.0" viewBox="0 0 128.463 121.082" xml:space="preserve"><g><g opacity=".25"><polygon fill-rule="evenodd" points="102.293 118.053 65.822 118.055 29.35 118.053 18.078 83.368 6.81 48.68 36.313 27.242 65.822 5.806 124.833 48.68 113.565 83.368" clip-rule="evenodd"/><polygon fill-rule="evenodd" points="102.293 118.053 65.822 118.055 29.35 118.053 18.078 83.368 6.81 48.68 36.313 27.242 65.822 5.806 124.833 48.68 113.565 83.368" clip-rule="evenodd"/></g><g><linearGradient id="SVGID_1_" x1="3.115" x2="121.138" y1="59.3" y2="59.3" gradientUnits="userSpaceOnUse"><stop offset="0" style="stop-color:#ff897a"/><stop offset="1" style="stop-color:#ff3400"/></linearGradient><polygon fill="url(#SVGID_1_)" fill-rule="evenodd" stroke="#6F0000" points="98.599 115.423 62.126 115.424 25.656 115.423 14.382 80.738 3.115 46.05 32.619 24.612 62.126 3.176 121.138 46.05 109.871 80.738" clip-rule="evenodd"/><linearGradient id="SVGID_2_" x1="3.115" x2="121.138" y1="59.3" y2="59.3" gradientUnits="userSpaceOnUse"><stop offset="0" style="stop-color:#ff897a"/><stop offset="1" style="stop-color:#ff3400"/></linearGradient><polygon fill="url(#SVGID_2_)" fill-rule="evenodd" stroke="#6F0000" points="98.599 115.423 62.126 115.424 25.656 115.423 14.382 80.738 3.115 46.05 32.619 24.612 62.126 3.176 121.138 46.05 109.871 80.738" clip-rule="evenodd"/></g></g></svg>