<svg xmlns="http://www.w3.org/2000/svg" xmlns:xlink="http://www.w3.org/1999/xlink" id="Layer_1" width="141.28" height="125.158" x="0" y="0" enable-background="new 0 0 141.28 125.158" version="1.0" viewBox="0 0 141.28 125.158" xml:space="preserve"><g><g opacity=".25"><path fill-rule="evenodd" d="M72.229,121.835l-58.237-0.001c-6.572-0.001-9.401-4.899-6.115-10.592 l29.118-50.437l29.12-50.435c3.286-5.692,8.944-5.692,12.23,0l29.12,50.435l29.117,50.437c3.287,5.692,0.457,10.591-6.114,10.592 L72.229,121.835z" clip-rule="evenodd"/><path fill-rule="evenodd" d="M72.229,121.835l-58.237-0.001c-6.572-0.001-9.401-4.899-6.115-10.592 l29.118-50.437l29.12-50.435c3.286-5.692,8.944-5.692,12.23,0l29.12,50.435l29.117,50.437c3.287,5.692,0.457,10.591-6.114,10.592 L72.229,121.835z" clip-rule="evenodd"/></g><g><linearGradient id="SVGID_1_" x1="2.807" x2="134.262" y1="61.339" y2="61.339" gradientUnits="userSpaceOnUse"><stop offset="0" style="stop-color:#ff897a"/><stop offset="1" style="stop-color:#ff3400"/></linearGradient><path fill="url(#SVGID_1_)" fill-rule="evenodd" stroke="#6F0000" d="M68.535,119.206l-58.238-0.001 c-6.572-0.001-9.401-4.899-6.115-10.592L33.3,58.176L62.42,7.742c3.285-5.692,8.943-5.692,12.23,0l29.119,50.435l29.118,50.437 c3.286,5.692,0.457,10.591-6.114,10.592L68.535,119.206z" clip-rule="evenodd"/><linearGradient id="SVGID_2_" x1="2.807" x2="134.262" y1="61.339" y2="61.339" gradientUnits="userSpaceOnUse"><stop offset="0" style="stop-color:#ff897a"/><stop offset="1" style="stop-color:#ff3400"/></linearGradient><path fill="url(#SVGID_2_)" fill-rule="evenodd" stroke="#6F0000" d="M68.535,119.206l-58.238-0.001 c-6.572-0.001-9.401-4.899-6.115-10.592L33.3,58.176L62.42,7.742c3.285-5.692,8.943-5.692,12.23,0l29.119,50.435l29.118,50.437 c3.286,5.692,0.457,10.591-6.114,10.592L68.535,119.206z" clip-rule="evenodd"/></g></g></svg>