<svg xmlns="http://www.w3.org/2000/svg" xmlns:xlink="http://www.w3.org/1999/xlink" id="Layer_1" width="119.268" height="96.873" x="0" y="0" enable-background="new 0 0 119.268 96.873" version="1.0" viewBox="0 0 119.268 96.873" xml:space="preserve"><g><g opacity=".25"><path fill-rule="evenodd" d="M65.069,64.885H8.831c-1.238,0-2.326-1.088-2.326-2.326V37.307 c0-1.237,1.088-2.325,2.326-2.325h56.238V8.834c0-2.493,1.988-3.391,3.861-1.748l47.34,41.599c1.098,0.965,1.098,2.529,0,3.494 L68.93,93.776c-1.873,1.646-3.861,0.745-3.861-1.745V64.885z" clip-rule="evenodd"/><path fill-rule="evenodd" d="M65.069,64.885H8.831c-1.238,0-2.326-1.088-2.326-2.326V37.307 c0-1.237,1.088-2.325,2.326-2.325h56.238V8.834c0-2.493,1.988-3.391,3.861-1.748l47.34,41.599c1.098,0.965,1.098,2.529,0,3.494 L68.93,93.776c-1.873,1.646-3.861,0.745-3.861-1.745V64.885z" clip-rule="evenodd"/></g><g><linearGradient id="SVGID_1_" x1="2.81" x2="113.398" y1="47.802" y2="47.802" gradientUnits="userSpaceOnUse"><stop offset="0" style="stop-color:#ff897a"/><stop offset="1" style="stop-color:#ff3400"/></linearGradient><path fill="url(#SVGID_1_)" fill-rule="evenodd" stroke="#6F0000" d="M61.375,62.255H5.136 c-1.238,0-2.326-1.088-2.326-2.326V34.677c0-1.237,1.088-2.325,2.326-2.325h56.239V6.204c0-2.493,1.988-3.391,3.86-1.748 l47.34,41.599c1.098,0.965,1.098,2.529,0,3.494l-47.34,41.598c-1.872,1.646-3.86,0.745-3.86-1.745V62.255z" clip-rule="evenodd"/><linearGradient id="SVGID_2_" x1="2.81" x2="113.398" y1="47.802" y2="47.802" gradientUnits="userSpaceOnUse"><stop offset="0" style="stop-color:#ff897a"/><stop offset="1" style="stop-color:#ff3400"/></linearGradient><path fill="url(#SVGID_2_)" fill-rule="evenodd" stroke="#6F0000" d="M61.375,62.255H5.136 c-1.238,0-2.326-1.088-2.326-2.326V34.677c0-1.237,1.088-2.325,2.326-2.325h56.239V6.204c0-2.493,1.988-3.391,3.86-1.748 l47.34,41.599c1.098,0.965,1.098,2.529,0,3.494l-47.34,41.598c-1.872,1.646-3.86,0.745-3.86-1.745V62.255z" clip-rule="evenodd"/></g></g></svg>