<svg xmlns="http://www.w3.org/2000/svg" xmlns:xlink="http://www.w3.org/1999/xlink" id="Layer_1" width="119.268" height="96.873" x="0" y="0" enable-background="new 0 0 119.268 96.873" version="1.0" viewBox="0 0 119.268 96.873" xml:space="preserve"><g><g opacity=".25"><path fill-rule="evenodd" d="M58.528,35.98h56.241c1.236,0,2.324,1.086,2.324,2.325v25.253 c0,1.235-1.088,2.325-2.324,2.325H58.528v26.147c0,2.49-1.988,3.391-3.86,1.745L7.328,52.179c-1.097-0.963-1.097-2.529,0-3.494 l47.34-41.599c1.872-1.643,3.86-0.745,3.86,1.748V35.98z" clip-rule="evenodd"/><path fill-rule="evenodd" d="M58.528,35.98h56.241c1.236,0,2.324,1.086,2.324,2.325v25.253 c0,1.235-1.088,2.325-2.324,2.325H58.528v26.147c0,2.49-1.988,3.391-3.86,1.745L7.328,52.179c-1.097-0.963-1.097-2.529,0-3.494 l47.34-41.599c1.872-1.643,3.86-0.745,3.86,1.748V35.98z" clip-rule="evenodd"/></g><g><linearGradient id="SVGID_1_" x1="2.811" x2="113.399" y1="47.802" y2="47.802" gradientUnits="userSpaceOnUse"><stop offset="0" style="stop-color:#ff897a"/><stop offset="1" style="stop-color:#ff3400"/></linearGradient><path fill="url(#SVGID_1_)" fill-rule="evenodd" stroke="#6F0000" d="M54.833,33.351h56.241 c1.237,0,2.325,1.086,2.325,2.325v25.253c0,1.235-1.088,2.325-2.325,2.325H54.833v26.147c0,2.49-1.988,3.391-3.859,1.745 L3.633,49.549c-1.097-0.963-1.097-2.529,0-3.494L50.974,4.456c1.871-1.643,3.859-0.745,3.859,1.748V33.351z" clip-rule="evenodd"/><linearGradient id="SVGID_2_" x1="2.811" x2="113.399" y1="47.802" y2="47.802" gradientUnits="userSpaceOnUse"><stop offset="0" style="stop-color:#ff897a"/><stop offset="1" style="stop-color:#ff3400"/></linearGradient><path fill="url(#SVGID_2_)" fill-rule="evenodd" stroke="#6F0000" d="M54.833,33.351h56.241 c1.237,0,2.325,1.086,2.325,2.325v25.253c0,1.235-1.088,2.325-2.325,2.325H54.833v26.147c0,2.49-1.988,3.391-3.859,1.745 L3.633,49.549c-1.097-0.963-1.097-2.529,0-3.494L50.974,4.456c1.871-1.643,3.859-0.745,3.859,1.748V33.351z" clip-rule="evenodd"/></g></g></svg>