<svg xmlns="http://www.w3.org/2000/svg" xmlns:xlink="http://www.w3.org/1999/xlink" id="Layer_1" width="116.314" height="116.314" x="0" y="0" enable-background="new 0 0 116.314 116.314" version="1.0" viewBox="0 0 116.314 116.314" xml:space="preserve"><g><g opacity=".25"><path fill-rule="evenodd" d="M5.887,31.278c0-14.409,11.679-26.088,26.088-26.088h56.389 c14.408,0,26.086,11.679,26.086,26.088v56.388c0,14.408-11.678,26.088-26.086,26.088H31.975c-14.409,0-26.088-11.68-26.088-26.088 V31.278z" clip-rule="evenodd"/></g><g><linearGradient id="SVGID_1_" x1="2.192" x2="110.755" y1="56.842" y2="56.842" gradientUnits="userSpaceOnUse"><stop offset="0" style="stop-color:#ff897a"/><stop offset="1" style="stop-color:#ff3400"/></linearGradient><path fill="url(#SVGID_1_)" fill-rule="evenodd" stroke="#6F0000" d="M2.192,28.648 c0-14.409,11.678-26.088,26.088-26.088h56.389c14.408,0,26.086,11.679,26.086,26.088v56.388c0,14.408-11.678,26.088-26.086,26.088 H28.28c-14.41,0-26.088-11.68-26.088-26.088V28.648z" clip-rule="evenodd"/></g></g></svg>