<svg xmlns="http://www.w3.org/2000/svg" xmlns:xlink="http://www.w3.org/1999/xlink" id="Layer_1" width="137.659" height="119.541" x="0" y="0" enable-background="new 0 0 137.659 119.541" version="1.0" viewBox="0 0 137.659 119.541" xml:space="preserve"><g><g opacity=".25"><polygon fill-rule="evenodd" points="102.386 116.527 70.421 116.527 38.453 116.527 6.488 61.16 22.471 33.478 38.453 5.794 70.421 5.794 102.386 5.794 118.371 33.478 134.351 61.16 118.371 88.844" clip-rule="evenodd"/><polygon fill-rule="evenodd" points="102.386 116.527 70.421 116.527 38.453 116.527 6.488 61.16 22.471 33.478 38.453 5.794 70.421 5.794 102.386 5.794 118.371 33.478 134.351 61.16 118.371 88.844" clip-rule="evenodd"/></g><g><linearGradient id="SVGID_1_" x1="2.793" x2="130.656" y1="58.53" y2="58.53" gradientUnits="userSpaceOnUse"><stop offset="0" style="stop-color:#ff897a"/><stop offset="1" style="stop-color:#ff3400"/></linearGradient><polygon fill="url(#SVGID_1_)" fill-rule="evenodd" stroke="#6F0000" points="98.691 113.896 66.727 113.896 34.758 113.896 2.793 58.531 18.775 30.848 34.758 3.165 66.727 3.165 98.691 3.165 114.675 30.848 130.656 58.531 114.675 86.215" clip-rule="evenodd"/><linearGradient id="SVGID_2_" x1="2.793" x2="130.656" y1="58.53" y2="58.53" gradientUnits="userSpaceOnUse"><stop offset="0" style="stop-color:#ff897a"/><stop offset="1" style="stop-color:#ff3400"/></linearGradient><polygon fill="url(#SVGID_2_)" fill-rule="evenodd" stroke="#6F0000" points="98.691 113.896 66.727 113.896 34.758 113.896 2.793 58.531 18.775 30.848 34.758 3.165 66.727 3.165 98.691 3.165 114.675 30.848 130.656 58.531 114.675 86.215" clip-rule="evenodd"/></g></g></svg>