<svg xmlns="http://www.w3.org/2000/svg" xmlns:xlink="http://www.w3.org/1999/xlink" id="Layer_1" width="137.838" height="120.595" x="0" y="0" enable-background="new 0 0 137.838 120.595" version="1.0" viewBox="0 0 137.838 120.595" xml:space="preserve"><g opacity=".25"><polygon fill-rule="evenodd" points="133.239 115.585 68.474 115.587 3.708 115.585 36.089 59.497 68.474 3.41 100.858 59.497" clip-rule="evenodd"/><polygon fill-rule="evenodd" points="133.239 115.585 68.474 115.587 3.708 115.585 36.089 59.497 68.474 3.41 100.858 59.497" clip-rule="evenodd"/></g><g><linearGradient id="SVGID_1_" x1="3.708" x2="133.239" y1="59.498" y2="59.498" gradientUnits="userSpaceOnUse"><stop offset="0" style="stop-color:#ff897a"/><stop offset="1" style="stop-color:#ff3400"/></linearGradient><polygon fill="url(#SVGID_1_)" fill-rule="evenodd" stroke="#6F0000" points="133.239 115.585 68.473 115.587 3.708 115.585 36.089 59.497 68.473 3.41 100.858 59.497" clip-rule="evenodd"/><linearGradient id="SVGID_2_" x1="3.708" x2="133.239" y1="59.498" y2="59.498" gradientUnits="userSpaceOnUse"><stop offset="0" style="stop-color:#ff897a"/><stop offset="1" style="stop-color:#ff3400"/></linearGradient><polygon fill="url(#SVGID_2_)" fill-rule="evenodd" stroke="#6F0000" points="133.239 115.585 68.473 115.587 3.708 115.585 36.089 59.497 68.473 3.41 100.858 59.497" clip-rule="evenodd"/></g></svg>