<svg xmlns="http://www.w3.org/2000/svg" xmlns:xlink="http://www.w3.org/1999/xlink" id="Layer_1" width="96.661" height="119.096" x="0" y="0" enable-background="new 0 0 96.661 119.096" version="1.0" viewBox="0 0 96.661 119.096" xml:space="preserve"><g><g opacity=".25"><path fill-rule="evenodd" d="M36.043,64.812V8.574c0-1.237,1.086-2.325,2.325-2.325h25.252 c1.236,0,2.326,1.088,2.326,2.325v56.238h26.146c2.491,0,3.392,1.99,1.746,3.861l-41.596,47.34c-0.965,1.099-2.531,1.099-3.496,0 L7.151,68.674c-1.645-1.871-0.745-3.861,1.746-3.861H36.043z" clip-rule="evenodd"/><path fill-rule="evenodd" d="M36.043,64.812V8.574c0-1.237,1.086-2.325,2.325-2.325h25.252 c1.236,0,2.326,1.088,2.326,2.325v56.238h26.146c2.491,0,3.392,1.99,1.746,3.861l-41.596,47.34c-0.965,1.099-2.531,1.099-3.496,0 L7.151,68.674c-1.645-1.871-0.745-3.861,1.746-3.861H36.043z" clip-rule="evenodd"/></g><g><linearGradient id="SVGID_1_" x1="2.623" x2="90.978" y1="58.914" y2="58.914" gradientUnits="userSpaceOnUse"><stop offset="0" style="stop-color:#ff897a"/><stop offset="1" style="stop-color:#ff3400"/></linearGradient><path fill="url(#SVGID_1_)" fill-rule="evenodd" stroke="#6F0000" d="M32.349,62.183V5.944 c0-1.237,1.086-2.325,2.324-2.325h25.252c1.236,0,2.326,1.088,2.326,2.325v56.238h26.146c2.492,0,3.393,1.99,1.746,3.861 l-41.596,47.34c-0.965,1.099-2.531,1.099-3.496,0L3.457,66.044c-1.645-1.871-0.746-3.861,1.746-3.861H32.349z" clip-rule="evenodd"/><linearGradient id="SVGID_2_" x1="2.623" x2="90.978" y1="58.914" y2="58.914" gradientUnits="userSpaceOnUse"><stop offset="0" style="stop-color:#ff897a"/><stop offset="1" style="stop-color:#ff3400"/></linearGradient><path fill="url(#SVGID_2_)" fill-rule="evenodd" stroke="#6F0000" d="M32.349,62.183V5.944 c0-1.237,1.086-2.325,2.324-2.325h25.252c1.236,0,2.326,1.088,2.326,2.325v56.238h26.146c2.492,0,3.393,1.99,1.746,3.861 l-41.596,47.34c-0.965,1.099-2.531,1.099-3.496,0L3.457,66.044c-1.645-1.871-0.746-3.861,1.746-3.861H32.349z" clip-rule="evenodd"/></g></g></svg>