<svg xmlns="http://www.w3.org/2000/svg" xmlns:xlink="http://www.w3.org/1999/xlink" id="Layer_1" width="116.314" height="138.089" x="0" y="0" enable-background="new 0 0 116.314 138.089" version="1.0" viewBox="0 0 116.314 138.089" xml:space="preserve"><g><g opacity=".25"><ellipse cx="60.167" cy="26.895" fill-rule="evenodd" clip-rule="evenodd" rx="48.899" ry="18.582"/></g><g opacity=".25"><path fill-rule="evenodd" d="M109.151,37.791v77.655l-0.169,0.612c0,10.262-21.892,18.581-48.899,18.581 c-27.007,0-48.898-8.319-48.898-18.581c0-0.206-0.006-0.409,0.012-0.612V37.939c8.615,6.975,27.267,11.805,48.887,11.805 C81.855,49.744,100.616,44.847,109.151,37.791z" clip-rule="evenodd"/></g><g><linearGradient id="SVGID_1_" x1="7.573" x2="105.372" y1="24.264" y2="24.264" gradientUnits="userSpaceOnUse"><stop offset="0" style="stop-color:#ff897a"/><stop offset="1" style="stop-color:#ff3400"/></linearGradient><ellipse cx="56.473" cy="24.265" fill="url(#SVGID_1_)" fill-rule="evenodd" stroke="#6F0000" clip-rule="evenodd" rx="48.899" ry="18.582"/></g><g><linearGradient id="SVGID_2_" x1="7.488" x2="105.456" y1="83.585" y2="83.585" gradientUnits="userSpaceOnUse"><stop offset="0" style="stop-color:#ff897a"/><stop offset="1" style="stop-color:#ff3400"/></linearGradient><path fill="url(#SVGID_2_)" fill-rule="evenodd" stroke="#6F0000" d="M105.456,35.161v77.654l-0.168,0.613 c0,10.262-21.893,18.581-48.9,18.581c-27.006,0-48.898-8.319-48.898-18.581c0-0.205-0.006-0.409,0.012-0.613V35.31 c8.615,6.975,27.268,11.805,48.887,11.805C78.161,47.114,96.921,42.217,105.456,35.161z" clip-rule="evenodd"/></g></g></svg>