<svg xmlns="http://www.w3.org/2000/svg" xmlns:xlink="http://www.w3.org/1999/xlink" id="Layer_1" width="128.846" height="122.544" x="0" y="0" enable-background="new 0 0 128.846 122.544" version="1.0" viewBox="0 0 128.846 122.544" xml:space="preserve"><g><g opacity=".25"><polygon fill-rule="evenodd" points="103.702 120.378 66.588 93.416 29.475 120.378 43.65 76.75 6.538 49.786 52.411 49.784 66.588 6.157 80.766 49.784 126.637 49.786 89.526 76.75" clip-rule="evenodd"/><polygon fill-rule="evenodd" points="103.702 120.378 66.588 93.416 29.475 120.378 43.65 76.75 6.538 49.786 52.411 49.784 66.588 6.157 80.766 49.784 126.637 49.786 89.526 76.75" clip-rule="evenodd"/></g><g><linearGradient id="SVGID_1_" x1="2.844" x2="122.944" y1="60.638" y2="60.638" gradientUnits="userSpaceOnUse"><stop offset="0" style="stop-color:#ff897a"/><stop offset="1" style="stop-color:#ff3400"/></linearGradient><polygon fill="url(#SVGID_1_)" fill-rule="evenodd" stroke="#6F0000" points="100.006 117.749 62.895 90.786 25.779 117.749 39.955 74.121 2.844 47.156 48.717 47.154 62.895 3.527 77.071 47.154 122.944 47.156 85.831 74.121" clip-rule="evenodd"/><linearGradient id="SVGID_2_" x1="2.844" x2="122.944" y1="60.638" y2="60.638" gradientUnits="userSpaceOnUse"><stop offset="0" style="stop-color:#ff897a"/><stop offset="1" style="stop-color:#ff3400"/></linearGradient><polygon fill="url(#SVGID_2_)" fill-rule="evenodd" stroke="#6F0000" points="100.006 117.749 62.895 90.786 25.779 117.749 39.955 74.121 2.844 47.156 48.717 47.154 62.895 3.527 77.071 47.154 122.944 47.156 85.831 74.121" clip-rule="evenodd"/></g></g></svg>