<svg xmlns="http://www.w3.org/2000/svg" xmlns:xlink="http://www.w3.org/1999/xlink" id="Layer_1" width="153.157" height="137.618" x="0" y="0" enable-background="new 0 0 153.157 137.618" version="1.0" viewBox="0 0 153.157 137.618" xml:space="preserve"><g><g opacity=".25"><path fill-rule="evenodd" d="M6.725,13.982c0-4.84,3.922-8.762,8.76-8.762h126.517 c4.838,0,8.761,3.922,8.761,8.762v82.946c0,4.84-3.923,8.764-8.761,8.764h-35.27l-20.107,30.695v-30.695h-71.14 c-4.838,0-8.76-3.924-8.76-8.764V13.982z" clip-rule="evenodd"/><path fill-rule="evenodd" d="M6.725,13.982c0-4.84,3.922-8.762,8.76-8.762h126.517 c4.838,0,8.761,3.922,8.761,8.762v82.946c0,4.84-3.923,8.764-8.761,8.764h-35.27l-20.107,30.695v-30.695h-71.14 c-4.838,0-8.76-3.924-8.76-8.764V13.982z" clip-rule="evenodd"/></g><g><linearGradient id="SVGID_1_" x1="3.03" x2="147.068" y1="68.175" y2="68.175" gradientUnits="userSpaceOnUse"><stop offset="0" style="stop-color:#ff897a"/><stop offset="1" style="stop-color:#ff3400"/></linearGradient><path fill="url(#SVGID_1_)" fill-rule="evenodd" stroke="#6F0000" d="M3.03,11.353 c0-4.84,3.922-8.762,8.761-8.762h126.516c4.839,0,8.762,3.922,8.762,8.762V94.3c0,4.838-3.923,8.762-8.762,8.762h-35.269 l-20.108,30.697v-30.697H11.791c-4.839,0-8.761-3.924-8.761-8.762V11.353z" clip-rule="evenodd"/><linearGradient id="SVGID_2_" x1="3.03" x2="147.068" y1="68.175" y2="68.175" gradientUnits="userSpaceOnUse"><stop offset="0" style="stop-color:#ff897a"/><stop offset="1" style="stop-color:#ff3400"/></linearGradient><path fill="url(#SVGID_2_)" fill-rule="evenodd" stroke="#6F0000" d="M3.03,11.353 c0-4.84,3.922-8.762,8.761-8.762h126.516c4.839,0,8.762,3.922,8.762,8.762V94.3c0,4.838-3.923,8.762-8.762,8.762h-35.269 l-20.108,30.697v-30.697H11.791c-4.839,0-8.761-3.924-8.761-8.762V11.353z" clip-rule="evenodd"/></g></g></svg>