<svg xmlns="http://www.w3.org/2000/svg" xmlns:xlink="http://www.w3.org/1999/xlink" id="Layer_1" width="128.846" height="122.544" x="0" y="0" enable-background="new 0 0 128.846 122.544" version="1.0" viewBox="0 0 128.846 122.544" xml:space="preserve"><g><g opacity=".25"><path fill-rule="evenodd" d="M66.588,97.681l-29.76,21.621c-5.72,4.155-11.191,0.181-9.009-6.546 l11.368-34.982L9.43,56.153c-5.72-4.157-3.631-10.588,3.44-10.59l36.783-0.001l11.367-34.98c2.185-6.727,8.947-6.727,11.134,0 l11.368,34.98l36.781,0.001c7.071,0.002,9.162,6.433,3.441,10.59L93.989,77.774l11.363,34.982 c2.187,6.727-3.286,10.701-9.007,6.546L66.588,97.681z" clip-rule="evenodd"/><path fill-rule="evenodd" d="M66.588,97.681l-29.76,21.621c-5.72,4.155-11.191,0.181-9.009-6.546 l11.368-34.982L9.43,56.153c-5.72-4.157-3.631-10.588,3.44-10.59l36.783-0.001l11.367-34.98c2.185-6.727,8.947-6.727,11.134,0 l11.368,34.98l36.781,0.001c7.071,0.002,9.162,6.433,3.441,10.59L93.989,77.774l11.363,34.982 c2.187,6.727-3.286,10.701-9.007,6.546L66.588,97.681z" clip-rule="evenodd"/></g><g><linearGradient id="SVGID_1_" x1="2.438" x2="123.347" y1="60.638" y2="60.638" gradientUnits="userSpaceOnUse"><stop offset="0" style="stop-color:#ff897a"/><stop offset="1" style="stop-color:#ff3400"/></linearGradient><path fill="url(#SVGID_1_)" fill-rule="evenodd" stroke="#6F0000" d="M62.894,95.051l-29.76,21.621 c-5.721,4.155-11.191,0.181-9.01-6.546l11.369-34.982L5.736,53.523c-5.721-4.157-3.631-10.588,3.439-10.59l36.783-0.001 l11.367-34.98c2.186-6.727,8.947-6.727,11.135,0l11.367,34.98l36.781,0.001c7.072,0.002,9.162,6.433,3.441,10.59L90.294,75.144 l11.363,34.982c2.186,6.727-3.287,10.701-9.008,6.546L62.894,95.051z" clip-rule="evenodd"/><linearGradient id="SVGID_2_" x1="2.438" x2="123.347" y1="60.638" y2="60.638" gradientUnits="userSpaceOnUse"><stop offset="0" style="stop-color:#ff897a"/><stop offset="1" style="stop-color:#ff3400"/></linearGradient><path fill="url(#SVGID_2_)" fill-rule="evenodd" stroke="#6F0000" d="M62.894,95.051l-29.76,21.621 c-5.721,4.155-11.191,0.181-9.01-6.546l11.369-34.982L5.736,53.523c-5.721-4.157-3.631-10.588,3.439-10.59l36.783-0.001 l11.367-34.98c2.186-6.727,8.947-6.727,11.135,0l11.367,34.98l36.781,0.001c7.072,0.002,9.162,6.433,3.441,10.59L90.294,75.144 l11.363,34.982c2.186,6.727-3.287,10.701-9.008,6.546L62.894,95.051z" clip-rule="evenodd"/></g></g></svg>