<svg xmlns="http://www.w3.org/2000/svg" xmlns:xlink="http://www.w3.org/1999/xlink" id="Layer_1" width="157.533" height="112.898" x="0" y="0" enable-background="new 0 0 157.533 112.898" version="1.0" viewBox="0 0 157.533 112.898" xml:space="preserve"><g><g opacity=".25"><g><polygon points="9.54 8.483 152.177 8.483 152.177 108.233 9.54 108.233 9.54 8.483"/><path d="M80.859,58.358"/></g><g><polygon points="9.54 8.483 152.177 8.483 152.177 108.233 9.54 108.233 9.54 8.483"/><path d="M80.859,58.358"/></g></g><g><g><linearGradient id="SVGID_1_" x1="5.923" x2="148.56" y1="54.637" y2="54.637" gradientUnits="userSpaceOnUse"><stop offset="0" style="stop-color:#ff897a"/><stop offset="1" style="stop-color:#ff3400"/></linearGradient><polygon fill="url(#SVGID_1_)" stroke="#6F0000" points="5.923 4.762 148.56 4.762 148.56 104.511 5.923 104.511 5.923 4.762"/><linearGradient id="SVGID_2_" x1="77.242" x2="77.242" y1="54.635" y2="54.635" gradientUnits="userSpaceOnUse"><stop offset="0" style="stop-color:#ff897a"/><stop offset="1" style="stop-color:#ff3400"/></linearGradient><path fill="url(#SVGID_2_)" stroke="#6F0000" d="M77.242,54.635"/></g><g><linearGradient id="SVGID_3_" x1="5.923" x2="148.56" y1="54.637" y2="54.637" gradientUnits="userSpaceOnUse"><stop offset="0" style="stop-color:#ff897a"/><stop offset="1" style="stop-color:#ff3400"/></linearGradient><polygon fill="url(#SVGID_3_)" stroke="#6F0000" points="5.923 4.762 148.56 4.762 148.56 104.511 5.923 104.511 5.923 4.762"/><linearGradient id="SVGID_4_" x1="77.242" x2="77.242" y1="54.635" y2="54.635" gradientUnits="userSpaceOnUse"><stop offset="0" style="stop-color:#ff897a"/><stop offset="1" style="stop-color:#ff3400"/></linearGradient><path fill="url(#SVGID_4_)" stroke="#6F0000" d="M77.242,54.635"/></g></g></g></svg>