<svg xmlns="http://www.w3.org/2000/svg" xmlns:xlink="http://www.w3.org/1999/xlink" id="Layer_1" width="153.157" height="137.618" x="0" y="0" enable-background="new 0 0 153.157 137.618" version="1.0" viewBox="0 0 153.157 137.618" xml:space="preserve"><switch><g><rect width="153.156" height="137.618" x="0" fill="none"/><g opacity=".25"><path d="M153.432,96.928c0,4.84-3.922,8.764-8.76,8.764H73.532v30.695l-20.106-30.695H18.155c-4.838,0-8.761-3.924-8.761-8.764 V13.982c0-4.84,3.923-8.762,8.761-8.762h126.518c4.838,0,8.76,3.922,8.76,8.762V96.928z"/><path d="M153.432,96.928c0,4.84-3.922,8.764-8.76,8.764H73.532v30.695l-20.106-30.695H18.155c-4.838,0-8.761-3.924-8.761-8.764 V13.982c0-4.84,3.923-8.762,8.761-8.762h126.518c4.838,0,8.76,3.922,8.76,8.762V96.928z"/></g><g><linearGradient id="SVGID_1_" x1="6.24" x2="149.01" y1="68.174" y2="68.174" gradientUnits="userSpaceOnUse"><stop offset="0" style="stop-color:#ff897a"/><stop offset="1" style="stop-color:#ff3400"/></linearGradient><path fill="url(#SVGID_1_)" stroke="#6F0000" d="M150.127,94.299c0,4.839-3.922,8.763-8.762,8.763H70.227v30.696L50.12,103.062 H14.85c-4.839,0-8.762-3.924-8.762-8.763V11.353c0-4.84,3.923-8.762,8.762-8.762h126.516c4.84,0,8.762,3.922,8.762,8.762V94.299z"/><linearGradient id="SVGID_2_" x1="6.24" x2="149.01" y1="68.174" y2="68.174" gradientUnits="userSpaceOnUse"><stop offset="0" style="stop-color:#ff897a"/><stop offset="1" style="stop-color:#ff3400"/></linearGradient><path fill="url(#SVGID_2_)" stroke="#6F0000" d="M150.127,94.299c0,4.839-3.922,8.763-8.762,8.763H70.227v30.696L50.12,103.062 H14.85c-4.839,0-8.762-3.924-8.762-8.763V11.353c0-4.84,3.923-8.762,8.762-8.762h126.516c4.84,0,8.762,3.922,8.762,8.762V94.299z"/></g></g></switch></svg>