<svg xmlns="http://www.w3.org/2000/svg" xmlns:xlink="http://www.w3.org/1999/xlink" id="Layer_1" width="157.533" height="112.898" x="0" y="0" enable-background="new 0 0 157.533 112.898" version="1.0" viewBox="0 0 157.533 112.898" xml:space="preserve"><g><g opacity=".25"><path fill-rule="evenodd" d="M9.54,17.229c0-4.787,3.88-8.668,8.668-8.668h125.167 c4.787,0,8.668,3.881,8.668,8.668v82.062c0,4.788-3.881,8.671-8.668,8.671H18.208c-4.788,0-8.668-3.883-8.668-8.671V17.229z" clip-rule="evenodd"/><path fill-rule="evenodd" d="M9.54,17.229c0-4.787,3.88-8.668,8.668-8.668h125.167 c4.787,0,8.668,3.881,8.668,8.668v82.062c0,4.788-3.881,8.671-8.668,8.671H18.208c-4.788,0-8.668-3.883-8.668-8.671V17.229z" clip-rule="evenodd"/></g><g><linearGradient id="SVGID_1_" x1="5.923" x2="148.426" y1="54.538" y2="54.538" gradientUnits="userSpaceOnUse"><stop offset="0" style="stop-color:#ff897a"/><stop offset="1" style="stop-color:#ff3400"/></linearGradient><path fill="url(#SVGID_1_)" fill-rule="evenodd" stroke="#6F0000" d="M5.923,13.506 c0-4.786,3.88-8.668,8.668-8.668h125.167c4.788,0,8.668,3.882,8.668,8.668v82.064c0,4.787-3.88,8.666-8.668,8.666H14.591 c-4.788,0-8.668-3.879-8.668-8.666V13.506z" clip-rule="evenodd"/><linearGradient id="SVGID_2_" x1="5.923" x2="148.426" y1="54.538" y2="54.538" gradientUnits="userSpaceOnUse"><stop offset="0" style="stop-color:#ff897a"/><stop offset="1" style="stop-color:#ff3400"/></linearGradient><path fill="url(#SVGID_2_)" fill-rule="evenodd" stroke="#6F0000" d="M5.923,13.506 c0-4.786,3.88-8.668,8.668-8.668h125.167c4.788,0,8.668,3.882,8.668,8.668v82.064c0,4.787-3.88,8.666-8.668,8.666H14.591 c-4.788,0-8.668-3.879-8.668-8.666V13.506z" clip-rule="evenodd"/></g></g></svg>