<svg xmlns="http://www.w3.org/2000/svg" xmlns:svg="http://www.w3.org/2000/svg" xmlns:xlink="http://www.w3.org/1999/xlink" id="Layer_1" width="96.661" height="119.096" x="0" y="0" enable-background="new 0 0 96.661 119.096" version="1.0" viewBox="0 0 96.661 119.096" xml:space="preserve"><metadata id="metadata4418"/><defs id="defs4416"><linearGradient id="linearGradient4429" x1="2.624" x2="90.978" y1="58.914" y2="58.914" gradientUnits="userSpaceOnUse" xlink:href="#SVGID_2_"/><linearGradient id="SVGID_2_" x1="2.624" x2="90.978" y1="58.914" y2="58.914" gradientUnits="userSpaceOnUse"><stop style="stop-color:#fff" id="stop4411" offset="0"/></linearGradient><linearGradient id="linearGradient4434" x1="2.624" x2="90.978" y1="58.914" y2="58.914" gradientUnits="userSpaceOnUse" xlink:href="#SVGID_2_"/></defs><g id="g4438"><path style="opacity:.25;fill-rule:evenodd" id="path4404" d="M 36.043,64.812 L 36.043,8.574 C 36.043,7.337 37.129,6.249 38.368,6.249 L 63.62,6.249 C 64.856,6.249 65.946,7.337 65.946,8.574 L 65.946,64.812 L 92.092,64.812 C 94.583,64.812 95.484,66.802 93.838,68.673 L 52.242,116.013 C 51.277,117.112 49.711,117.112 48.746,116.013 L 7.151,68.674 C 5.506,66.803 6.406,64.813 8.897,64.813 L 36.043,64.813 L 36.043,64.812 z" clip-rule="evenodd"/><path style="fill:url(#linearGradient4434);fill-rule:evenodd;stroke:#000" id="path4413" d="M 32.349,62.183 L 32.349,5.944 C 32.349,4.707 33.435,3.619 34.673,3.619 L 59.925,3.619 C 61.161,3.619 62.251,4.707 62.251,5.944 L 62.251,62.182 L 88.397,62.182 C 90.889,62.182 91.79,64.172 90.143,66.043 L 48.547,113.383 C 47.582,114.482 46.016,114.482 45.051,113.383 L 3.457,66.044 C 1.812,64.173 2.711,62.183 5.203,62.183 L 32.349,62.183 z" clip-rule="evenodd"/></g></svg>