<svg xmlns="http://www.w3.org/2000/svg" xmlns:svg="http://www.w3.org/2000/svg" xmlns:xlink="http://www.w3.org/1999/xlink" id="Layer_1" width="128.846" height="122.544" x="0" y="0" enable-background="new 0 0 128.846 122.544" version="1.0" viewBox="0 0 128.846 122.544" xml:space="preserve"><metadata id="metadata8407"/><defs id="defs8405"><linearGradient id="linearGradient8932" x1="2.438" x2="123.347" y1="60.638" y2="60.638" gradientUnits="userSpaceOnUse" xlink:href="#SVGID_1_"/><linearGradient id="linearGradient8934" x1="2.438" x2="123.347" y1="60.638" y2="60.638" gradientUnits="userSpaceOnUse" xlink:href="#SVGID_2_"/><linearGradient id="SVGID_1_" x1="2.438" x2="123.347" y1="60.638" y2="60.638" gradientUnits="userSpaceOnUse"><stop style="stop-color:#ff897a" id="stop8391" offset="0"/><stop style="stop-color:#ff3400" id="stop8393" offset="1"/></linearGradient><linearGradient id="SVGID_2_" x1="2.438" x2="123.347" y1="60.638" y2="60.638" gradientUnits="userSpaceOnUse"><stop style="stop-color:#ff897a" id="stop8398" offset="0"/><stop style="stop-color:#ff3400" id="stop8400" offset="1"/></linearGradient><linearGradient id="linearGradient8943" x1="2.438" x2="123.347" y1="60.638" y2="60.638" gradientUnits="userSpaceOnUse" xlink:href="#SVGID_2_"/><linearGradient id="linearGradient8946" x1="2.438" x2="123.347" y1="60.638" y2="60.638" gradientUnits="userSpaceOnUse" xlink:href="#SVGID_1_"/></defs><g id="g8950"><path style="opacity:.25;fill-rule:evenodd" id="path8384" d="M 66.588,97.681 L 36.828,119.302 C 31.108,123.457 25.637,119.483 27.819,112.756 L 39.187,77.774 L 9.43,56.153 C 3.71,51.996 5.799,45.565 12.87,45.563 L 49.653,45.562 L 61.02,10.582 C 63.205,3.855 69.967,3.855 72.154,10.582 L 83.522,45.562 L 120.303,45.563 C 127.374,45.565 129.465,51.996 123.744,56.153 L 93.989,77.774 L 105.352,112.756 C 107.539,119.483 102.066,123.457 96.345,119.302 L 66.588,97.681 z" clip-rule="evenodd"/><path style="fill:#fff;fill-rule:evenodd;stroke:#000;fill-opacity:1;stroke-opacity:1" id="path8395" d="M 62.894,95.051 L 33.134,116.672 C 27.413,120.827 21.943,116.853 24.124,110.126 L 35.493,75.144 L 5.736,53.523 C 0.015,49.366 2.105,42.935 9.175,42.933 L 45.958,42.932 L 57.325,7.952 C 59.511,1.225 66.272,1.225 68.46,7.952 L 79.827,42.932 L 116.608,42.933 C 123.68,42.935 125.77,49.366 120.049,53.523 L 90.294,75.144 L 101.657,110.126 C 103.843,116.853 98.37,120.827 92.649,116.672 L 62.894,95.051 z" clip-rule="evenodd"/></g></svg>