<svg xmlns="http://www.w3.org/2000/svg" xmlns:svg="http://www.w3.org/2000/svg" xmlns:xlink="http://www.w3.org/1999/xlink" id="Layer_1" width="153.157" height="137.618" x="0" y="0" enable-background="new 0 0 153.157 137.618" version="1.0" viewBox="0 0 153.157 137.618" xml:space="preserve"><metadata id="metadata4802"/><defs id="defs4800"><linearGradient id="linearGradient4813" x1="3.03" x2="147.068" y1="68.175" y2="68.175" gradientUnits="userSpaceOnUse" xlink:href="#SVGID_2_"/><linearGradient id="SVGID_2_" x1="3.03" x2="147.068" y1="68.175" y2="68.175" gradientUnits="userSpaceOnUse"><stop style="stop-color:#fff" id="stop4795" offset="0"/></linearGradient><linearGradient id="linearGradient4818" x1="3.03" x2="147.068" y1="68.175" y2="68.175" gradientUnits="userSpaceOnUse" xlink:href="#SVGID_2_"/></defs><g id="g4822"><path style="opacity:.25;fill-rule:evenodd" id="path4788" d="M 6.725,13.982 C 6.725,9.142 10.647,5.22 15.485,5.22 L 142.002,5.22 C 146.84,5.22 150.763,9.142 150.763,13.982 L 150.763,96.928 C 150.763,101.768 146.84,105.692 142.002,105.692 L 106.732,105.692 L 86.625,136.387 L 86.625,105.692 L 15.485,105.692 C 10.647,105.692 6.725,101.768 6.725,96.928 L 6.725,13.982 z" clip-rule="evenodd"/><path style="fill:url(#linearGradient4818);fill-rule:evenodd;stroke:#000" id="path4797" d="M 3.03,11.353 C 3.03,6.513 6.952,2.591 11.791,2.591 L 138.307,2.591 C 143.146,2.591 147.069,6.513 147.069,11.353 L 147.069,94.3 C 147.069,99.138 143.146,103.062 138.307,103.062 L 103.038,103.062 L 82.93,133.759 L 82.93,103.062 L 11.791,103.062 C 6.952,103.062 3.03,99.138 3.03,94.3 L 3.03,11.353 L 3.03,11.353 z" clip-rule="evenodd"/></g></svg>