<svg xmlns="http://www.w3.org/2000/svg" xmlns:svg="http://www.w3.org/2000/svg" xmlns:xlink="http://www.w3.org/1999/xlink" id="Layer_1" width="153.157" height="137.618" x="0" y="0" enable-background="new 0 0 153.157 137.618" version="1.0" viewBox="0 0 153.157 137.618" xml:space="preserve"><metadata id="metadata2583"/><defs id="defs2581"><linearGradient id="linearGradient3395" x1="78.97" x2="88.947" y1="128.844" y2="128.844" gradientUnits="userSpaceOnUse" xlink:href="#SVGID_1_"/><linearGradient id="linearGradient3397" x1="78.97" x2="88.947" y1="128.844" y2="128.844" gradientUnits="userSpaceOnUse" xlink:href="#SVGID_2_"/><linearGradient id="linearGradient3399" x1="82.857" x2="98.32" y1="113.605" y2="113.605" gradientUnits="userSpaceOnUse" xlink:href="#SVGID_3_"/><linearGradient id="linearGradient3401" x1="82.857" x2="98.32" y1="113.605" y2="113.605" gradientUnits="userSpaceOnUse" xlink:href="#SVGID_4_"/><linearGradient id="linearGradient3403" x1="3.03" x2="147.066" y1="52.752" y2="52.752" gradientUnits="userSpaceOnUse" xlink:href="#SVGID_5_"/><linearGradient id="linearGradient3405" x1="3.03" x2="147.066" y1="52.752" y2="52.752" gradientUnits="userSpaceOnUse" xlink:href="#SVGID_6_"/><linearGradient id="linearGradient3449" x1="3.03" x2="147.066" y1="52.752" y2="52.752" gradientUnits="userSpaceOnUse" xlink:href="#SVGID_5_"/><linearGradient id="linearGradient3451" x1="3.03" x2="147.066" y1="52.752" y2="52.752" gradientUnits="userSpaceOnUse" xlink:href="#SVGID_6_"/><linearGradient id="SVGID_5_" x1="3.03" x2="147.066" y1="52.752" y2="52.752" gradientUnits="userSpaceOnUse"><stop id="stop2567" offset="0" style="stop-color:#ff897a"/><stop id="stop2569" offset="1" style="stop-color:#ff3400"/></linearGradient><linearGradient id="SVGID_6_" x1="3.03" x2="147.066" y1="52.752" y2="52.752" gradientUnits="userSpaceOnUse"><stop id="stop2574" offset="0" style="stop-color:#ff897a"/><stop id="stop2576" offset="1" style="stop-color:#ff3400"/></linearGradient><linearGradient id="linearGradient3460" x1="3.03" x2="147.066" y1="52.752" y2="52.752" gradientUnits="userSpaceOnUse" xlink:href="#SVGID_6_"/><linearGradient id="linearGradient3463" x1="3.03" x2="147.066" y1="52.752" y2="52.752" gradientUnits="userSpaceOnUse" xlink:href="#SVGID_5_"/><linearGradient id="linearGradient3465" x1="82.857" x2="98.32" y1="113.605" y2="113.605" gradientUnits="userSpaceOnUse" xlink:href="#SVGID_3_"/><linearGradient id="linearGradient3467" x1="82.857" x2="98.32" y1="113.605" y2="113.605" gradientUnits="userSpaceOnUse" xlink:href="#SVGID_4_"/><linearGradient id="SVGID_3_" x1="82.857" x2="98.32" y1="113.605" y2="113.605" gradientUnits="userSpaceOnUse"><stop id="stop2551" offset="0" style="stop-color:#ff897a"/><stop id="stop2553" offset="1" style="stop-color:#ff3400"/></linearGradient><linearGradient id="SVGID_4_" x1="82.857" x2="98.32" y1="113.605" y2="113.605" gradientUnits="userSpaceOnUse"><stop id="stop2558" offset="0" style="stop-color:#ff897a"/><stop id="stop2560" offset="1" style="stop-color:#ff3400"/></linearGradient><linearGradient id="linearGradient3476" x1="82.857" x2="98.32" y1="113.605" y2="113.605" gradientUnits="userSpaceOnUse" xlink:href="#SVGID_4_"/><linearGradient id="linearGradient3481" x1="78.97" x2="88.947" y1="128.844" y2="128.844" gradientUnits="userSpaceOnUse" xlink:href="#SVGID_1_"/><linearGradient id="linearGradient3483" x1="78.97" x2="88.947" y1="128.844" y2="128.844" gradientUnits="userSpaceOnUse" xlink:href="#SVGID_2_"/><linearGradient id="SVGID_1_" x1="78.97" x2="88.947" y1="128.844" y2="128.844" gradientUnits="userSpaceOnUse"><stop id="stop2535" offset="0" style="stop-color:#ff897a"/><stop id="stop2537" offset="1" style="stop-color:#ff3400"/></linearGradient><linearGradient id="SVGID_2_" x1="78.97" x2="88.947" y1="128.844" y2="128.844" gradientUnits="userSpaceOnUse"><stop id="stop2542" offset="0" style="stop-color:#ff897a"/><stop id="stop2544" offset="1" style="stop-color:#ff3400"/></linearGradient></defs><g id="g3415"><path id="path2514" d="M 82.666,131.472 C 82.666,128.718 84.898,126.488 87.654,126.488 C 90.408,126.488 92.642,128.718 92.642,131.472 C 92.642,134.228 90.408,136.462 87.654,136.462 C 84.898,136.462 82.666,134.228 82.666,131.472 z" clip-rule="evenodd" style="opacity:.25;fill-rule:evenodd"/><circle id="circle2520" cx="94.284" cy="116.233" r="7.731" clip-rule="evenodd" style="opacity:.25;fill-rule:evenodd"/><path id="path2526" d="M 6.725,13.909 C 6.725,9.069 10.647,5.147 15.486,5.147 L 142.002,5.147 C 146.84,5.147 150.762,9.069 150.762,13.909 L 150.762,96.855 C 150.762,101.695 146.84,105.619 142.002,105.619 L 15.486,105.619 C 10.647,105.619 6.725,101.695 6.725,96.855 L 6.725,13.909 L 6.725,13.909 z" clip-rule="evenodd" style="opacity:.25;fill-rule:evenodd"/><circle id="circle2539" cx="83.958" cy="128.843" r="4.988" clip-rule="evenodd" style="fill:#fff;fill-rule:evenodd;stroke:#000;fill-opacity:1;stroke-opacity:1"/><path id="path2555" d="M 82.857,113.603 C 82.857,109.335 86.318,105.873 90.587,105.873 C 94.858,105.873 98.319,109.336 98.319,113.603 C 98.319,117.876 94.858,121.337 90.587,121.337 C 86.318,121.337 82.857,117.876 82.857,113.603 z" clip-rule="evenodd" style="fill:#fff;fill-rule:evenodd;stroke:#000;fill-opacity:1;stroke-opacity:1"/><path id="path2571" d="M 3.03,11.279 C 3.03,6.439 6.952,2.517 11.791,2.517 L 138.306,2.517 C 143.146,2.517 147.066,6.439 147.066,11.279 L 147.066,94.226 C 147.066,99.064 143.146,102.988 138.306,102.988 L 11.791,102.988 C 6.952,102.988 3.03,99.064 3.03,94.226 L 3.03,11.279 L 3.03,11.279 z" clip-rule="evenodd" style="fill:#fff;fill-rule:evenodd;stroke:#000;fill-opacity:1;stroke-opacity:1"/></g></svg>