<svg xmlns="http://www.w3.org/2000/svg" xmlns:svg="http://www.w3.org/2000/svg" xmlns:xlink="http://www.w3.org/1999/xlink" id="Layer_1" width="128.846" height="122.544" x="0" y="0" enable-background="new 0 0 128.846 122.544" version="1.0" viewBox="0 0 128.846 122.544" xml:space="preserve"><metadata id="metadata7779"/><defs id="defs7777"><linearGradient id="linearGradient8304" x1="2.844" x2="122.944" y1="60.638" y2="60.638" gradientUnits="userSpaceOnUse" xlink:href="#SVGID_1_"/><linearGradient id="linearGradient8306" x1="2.844" x2="122.944" y1="60.638" y2="60.638" gradientUnits="userSpaceOnUse" xlink:href="#SVGID_2_"/><linearGradient id="SVGID_1_" x1="2.844" x2="122.944" y1="60.638" y2="60.638" gradientUnits="userSpaceOnUse"><stop style="stop-color:#ff897a" id="stop7763" offset="0"/><stop style="stop-color:#ff3400" id="stop7765" offset="1"/></linearGradient><linearGradient id="SVGID_2_" x1="2.844" x2="122.944" y1="60.638" y2="60.638" gradientUnits="userSpaceOnUse"><stop style="stop-color:#ff897a" id="stop7770" offset="0"/><stop style="stop-color:#ff3400" id="stop7772" offset="1"/></linearGradient></defs><g id="g8318"><polygon style="opacity:.25;fill-rule:evenodd" id="polygon7756" points="103.702 120.378 66.588 93.416 29.475 120.378 43.65 76.75 6.538 49.786 52.411 49.784 66.588 6.157 80.766 49.784 126.637 49.786 89.526 76.75 103.702 120.378" clip-rule="evenodd"/><polygon style="fill:#fff;fill-rule:evenodd;stroke:#000;stroke-opacity:1;fill-opacity:1" id="polygon7767" points="100.006 117.749 62.895 90.786 25.779 117.749 39.955 74.121 2.844 47.156 48.717 47.154 62.895 3.527 77.071 47.154 122.944 47.156 85.831 74.121 100.006 117.749" clip-rule="evenodd"/></g></svg>