<svg xmlns="http://www.w3.org/2000/svg" xmlns:svg="http://www.w3.org/2000/svg" xmlns:xlink="http://www.w3.org/1999/xlink" id="Layer_1" width="96.661" height="119.096" x="0" y="0" enable-background="new 0 0 96.661 119.096" version="1.0" viewBox="0 0 96.661 119.096" xml:space="preserve"><metadata id="metadata4711"/><defs id="defs4709"><linearGradient id="linearGradient4722" x1="2.623" x2="90.978" y1="58.914" y2="58.914" gradientUnits="userSpaceOnUse" xlink:href="#SVGID_2_"/><linearGradient id="SVGID_2_" x1="2.623" x2="90.978" y1="58.914" y2="58.914" gradientUnits="userSpaceOnUse"><stop style="stop-color:#fff" id="stop4704" offset="0"/></linearGradient><linearGradient id="linearGradient4727" x1="2.623" x2="90.978" y1="58.914" y2="58.914" gradientUnits="userSpaceOnUse" xlink:href="#SVGID_2_"/></defs><g id="g4731"><path style="opacity:.25;fill-rule:evenodd" id="path4697" d="M 64.949,58.272 L 64.949,114.512 C 64.949,115.748 63.86,116.838 62.623,116.838 L 37.371,116.838 C 36.133,116.838 35.045,115.748 35.045,114.512 L 35.045,58.272 L 8.898,58.272 C 6.407,58.272 5.505,56.283 7.152,54.413 L 48.749,7.072 C 49.713,5.973 51.278,5.973 52.242,7.072 L 93.84,54.413 C 95.484,56.283 94.585,58.272 92.092,58.272 L 64.949,58.272 z" clip-rule="evenodd"/><path style="fill:url(#linearGradient4727);fill-rule:evenodd;stroke:#000" id="path4706" d="M 61.253,55.643 L 61.253,111.883 C 61.253,113.119 60.165,114.209 58.927,114.209 L 33.675,114.209 C 32.437,114.209 31.349,113.119 31.349,111.883 L 31.349,55.643 L 5.203,55.643 C 2.713,55.643 1.81,53.654 3.457,51.784 L 45.054,4.442 C 46.017,3.343 47.583,3.343 48.546,4.442 L 90.146,51.783 C 91.789,53.653 90.89,55.642 88.398,55.642 L 61.253,55.642 L 61.253,55.643 z" clip-rule="evenodd"/></g></svg>