<svg xmlns="http://www.w3.org/2000/svg" xmlns:svg="http://www.w3.org/2000/svg" xmlns:xlink="http://www.w3.org/1999/xlink" id="Layer_1" width="116.314" height="138.089" x="0" y="0" enable-background="new 0 0 116.314 138.089" version="1.0" viewBox="0 0 116.314 138.089" xml:space="preserve"><metadata id="metadata2495"/><defs id="defs2493"><linearGradient id="linearGradient3283" x1="7.488" x2="105.456" y1="83.585" y2="83.585" gradientUnits="userSpaceOnUse" xlink:href="#SVGID_2_"/><linearGradient id="SVGID_2_" x1="7.488" x2="105.456" y1="83.585" y2="83.585" gradientUnits="userSpaceOnUse"><stop style="stop-color:#ff897a" id="stop2486" offset="0"/><stop style="stop-color:#ff3400" id="stop2488" offset="1"/></linearGradient><linearGradient id="linearGradient3291" x1="7.573" x2="105.372" y1="24.264" y2="24.264" gradientUnits="userSpaceOnUse" xlink:href="#SVGID_1_"/><linearGradient id="SVGID_1_" x1="7.573" x2="105.372" y1="24.264" y2="24.264" gradientUnits="userSpaceOnUse"><stop style="stop-color:#ff897a" id="stop2477" offset="0"/><stop style="stop-color:#ff3400" id="stop2479" offset="1"/></linearGradient></defs><g id="g4102"><ellipse style="opacity:.25;fill-rule:evenodd" id="ellipse2468" cx="60.167" cy="26.895" clip-rule="evenodd" rx="48.899" ry="18.582"/><path style="opacity:.25;fill-rule:evenodd" id="path2472" d="M 109.151,37.791 L 109.151,115.446 L 108.982,116.058 C 108.982,126.32 87.09,134.639 60.083,134.639 C 33.076,134.639 11.185,126.32 11.185,116.058 C 11.185,115.852 11.179,115.649 11.197,115.446 L 11.197,37.939 C 19.812,44.914 38.464,49.744 60.084,49.744 C 81.855,49.744 100.616,44.847 109.151,37.791 z" clip-rule="evenodd"/><ellipse style="fill:#fff;fill-rule:evenodd;stroke:#000;fill-opacity:1;stroke-opacity:1" id="ellipse2481" cx="56.473" cy="24.265" clip-rule="evenodd" rx="48.899" ry="18.582"/><path style="fill:#fff;fill-rule:evenodd;stroke:#000;fill-opacity:1;stroke-opacity:1" id="path2490" d="M 105.456,35.161 L 105.456,112.815 L 105.288,113.428 C 105.288,123.69 83.395,132.009 56.388,132.009 C 29.382,132.009 7.49,123.69 7.49,113.428 C 7.49,113.223 7.484,113.019 7.502,112.815 L 7.502,35.31 C 16.117,42.285 34.77,47.115 56.389,47.115 C 78.161,47.114 96.921,42.217 105.456,35.161 z" clip-rule="evenodd"/></g></svg>