<svg xmlns="http://www.w3.org/2000/svg" xmlns:svg="http://www.w3.org/2000/svg" xmlns:xlink="http://www.w3.org/1999/xlink" id="Layer_1" width="128.463" height="121.082" x="0" y="0" enable-background="new 0 0 128.463 121.082" version="1.0" viewBox="0 0 128.463 121.082" xml:space="preserve"><metadata id="metadata3371"/><defs id="defs3369"><linearGradient id="linearGradient3901" x1="3.115" x2="121.138" y1="59.3" y2="59.3" gradientUnits="userSpaceOnUse" xlink:href="#SVGID_1_"/><linearGradient id="linearGradient3903" x1="3.115" x2="121.138" y1="59.3" y2="59.3" gradientUnits="userSpaceOnUse" xlink:href="#SVGID_2_"/><linearGradient id="SVGID_1_" x1="3.115" x2="121.138" y1="59.3" y2="59.3" gradientUnits="userSpaceOnUse"><stop style="stop-color:#ff897a" id="stop3355" offset="0"/><stop style="stop-color:#ff3400" id="stop3357" offset="1"/></linearGradient><linearGradient id="SVGID_2_" x1="3.115" x2="121.138" y1="59.3" y2="59.3" gradientUnits="userSpaceOnUse"><stop style="stop-color:#ff897a" id="stop3362" offset="0"/><stop style="stop-color:#ff3400" id="stop3364" offset="1"/></linearGradient></defs><g id="g3915"><polygon style="opacity:.25;fill-rule:evenodd" id="polygon3348" points="102.293 118.053 65.822 118.055 29.35 118.053 18.078 83.368 6.81 48.68 36.313 27.242 65.822 5.806 124.833 48.68 113.565 83.368 102.293 118.053" clip-rule="evenodd"/><polygon style="fill:#fff;fill-rule:evenodd;stroke:#000;fill-opacity:1;stroke-opacity:1" id="polygon3359" points="98.599 115.423 62.126 115.424 25.656 115.423 14.382 80.738 3.115 46.05 32.619 24.612 62.126 3.176 121.138 46.05 109.871 80.738 98.599 115.423" clip-rule="evenodd"/></g></svg>