<svg xmlns="http://www.w3.org/2000/svg" xmlns:svg="http://www.w3.org/2000/svg" xmlns:xlink="http://www.w3.org/1999/xlink" id="Layer_1" width="119.268" height="96.873" x="0" y="0" enable-background="new 0 0 119.268 96.873" version="1.0" viewBox="0 0 119.268 96.873" xml:space="preserve"><metadata id="metadata4600"/><defs id="defs4598"><linearGradient id="linearGradient4611" x1="2.81" x2="113.398" y1="47.802" y2="47.802" gradientUnits="userSpaceOnUse" xlink:href="#SVGID_2_"/><linearGradient id="SVGID_2_" x1="2.81" x2="113.398" y1="47.802" y2="47.802" gradientUnits="userSpaceOnUse"><stop style="stop-color:#fff" id="stop4593" offset="0"/></linearGradient><linearGradient id="linearGradient4616" x1="2.81" x2="113.398" y1="47.802" y2="47.802" gradientUnits="userSpaceOnUse" xlink:href="#SVGID_2_"/></defs><g id="g4620"><path style="opacity:.25;fill-rule:evenodd" id="path4586" d="M 65.069,64.885 L 8.831,64.885 C 7.593,64.885 6.505,63.797 6.505,62.559 L 6.505,37.307 C 6.505,36.07 7.593,34.982 8.831,34.982 L 65.069,34.982 L 65.069,8.834 C 65.069,6.341 67.057,5.443 68.93,7.086 L 116.27,48.685 C 117.368,49.65 117.368,51.214 116.27,52.179 L 68.93,93.776 C 67.057,95.422 65.069,94.521 65.069,92.031 L 65.069,64.885 z" clip-rule="evenodd"/><path style="fill:url(#linearGradient4616);fill-rule:evenodd;stroke:#000" id="path4595" d="M 61.375,62.255 L 5.136,62.255 C 3.898,62.255 2.81,61.167 2.81,59.929 L 2.81,34.677 C 2.81,33.44 3.898,32.352 5.136,32.352 L 61.375,32.352 L 61.375,6.204 C 61.375,3.711 63.363,2.813 65.235,4.456 L 112.575,46.055 C 113.673,47.02 113.673,48.584 112.575,49.549 L 65.235,91.147 C 63.363,92.793 61.375,91.892 61.375,89.402 L 61.375,62.255 z" clip-rule="evenodd"/></g></svg>