<svg xmlns="http://www.w3.org/2000/svg" xmlns:svg="http://www.w3.org/2000/svg" xmlns:xlink="http://www.w3.org/1999/xlink" id="Layer_1" width="153.157" height="137.618" x="0" y="0" enable-background="new 0 0 153.157 137.618" version="1.0" viewBox="0 0 153.157 137.618" xml:space="preserve"><metadata id="metadata4295"/><defs id="defs4293"><linearGradient id="linearGradient4328" x1="6.24" x2="149.01" y1="68.174" y2="68.174" gradientUnits="userSpaceOnUse" xlink:href="#SVGID_2_"/><linearGradient id="linearGradient4338" x1="6.24" x2="149.01" y1="68.174" y2="68.174" gradientUnits="userSpaceOnUse" xlink:href="#SVGID_2_"/><linearGradient id="SVGID_2_" x1="6.24" x2="149.01" y1="68.174" y2="68.174" gradientUnits="userSpaceOnUse"><stop id="stop4288" offset="0" style="stop-color:#fff"/></linearGradient><linearGradient id="linearGradient4343" x1="6.24" x2="149.01" y1="68.174" y2="68.174" gradientUnits="userSpaceOnUse" xlink:href="#SVGID_2_"/></defs><g id="g4347"><path id="path4281" d="M 153.432,96.928 C 153.432,101.768 149.51,105.692 144.672,105.692 L 73.532,105.692 L 73.532,136.387 L 53.426,105.692 L 18.155,105.692 C 13.317,105.692 9.394,101.768 9.394,96.928 L 9.394,13.982 C 9.394,9.142 13.317,5.22 18.155,5.22 L 144.673,5.22 C 149.511,5.22 153.433,9.142 153.433,13.982 L 153.433,96.928 L 153.432,96.928 z" style="opacity:.25"/><path id="path4290" d="M 150.127,94.299 C 150.127,99.138 146.205,103.062 141.365,103.062 L 70.227,103.062 L 70.227,133.758 L 50.12,103.062 L 14.85,103.062 C 10.011,103.062 6.088,99.138 6.088,94.299 L 6.088,11.353 C 6.088,6.513 10.011,2.591 14.85,2.591 L 141.366,2.591 C 146.206,2.591 150.128,6.513 150.128,11.353 L 150.128,94.299 L 150.127,94.299 z" style="fill:url(#linearGradient4343);stroke:#000"/></g></svg>