<svg xmlns="http://www.w3.org/2000/svg" xmlns:svg="http://www.w3.org/2000/svg" xmlns:xlink="http://www.w3.org/1999/xlink" id="Layer_1" width="141.28" height="125.158" x="0" y="0" enable-background="new 0 0 141.28 125.158" version="1.0" viewBox="0 0 141.28 125.158" xml:space="preserve"><metadata id="metadata10994"/><defs id="defs10992"><linearGradient id="linearGradient11519" x1="2.807" x2="134.262" y1="61.339" y2="61.339" gradientUnits="userSpaceOnUse" xlink:href="#SVGID_1_"/><linearGradient id="linearGradient11521" x1="2.807" x2="134.262" y1="61.339" y2="61.339" gradientUnits="userSpaceOnUse" xlink:href="#SVGID_2_"/><linearGradient id="SVGID_1_" x1="2.807" x2="134.262" y1="61.339" y2="61.339" gradientUnits="userSpaceOnUse"><stop style="stop-color:#ff897a" id="stop10978" offset="0"/><stop style="stop-color:#ff3400" id="stop10980" offset="1"/></linearGradient><linearGradient id="SVGID_2_" x1="2.807" x2="134.262" y1="61.339" y2="61.339" gradientUnits="userSpaceOnUse"><stop style="stop-color:#ff897a" id="stop10985" offset="0"/><stop style="stop-color:#ff3400" id="stop10987" offset="1"/></linearGradient><linearGradient id="linearGradient11530" x1="2.807" x2="134.262" y1="61.339" y2="61.339" gradientUnits="userSpaceOnUse" xlink:href="#SVGID_2_"/><linearGradient id="linearGradient11533" x1="2.807" x2="134.262" y1="61.339" y2="61.339" gradientUnits="userSpaceOnUse" xlink:href="#SVGID_1_"/></defs><g id="g11537"><path style="opacity:.25;fill-rule:evenodd" id="path10971" d="M 72.229,121.835 L 13.992,121.834 C 7.42,121.833 4.591,116.935 7.877,111.242 L 36.995,60.805 L 66.115,10.37 C 69.401,4.678 75.059,4.678 78.345,10.37 L 107.465,60.805 L 136.582,111.242 C 139.869,116.934 137.039,121.833 130.468,121.834 L 72.229,121.835 z" clip-rule="evenodd"/><path style="fill:#fff;fill-rule:evenodd;stroke:#000;stroke-opacity:1;fill-opacity:1" id="path10982" d="M 68.535,119.206 L 10.297,119.205 C 3.725,119.204 0.896,114.306 4.182,108.613 L 33.3,58.176 L 62.42,7.742 C 65.705,2.05 71.363,2.05 74.65,7.742 L 103.769,58.177 L 132.887,108.614 C 136.173,114.306 133.344,119.205 126.773,119.206 L 68.535,119.206 z" clip-rule="evenodd"/></g></svg>