<svg xmlns="http://www.w3.org/2000/svg" xmlns:svg="http://www.w3.org/2000/svg" xmlns:xlink="http://www.w3.org/1999/xlink" id="Layer_1" width="116.314" height="116.314" x="0" y="0" enable-background="new 0 0 116.314 116.314" version="1.0" viewBox="0 0 116.314 116.314" xml:space="preserve"><metadata id="metadata7161"/><defs id="defs7159"><linearGradient id="linearGradient7681" x1="2.192" x2="110.755" y1="56.842" y2="56.842" gradientUnits="userSpaceOnUse" xlink:href="#SVGID_1_"/><linearGradient id="SVGID_1_" x1="2.192" x2="110.755" y1="56.842" y2="56.842" gradientUnits="userSpaceOnUse"><stop style="stop-color:#ff897a" id="stop7152" offset="0"/><stop style="stop-color:#ff3400" id="stop7154" offset="1"/></linearGradient><linearGradient id="linearGradient7687" x1="2.192" x2="110.755" y1="56.842" y2="56.842" gradientUnits="userSpaceOnUse" xlink:href="#SVGID_1_"/></defs><g id="g7690"><path style="opacity:.25;fill-rule:evenodd" id="path7147" d="M 5.887,31.278 C 5.887,16.869 17.566,5.19 31.975,5.19 L 88.364,5.19 C 102.772,5.19 114.45,16.869 114.45,31.278 L 114.45,87.666 C 114.45,102.074 102.772,113.754 88.364,113.754 L 31.975,113.754 C 17.566,113.754 5.887,102.074 5.887,87.666 L 5.887,31.278 z" clip-rule="evenodd"/><path style="fill:#fff;fill-rule:evenodd;stroke:#000;stroke-opacity:1;fill-opacity:1" id="path7156" d="M 2.192,28.648 C 2.192,14.239 13.87,2.56 28.28,2.56 L 84.669,2.56 C 99.077,2.56 110.755,14.239 110.755,28.648 L 110.755,85.036 C 110.755,99.444 99.077,111.124 84.669,111.124 L 28.28,111.124 C 13.87,111.124 2.192,99.444 2.192,85.036 L 2.192,28.648 z" clip-rule="evenodd"/></g></svg>