<svg xmlns="http://www.w3.org/2000/svg" xmlns:svg="http://www.w3.org/2000/svg" xmlns:xlink="http://www.w3.org/1999/xlink" id="Layer_1" width="119.268" height="96.873" x="0" y="0" enable-background="new 0 0 119.268 96.873" version="1.0" viewBox="0 0 119.268 96.873" xml:space="preserve"><metadata id="metadata4509"/><defs id="defs4507"><linearGradient id="linearGradient4520" x1="2.81" x2="113.399" y1="47.802" y2="47.802" gradientUnits="userSpaceOnUse" xlink:href="#SVGID_2_"/><linearGradient id="SVGID_2_" x1="2.81" x2="113.399" y1="47.802" y2="47.802" gradientUnits="userSpaceOnUse"><stop style="stop-color:#fff" id="stop4502" offset="0"/></linearGradient><linearGradient id="linearGradient4525" x1="2.81" x2="113.399" y1="47.802" y2="47.802" gradientUnits="userSpaceOnUse" xlink:href="#SVGID_2_"/></defs><g id="g4529"><path style="opacity:.25;fill-rule:evenodd" id="path4495" d="M 58.528,35.98 L 114.769,35.98 C 116.005,35.98 117.093,37.066 117.093,38.305 L 117.093,63.558 C 117.093,64.793 116.005,65.883 114.769,65.883 L 58.528,65.883 L 58.528,92.03 C 58.528,94.52 56.54,95.421 54.668,93.775 L 7.328,52.179 C 6.231,51.216 6.231,49.65 7.328,48.685 L 54.668,7.086 C 56.54,5.443 58.528,6.341 58.528,8.834 L 58.528,35.98 L 58.528,35.98 z" clip-rule="evenodd"/><path style="fill:url(#linearGradient4525);fill-rule:evenodd;stroke:#000" id="path4504" d="M 54.833,33.351 L 111.074,33.351 C 112.311,33.351 113.399,34.437 113.399,35.676 L 113.399,60.929 C 113.399,62.164 112.311,63.254 111.074,63.254 L 54.833,63.254 L 54.833,89.401 C 54.833,91.891 52.845,92.792 50.974,91.146 L 3.633,49.549 C 2.536,48.586 2.536,47.02 3.633,46.055 L 50.974,4.456 C 52.845,2.813 54.833,3.711 54.833,6.204 L 54.833,33.351 z" clip-rule="evenodd"/></g></svg>