<svg xmlns="http://www.w3.org/2000/svg" xmlns:svg="http://www.w3.org/2000/svg" xmlns:xlink="http://www.w3.org/1999/xlink" id="Layer_1" width="157.533" height="112.898" x="0" y="0" enable-background="new 0 0 157.533 112.898" version="1.0" viewBox="0 0 157.533 112.898" xml:space="preserve"><metadata id="metadata5947"/><defs id="defs5945"><linearGradient id="linearGradient5963" x1="5.923" x2="148.426" y1="54.538" y2="54.538" gradientUnits="userSpaceOnUse" xlink:href="#SVGID_1_"/><linearGradient id="linearGradient5965" x1="5.923" x2="148.426" y1="54.538" y2="54.538" gradientUnits="userSpaceOnUse" xlink:href="#SVGID_2_"/><linearGradient id="SVGID_1_" x1="5.923" x2="148.426" y1="54.538" y2="54.538" gradientUnits="userSpaceOnUse"><stop style="stop-color:#ff897a" id="stop5931" offset="0"/><stop style="stop-color:#ff3400" id="stop5933" offset="1"/></linearGradient><linearGradient id="SVGID_2_" x1="5.923" x2="148.426" y1="54.538" y2="54.538" gradientUnits="userSpaceOnUse"><stop style="stop-color:#ff897a" id="stop5938" offset="0"/><stop style="stop-color:#ff3400" id="stop5940" offset="1"/></linearGradient><linearGradient id="linearGradient5974" x1="5.923" x2="148.426" y1="54.538" y2="54.538" gradientUnits="userSpaceOnUse" xlink:href="#SVGID_2_"/><linearGradient id="linearGradient5977" x1="5.923" x2="148.426" y1="54.538" y2="54.538" gradientUnits="userSpaceOnUse" xlink:href="#SVGID_1_"/></defs><g id="g6490"><path style="opacity:.25;fill-rule:evenodd" id="path5924" d="M 9.54,17.229 C 9.54,12.442 13.42,8.561 18.208,8.561 L 143.375,8.561 C 148.162,8.561 152.043,12.442 152.043,17.229 L 152.043,99.291 C 152.043,104.079 148.162,107.962 143.375,107.962 L 18.208,107.962 C 13.42,107.962 9.54,104.079 9.54,99.291 L 9.54,17.229 z" clip-rule="evenodd"/><path style="fill:#fff;fill-rule:evenodd;stroke:#000;fill-opacity:1;stroke-opacity:1" id="path5935" d="M 5.923,13.506 C 5.923,8.72 9.803,4.838 14.591,4.838 L 139.758,4.838 C 144.546,4.838 148.426,8.72 148.426,13.506 L 148.426,95.57 C 148.426,100.357 144.546,104.236 139.758,104.236 L 14.591,104.236 C 9.803,104.236 5.923,100.357 5.923,95.57 L 5.923,13.506 z" clip-rule="evenodd"/></g></svg>