<svg xmlns="http://www.w3.org/2000/svg" xmlns:svg="http://www.w3.org/2000/svg" id="Layer_1" width="137.659" height="119.541" x="0" y="0" enable-background="new 0 0 137.659 119.541" version="1.0" viewBox="0 0 137.659 119.541" xml:space="preserve"><metadata id="metadata2487"/><defs id="defs2485"><linearGradient id="SVGID_1_" x1="2.793" x2="130.656" y1="58.53" y2="58.53" gradientUnits="userSpaceOnUse"><stop style="stop-color:#ff897a" id="stop2471" offset="0"/><stop style="stop-color:#ff3400" id="stop2473" offset="1"/></linearGradient><linearGradient id="SVGID_2_" x1="2.793" x2="130.656" y1="58.53" y2="58.53" gradientUnits="userSpaceOnUse"><stop style="stop-color:#ff897a" id="stop2478" offset="0"/><stop style="stop-color:#ff3400" id="stop2480" offset="1"/></linearGradient></defs><g id="g3884"><polygon style="opacity:.25;fill-rule:evenodd" id="polygon2464" points="102.386 116.527 70.421 116.527 38.453 116.527 6.488 61.16 22.471 33.478 38.453 5.794 70.421 5.794 102.386 5.794 118.371 33.478 134.351 61.16 118.371 88.844 102.386 116.527" clip-rule="evenodd"/><polygon style="fill:#fff;fill-rule:evenodd;stroke:#000;fill-opacity:1;stroke-opacity:1" id="polygon2475" points="98.691 113.896 66.727 113.896 34.758 113.896 2.793 58.531 18.775 30.848 34.758 3.165 66.727 3.165 98.691 3.165 114.675 30.848 130.656 58.531 114.675 86.215 98.691 113.896" clip-rule="evenodd"/></g></svg>