<svg xmlns="http://www.w3.org/2000/svg" xmlns:svg="http://www.w3.org/2000/svg" xmlns:xlink="http://www.w3.org/1999/xlink" id="svg38508" width="42" height="42" version="1.1" viewBox="0 0 42 42"><defs id="defs38505"><radialGradient id="radialGradient39516-8-7" cx="160.256" cy="201.691" r="7.276" fx="160.256" fy="201.691" gradientTransform="matrix(2.8861847,0,0,2.8861847,-288.68041,-366.83395)" gradientUnits="userSpaceOnUse" xlink:href="#gBackgroundCircle"/><linearGradient id="gBackgroundCircle"><stop style="stop-color:#fff;stop-opacity:0" id="stop39510" offset="0"/><stop style="stop-color:#fff;stop-opacity:1" id="stop39512" offset="1"/></linearGradient><filter style="color-interpolation-filters:sRGB" id="filter40427-2" width="1.115" height="1.109" x="-.052" y="-.049"><feGaussianBlur id="feGaussianBlur40429-8" stdDeviation="2"/><feOffset id="feOffset876" dx="1" dy="1"/></filter><filter style="color-interpolation-filters:sRGB" id="filter12705-7-9" width="1.249" height="1.2" x="-.124" y="-.1"><feGaussianBlur id="feGaussianBlur12707-6-5" stdDeviation=".274"/></filter><linearGradient id="linearGradient6594-9-6" x1="106.144" x2="108.696" y1="128.428" y2="130.979" gradientTransform="matrix(1.1368939,0,0,1.1368939,54.866612,65.916201)" gradientUnits="userSpaceOnUse" xlink:href="#gBody"/><linearGradient id="gBody"><stop style="stop-color:#f9e100;stop-opacity:1" id="stop6588-6" offset="0"/><stop style="stop-color:#d45500;stop-opacity:1" id="stop6590-5" offset="1"/></linearGradient><linearGradient id="linearGradient41993" x1="107" x2="108.106" y1="129.486" y2="130.549" gradientTransform="matrix(1.1368939,0,0,1.1368939,54.870356,65.931062)" gradientUnits="userSpaceOnUse" xlink:href="#gShadowRight"/><linearGradient id="gShadowRight"><stop style="stop-color:#ff842e;stop-opacity:0" id="stop39217" offset="0"/><stop style="stop-color:#2f1700;stop-opacity:1" id="stop39219" offset="1"/></linearGradient><filter style="color-interpolation-filters:sRGB" id="filter40862-5-7" width="1.057" height="1.057" x="-.028" y="-.029"><feGaussianBlur id="feGaussianBlur40864-4-7" stdDeviation=".236"/></filter></defs><g id="layer2"><g id="g1095" transform="translate(-152.84749,-194.28221)"><circle style="display:inline;fill:url(#radialGradient39516-8-7);fill-opacity:1;stroke-width:.0457296;stroke-linecap:round;stroke-linejoin:round" id="path38960-7-4" cx="173.847" cy="215.282" r="21"/><path style="fill:#ffe052;fill-opacity:.870588;stroke:#ffc748;stroke-width:.165;stroke-linecap:round;stroke-linejoin:round;stroke-miterlimit:4;stroke-dasharray:none;stroke-opacity:1" id="path12742-7-5" d="m 110.87017,197.25878 c 0,0 5.49205,1.87968 13.01841,0.94625 7.78341,-0.96531 1.27524,-4.21562 0.61601,-5.16625 -0.2021,-0.29143 -0.0163,-0.7676 1.56232,-0.81787 1.81917,-0.12539 3.49264,0.0524 5.40549,0.23113 -2.86832,-1.74577 -5.56785,-1.84283 -6.10094,-1.88234 -0.51067,-0.0378 -3.94529,0.0714 -4.61725,1.56447 -0.73609,1.63558 1.49451,2.4753 1.49451,2.4753 0,0 3.43908,1.27993 -1.07486,1.98519 -3.77103,0.58919 -10.30369,0.66412 -10.30369,0.66412 z" transform="matrix(1.1368939,0,0,1.1368939,33.908955,5.4765612)"/><path id="path9155-3-9" d="m 164.78931,138.59518 c -1.53557,0.007 -3.28212,0.2589 -5.26563,0.81641 l -69.27344,70.07617 -6.45898,22.95898 c -0.002,-5.7e-4 -0.008,-0.002 -0.008,-0.002 l -0.94531,3.31836 c 0,0 0.46397,0.57152 2.9746,-1.25586 l 21.1543,-12.24219 15.47461,-16.27539 c 0.003,0.01 0.0234,0.0703 0.0234,0.0703 l 33.25586,-35.01172 c 0,0 -0.0108,-0.0443 -0.0117,-0.0488 l 19.56641,-20.57813 c -0.0557,-4.75304 -2.19426,-11.86343 -10.48633,-11.82617 z" transform="matrix(0.27319491,0,0,0.27319491,138.58986,164.13429)" style="mix-blend-mode:normal;fill:#131313;fill-opacity:.752151;stroke:none;stroke-width:.999999px;stroke-linecap:butt;stroke-linejoin:miter;stroke-opacity:1;filter:url(#filter40427-2)"/><path style="fill:#a7a7a7;fill-opacity:1;stroke:none;stroke-width:.300802px;stroke-linecap:butt;stroke-linejoin:miter;stroke-opacity:1" id="path9155-1" d="m 161.85916,221.88455 -2.14195,7.61498 0.23931,0.23931 6.93081,-4.01068 1.03468,-3.57876 -4.23915,-1.0256 z"/><path style="fill:#fff;fill-opacity:1;stroke:none;stroke-width:.264583px;stroke-linecap:butt;stroke-linejoin:miter;stroke-opacity:1;filter:url(#filter12705-7-9)" id="path12389-5-3" d="m 110.65967,197.04828 3.79766,-6.57048 1.4884,1.10567 -5.2861,5.46481 z" transform="matrix(1.1368939,0,0,1.1368939,33.908955,5.4765612)"/><path style="fill:url(#linearGradient6594-9-6);fill-opacity:1;stroke:none;stroke-width:.300802px;stroke-linecap:butt;stroke-linejoin:miter;stroke-opacity:1" id="path55-2-5-4" d="m 161.85916,221.88455 20.97443,-21.21615 c 0.91973,-0.49586 2.11249,-0.72131 3.46537,0.19528 1.111,0.75271 1.26281,2.26924 1.27272,3.1165 l -20.68434,21.74798 c 0,0 -1.61964,-3.52934 -5.02812,-3.84361 z"/><path style="fill:url(#linearGradient41993);fill-opacity:1;stroke:none;stroke-width:.300802px;stroke-linecap:butt;stroke-linejoin:miter;stroke-opacity:1" id="path55-2-2-6" d="M 161.8629,221.89941 182.70057,200.82 c 3.14169,-2.66873 4.88753,0.86134 4.87111,3.16018 l -20.6806,21.76284 c 0,0 -1.61964,-3.52935 -5.02812,-3.84361 z"/><path style="fill:#000b05;fill-opacity:1;stroke:none;stroke-width:.300802px;stroke-linecap:butt;stroke-linejoin:miter;stroke-opacity:1" id="path7292-8" d="m 171.54914,220.85317 c 0,0 -0.22883,-0.67886 -0.42364,-0.97479 -0.23232,-0.35286 -0.86808,-0.92348 -0.86808,-0.92348 l 10.26035,-10.36929 c 0,0 0.51824,0.41229 0.6886,0.68859 0.19305,0.3131 0.34672,1.04756 0.34672,1.04756 z"/><path style="fill:#ffb800;fill-opacity:1;stroke:none;stroke-width:.300802px;stroke-linecap:butt;stroke-linejoin:miter;stroke-opacity:1" id="path38159-5-2" d="m 159.91378,228.79018 c 0,0 0.54698,0.14101 0.65809,0.58544 -0.79696,0.59186 -0.94227,0.41237 -0.94227,0.41237 z"/><path style="mix-blend-mode:normal;fill:#fff;fill-opacity:.922547;stroke:none;stroke-width:.264583px;stroke-linecap:butt;stroke-linejoin:miter;stroke-opacity:1;filter:url(#filter40862-5-7)" id="path40464-3-3" d="m 114.00627,190.92886 0.77298,0.46621 19.18483,-19.42538 -1.08253,-0.30071 z" transform="matrix(1.1368939,0,0,1.1368939,33.908955,5.4765612)"/></g></g><metadata id="metadata1252"/></svg>