<svg xmlns="http://www.w3.org/2000/svg" xmlns:svg="http://www.w3.org/2000/svg" xmlns:xlink="http://www.w3.org/1999/xlink" id="svg38508" width="42" height="42" version="1.1" viewBox="0 0 42 42"><defs id="defs38505"><linearGradient id="gradientBackgroundCircle"><stop style="stop-color:#fff;stop-opacity:0" id="stop39510" offset="0"/><stop style="stop-color:#fff;stop-opacity:1" id="stop39512" offset="1"/></linearGradient><radialGradient id="radialGradient39516-8-7" cx="160.256" cy="201.691" r="7.276" fx="160.256" fy="201.691" gradientTransform="matrix(0.76363638,0,0,0.76363638,36.02656,45.82022)" gradientUnits="userSpaceOnUse" xlink:href="#gradientBackgroundCircle"/><filter style="color-interpolation-filters:sRGB" id="filter1048" width="1.069" height="1.068" x="-.029" y="-.029"><feGaussianBlur id="feGaussianBlur1050" stdDeviation="1.119"/><feOffset id="feOffset876" dx="1" dy="1"/></filter><linearGradient id="linearGradient11809" x1="110.361" x2="117.926" y1="192.06" y2="192.06" gradientTransform="matrix(0.3077232,0,0,0.3077232,120.76812,143.13922)" gradientUnits="userSpaceOnUse" xlink:href="#gradientStylusHolder"/><linearGradient id="gradientStylusHolder"><stop style="stop-color:#a7a7a7;stop-opacity:1" id="stop9704" offset="0"/><stop style="stop-color:#212121;stop-opacity:1" id="stop9706" offset="1"/></linearGradient><filter style="color-interpolation-filters:sRGB" id="filter12705-7" width="1.249" height="1.2" x="-.124" y="-.1"><feGaussianBlur id="feGaussianBlur12707-6" stdDeviation=".274"/></filter><linearGradient id="linearGradient12481" x1="113.455" x2="118.71" y1="190.967" y2="190.967" gradientTransform="matrix(0.3077232,0,0,0.3077232,120.76812,143.13922)" gradientUnits="userSpaceOnUse" xlink:href="#gradientBody"/><linearGradient id="gradientBody"><stop style="stop-color:red;stop-opacity:1" id="stop6588" offset="0"/><stop style="stop-color:#2b0000;stop-opacity:1" id="stop6590" offset="1"/></linearGradient><linearGradient id="linearGradient8002" x1="115.951" x2="121.063" y1="174.197" y2="174.197" gradientTransform="matrix(0.22058068,0,0,0.22058068,225.38794,0.08238655)" gradientUnits="userSpaceOnUse" xlink:href="#gradientButtonAndPin"/><linearGradient id="gradientButtonAndPin"><stop style="stop-color:#fff;stop-opacity:1" id="stop6886" offset="0"/><stop style="stop-color:#767676;stop-opacity:1" id="stop6888" offset="1"/></linearGradient><linearGradient id="linearGradient6594-9" x1="106.144" x2="108.696" y1="128.428" y2="130.979" gradientTransform="matrix(0.3077232,0,0,0.3077232,126.44178,159.50234)" gradientUnits="userSpaceOnUse" xlink:href="#gradientBody"/><filter style="color-interpolation-filters:sRGB" id="filter40862-5" width="1.072" height="1.076" x="-.036" y="-.038"><feGaussianBlur id="feGaussianBlur40864-4" stdDeviation=".236"/></filter><linearGradient id="linearGradient6790" x1="215.252" x2="217.523" y1="34.827" y2="34.805" gradientTransform="matrix(0.30772323,0,0,0.30772323,186.63225,15.468073)" gradientUnits="userSpaceOnUse" xlink:href="#gradientButtonAndPin"/></defs><g id="layer1" transform="translate(-152.84748,-194.2822)"><g id="g1275" transform="matrix(3.7795275,0,0,3.7795275,-424.84378,-540.01273)"><circle style="display:inline;fill:url(#radialGradient39516-8-7);fill-opacity:1;stroke-width:.0120993;stroke-linecap:round;stroke-linejoin:round" id="path38960-7-4" cx="158.404" cy="199.838" r="5.556"/><path style="fill:#7a7a7a;fill-opacity:.866667;stroke:none;stroke-width:.165;stroke-linecap:round;stroke-linejoin:round;stroke-miterlimit:4;stroke-dasharray:none;stroke-opacity:1" id="path12742-7" d="m 110.08855,196.6511 c 0,0 5.72311,2.09044 13.2523,1.18014 3.20066,-0.38697 3.71249,-1.81938 2.71369,-2.80624 -1.18663,-1.17244 -3.23895,-2.33431 -3.33092,-2.95537 -0.24432,-1.64982 6.26522,-0.39134 7.96716,-0.22527 -2.86832,-1.74577 -5.56785,-1.84283 -6.10094,-1.88234 -0.51067,-0.0378 -3.47751,-0.24754 -4.14947,1.24553 -0.73609,1.63558 1.9623,2.90055 1.9623,2.90055 0,0 3.35403,1.59888 -1.15991,2.30414 -3.77103,0.58919 -11.15421,0.23886 -11.15421,0.23886 z" transform="matrix(0.34189008,0,0,0.30738626,117.00811,143.2046)"/><path id="path1011" d="m -25.039062,2.1191406 c -0.369462,-5.738e-4 -0.656163,0.096083 -0.839844,0.3007813 l -5.169922,5.7597656 c -0.0805,0.089709 -0.137721,0.1971749 -0.173828,0.3203125 -1.215346,-0.2757137 -2.344201,-0.1217399 -3.638672,0.5761719 l -57.369141,56.3828121 -0.955078,2.976563 c -10.707303,11.355449 -11.801823,20.604589 -11.703123,24.427734 l -1.03711,3.066407 c 0,0 0.43852,0.60109 3.07031,-1.132813 11.743344,-0.236 21.551721,-9.1771 25.111329,-12.871094 l 0.0039,-0.002 2.388672,-1.167969 56.371093,-59.539062 c -0.0072,-0.616662 -0.119796,-1.290586 -0.324219,-1.992188 0.128604,-0.04964 0.236596,-0.121324 0.322266,-0.216797 L -13.812507,13.248 c 0.904276,-1.007746 -1.05999,-4.2351957 -4.402344,-7.2343751 -2.663438,-2.3899711 -5.374792,-3.8922799 -6.824218,-3.8945313 z" transform="matrix(0.08141844,0,0,0.08141844,163.26923,195.84286)" style="mix-blend-mode:normal;fill:#333;fill-opacity:1;stroke:none;stroke-width:1.09112px;stroke-linecap:butt;stroke-linejoin:miter;stroke-opacity:1;filter:url(#filter1048)"/><path style="fill:url(#linearGradient11809);fill-opacity:1;stroke:none;stroke-width:.0888376px;stroke-linecap:butt;stroke-linejoin:miter;stroke-opacity:1" id="path9606" d="m 154.74447,203.55833 c 0,0 -0.22694,-0.98201 1.05103,-2.26009 1.27797,-1.27805 1.26115,1.08663 1.26115,1.08663 0,0 -1.03653,1.24925 -2.31218,1.17346 z"/><path style="fill:#fff;fill-opacity:1;stroke:none;stroke-width:.264583px;stroke-linecap:butt;stroke-linejoin:miter;stroke-opacity:1;filter:url(#filter12705-7)" id="path12389-5" d="m 109.86907,196.12316 3.79766,-6.57048 1.4884,1.10567 -5.2861,5.46481 z" transform="matrix(0.33413223,0,0,0.3133411,117.96516,142.11697)"/><path style="fill:#302300;fill-opacity:1;stroke:none;stroke-width:.0814186px;stroke-linecap:butt;stroke-linejoin:miter;stroke-opacity:1" id="path38159-5" d="m 154.73498,203.38735 c 0,0 0.146,0.0454 0.17015,0.16699 -0.2233,0.14945 -0.26019,0.099 -0.26019,0.099 z"/><path style="fill:url(#linearGradient12481);fill-opacity:1;stroke:none;stroke-width:.0814186px;stroke-linecap:butt;stroke-linejoin:miter;stroke-opacity:1" id="path12399" d="m 155.76005,201.17237 -0.0792,0.24657 c 0,0 0.66256,0.27659 1.25844,1.09421 0.50207,0.68885 0,0 0,0 l 0.19489,-0.0953 -0.0789,-0.99598 -0.9422,-0.23881 z"/><rect style="fill:url(#linearGradient8002);fill-opacity:1;stroke:none;stroke-width:.0363957;stroke-linecap:round;stroke-linejoin:round" id="rect7697" width="1.32" height="1.028" x="250.878" y="38.076" rx=".66" ry=".199" transform="rotate(41.902436)"/><path style="fill:url(#linearGradient6594-9);fill-opacity:1;stroke:none;stroke-width:.0814186px;stroke-linecap:butt;stroke-linejoin:miter;stroke-opacity:1" id="path55-2-5" d="m 155.76005,201.17237 4.67085,-4.59053 c 0.24894,-0.13422 0.42256,-0.0237 0.79178,0.21994 0.32682,0.21559 0.49851,0.5392 0.50119,0.76853 l -4.58955,4.84759 c -0.15837,-0.52073 -0.80391,-1.05701 -1.37427,-1.24553 z"/><path style="mix-blend-mode:normal;fill:#fff;fill-opacity:.922547;stroke:none;stroke-width:.264583px;stroke-linecap:butt;stroke-linejoin:miter;stroke-opacity:1;filter:url(#filter40862-5)" id="path40464-3" d="m 132.26583,204.41411 0.77298,0.46621 14.86468,-14.59556 -1.08253,-0.30071 z" transform="matrix(0.30772324,0,0,0.30772324,115.58223,138.46509)"/><rect style="fill:url(#linearGradient6790);fill-opacity:1;stroke:none;stroke-width:.0507743;stroke-linecap:round;stroke-linejoin:round" id="rect6666" width=".666" height="3.146" x="252.87" y="24.612" ry=".17" transform="rotate(45.079262)"/></g></g><metadata id="metadata1252"/></svg>