<svg xmlns="http://www.w3.org/2000/svg" xmlns:xlink="http://www.w3.org/1999/xlink" id="Layer_1" x="0" y="0" version="1.1" viewBox="3 3 42 42" xml:space="preserve" style="enable-background:new 0 0 48 48"><style type="text/css">.st0{opacity:.2}.st2{fill:url(#SVGID_1_)}.st4{display:none;fill:#fff100}.st5{stroke:#231f20;stroke-width:1.5}.st5,.st6,.st7{fill:none;stroke-linecap:round;stroke-miterlimit:10}.st6{display:none;stroke:#231f20;stroke-width:1.25}.st7{opacity:.19;stroke:#fff;enable-background:new}</style><path id="XMLID_00000019651251341721943210000005570257145846259618_" d="M37.495,29.225l-2.293,2.549l-3.743,4.168	c-0.01,0.01-0.02,0.02-0.029,0.03l-1.176,1.089c-0.01,0.01-0.02,0.02-0.029,0.02c-2.058,1.649-2.773,1.879-3.753,2.259	c-1.382,0.53-3.038,0.57-4.605,0.45c-2.43-0.18-4.615-1.199-6.291-2.759c-0.049-0.05-0.098-0.09-0.157-0.14	c-0.049-0.05-0.098-0.1-0.147-0.15c-0.823-0.8-1.519-1.729-2.058-2.779c-0.539-1.05-0.911-2.199-1.088-3.428	c-0.225-1.579-0.304-3.278,0.108-4.718c0.304-1.03,0.48-1.769,1.94-3.988c0.01-0.01,0.01-0.02,0.02-0.03l0.98-1.269	c0.01-0.01,0.02-0.02,0.029-0.03l3.841-4.138l2.303-2.479c0.186-0.2,0.48-0.2,0.676-0.02l2.117,2.029l1.548,1.489	c0.196,0.18,0.206,0.49,0.029,0.68l-1.244,1.399l-1.009,1.119l-3.635,4.038c-0.196,0.21-0.363,0.44-0.519,0.68	c-0.294,0.46-0.529,0.96-0.686,1.489c-0.216,0.75-0.284,1.549-0.167,2.369c0.059,0.4,0.157,0.79,0.294,1.159	c0.176,0.49,0.431,0.95,0.725,1.359c0.206,0.29,0.47,0.53,0.764,0.72c0.421,0.28,0.882,0.49,1.382,0.64	c0.372,0.11,0.754,0.18,1.146,0.21c0.813,0.06,1.587-0.06,2.312-0.34c0.51-0.2,0.98-0.47,1.411-0.8	c0.225-0.18,0.431-0.37,0.627-0.58l3.675-3.978l1.039-1.129l1.274-1.359c0.176-0.19,0.48-0.2,0.666-0.02l1.489,1.399l2.215,2.079	C37.662,28.716,37.671,29.025,37.495,29.225z" class="st0"/><g id="shaded"><g><radialGradient id="XMLID_00000044136170438578850000000017614749674683847299_" cx="198.146" cy="-260.174" r="11.823" gradientTransform="matrix(0.7639 0.6454 -0.7652 0.9058 -327.403 133.0501)" gradientUnits="userSpaceOnUse"><stop offset=".839" style="stop-color:#ec1c24"/><stop offset=".862" style="stop-color:#dd1c24"/><stop offset=".906" style="stop-color:#b61b26"/><stop offset=".913" style="stop-color:#af1b26"/><stop offset=".927" style="stop-color:#a01a22"/><stop offset=".953" style="stop-color:#891a1d"/><stop offset=".978" style="stop-color:#7c191a"/><stop offset="1" style="stop-color:#771919"/></radialGradient><path id="XMLID_00000041297147520953760440000004016014525183788421_" d="M36.02,27.7l-2.34,2.55l-3.82,4.17c-0.01,0.01-0.02,0.02-0.03,0.03l-1.2,1.09c-0.01,0.01-0.02,0.02-0.03,0.02 c-2.1,1.65-2.83,1.88-3.83,2.26c-1.41,0.53-3.1,0.57-4.7,0.45c-2.48-0.18-4.71-1.2-6.42-2.76c-0.05-0.05-0.1-0.09-0.16-0.14 c-0.05-0.05-0.1-0.1-0.15-0.15c-0.84-0.8-1.55-1.73-2.1-2.78c-0.55-1.05-0.93-2.2-1.11-3.43c-0.23-1.58-0.31-3.28,0.11-4.72 c0.31-1.03,0.49-1.77,1.98-3.99c0.01-0.01,0.01-0.02,0.02-0.03l1-1.27c0.01-0.01,0.02-0.02,0.03-0.03l3.92-4.14l2.35-2.48 c0.19-0.2,0.49-0.2,0.69-0.02l2.16,2.03l1.58,1.49c0.2,0.18,0.21,0.49,0.03,0.68l-1.27,1.4l-1.03,1.12l-3.71,4.04 c-0.2,0.21-0.37,0.44-0.53,0.68c-0.3,0.46-0.54,0.96-0.7,1.49c-0.22,0.75-0.29,1.55-0.17,2.37c0.06,0.4,0.16,0.79,0.3,1.16 c0.18,0.49,0.44,0.95,0.74,1.36c0.21,0.29,0.48,0.53,0.78,0.72c0.43,0.28,0.9,0.49,1.41,0.64c0.38,0.11,0.77,0.18,1.17,0.21 c0.83,0.06,1.62-0.06,2.36-0.34c0.52-0.2,1-0.47,1.44-0.8c0.23-0.18,0.44-0.37,0.64-0.58l3.75-3.98l1.06-1.13l1.3-1.36 c0.18-0.19,0.49-0.2,0.68-0.02l1.52,1.4L36,26.99C36.19,27.19,36.2,27.5,36.02,27.7z" style="fill:url(#XMLID_00000044136170438578850000000017614749674683847299_)"/><g><linearGradient id="SVGID_1_" x1="30.556" x2="35.716" y1="28.711" y2="33.406" gradientTransform="matrix(1 0 0 1 0 -4)" gradientUnits="userSpaceOnUse"><stop offset="0" style="stop-color:#136984"/><stop offset=".023" style="stop-color:#117191"/><stop offset=".096" style="stop-color:#0b87b2"/><stop offset=".17" style="stop-color:#0697cc"/><stop offset=".245" style="stop-color:#03a3df"/><stop offset=".323" style="stop-color:#01abea"/><stop offset=".408" style="stop-color:#00adee"/><stop offset=".499" style="stop-color:#02a8e6"/><stop offset=".643" style="stop-color:#0699ce"/><stop offset=".822" style="stop-color:#0c81a9"/><stop offset=".973" style="stop-color:#136984"/></linearGradient><path d="M36.02,27.7l-2.34,2.55l-2.64-2.47l-1.87-1.75l1.06-1.13l1.3-1.36c0.18-0.19,0.49-0.2,0.68-0.02l1.52,1.4 L35.99,27C36.19,27.19,36.2,27.5,36.02,27.7z" class="st2"/><linearGradient id="SVGID_00000016039593421713064370000015113656217037012374_" x1="17.958" x2="24.49" y1="16.877" y2="22.955" gradientTransform="matrix(1 0 0 1 0 -4)" gradientUnits="userSpaceOnUse"><stop offset=".084" style="stop-color:#136984"/><stop offset=".147" style="stop-color:#0d7da3"/><stop offset=".227" style="stop-color:#0892c4"/><stop offset=".304" style="stop-color:#03a1db"/><stop offset=".376" style="stop-color:#01aae9"/><stop offset=".438" style="stop-color:#00adee"/><stop offset=".73" style="stop-color:#0b85af"/><stop offset=".951" style="stop-color:#136984"/></linearGradient><path style="fill:url(#SVGID_00000016039593421713064370000015113656217037012374_)" d="M23.981,15.84 c0.2,0.18,0.21,0.49,0.03,0.68l-1.27,1.4l-1.03,1.12l-1.95-1.82l-2.56-2.39l2.35-2.48c0.19-0.2,0.49-0.2,0.69-0.02l2.16,2.03 L23.981,15.84z"/></g><polygon points="22.7 22.59 21.76 25.14 23.06 24.94 22.03 27.94 24.33 23.91 22.74 24.22" class="st4"/><line x1="25.77" x2="38.04" y1="12.73" y2="12.73" class="st5"/><line x1="25.79" x2="38.06" y1="15.78" y2="15.78" class="st6"/><line x1="25.79" x2="38.06" y1="18.84" y2="18.84" class="st5"/><line x1="34.98" x2="34.98" y1="9.67" y2="21.94" class="st5"/><line x1="31.92" x2="31.92" y1="9.69" y2="21.96" class="st6"/><line x1="28.87" x2="28.87" y1="9.69" y2="21.96" class="st5"/></g><path d="M19.47,34.14c2.57,0.82,5.15,0.06,7.26-1.51" class="st7"/><path d="M20.67,15.23c-1.08,1.26-2.16,2.51-3.24,3.77" class="st7"/></g></svg>