<svg xmlns="http://www.w3.org/2000/svg" xmlns:xlink="http://www.w3.org/1999/xlink" width="128" height="128" x="0" y="0" baseProfile="tiny" version="1.2" viewBox="0 0 128 128" xml:space="preserve"><metadata><sfw xmlns="http://ns.adobe.com/SaveForWeb/1.0/"><slices/><sliceSourceBounds width="111.758" height="106.011" x="7.62" y="14.213" bottomLeftOrigin="true"/></sfw></metadata><g id="Layer_2"><linearGradient id="SVGID_1_" x1="63.499" x2="63.499" y1="23.753" y2="102.091" gradientUnits="userSpaceOnUse"><stop offset="0" style="stop-color:#fcfcfc"/><stop offset="1" style="stop-color:#e6e6e6"/></linearGradient><path fill="url(#SVGID_1_)" d="M105.383,102.614H21.615c-6.262,0-11.356-5.097-11.356-11.36V35.411 c0-6.262,5.094-11.356,11.356-11.356h83.768c6.261,0,11.357,5.094,11.357,11.356v55.843 C116.74,97.518,111.644,102.614,105.383,102.614L105.383,102.614z"/><linearGradient id="SVGID_2_" x1="66.159" x2="66.159" y1="105.016" y2="76.856" gradientUnits="userSpaceOnUse"><stop offset="0" style="stop-color:#e0e0e0"/><stop offset="1" style="stop-color:#999"/></linearGradient><path fill="url(#SVGID_2_)" d="M114.1,71.576c0,0,0.02-0.043,0.054-0.115C114.135,71.502,114.119,71.535,114.1,71.576z M114.1,71.576c-5.279,11.439-14.96,12.32-14.96,12.32l-82.208,14.08l-3.992,4.242c2.387,1.894,5.398,3.033,8.675,3.033h83.767 c7.717,0,13.995-6.278,13.995-13.998V71.576H114.1z"/><path fill="#FFF" d="M105.383,21.416c7.717,0,13.995,6.279,13.995,13.995v55.843c0,7.72-6.278,13.998-13.995,13.998H21.615 c-7.717,0-13.996-6.278-13.996-13.998V35.411c0-7.716,6.279-13.995,13.996-13.995H105.383 M105.383,26.696H21.615 c-4.806,0-8.715,3.909-8.715,8.715v55.843c0,4.808,3.91,8.719,8.715,8.719h83.768c4.805,0,8.715-3.911,8.715-8.719V35.411 C114.098,30.605,110.188,26.696,105.383,26.696L105.383,26.696z"/><path fill="#B0B9C4" d="M105.383,21.416c7.717,0,13.995,6.279,13.995,13.995v55.843c0,7.72-6.278,13.998-13.995,13.998H21.615 c-7.717,0-13.996-6.278-13.996-13.998V35.411c0-7.716,6.279-13.995,13.996-13.995H105.383 M105.383,24.936H21.615 c-5.776,0-10.476,4.699-10.476,10.475v55.843c0,5.777,4.699,10.479,10.476,10.479h83.768c5.776,0,10.475-4.701,10.475-10.479 V35.411C115.857,29.635,111.159,24.936,105.383,24.936L105.383,24.936z"/></g><g id="Layer_1"><linearGradient id="SVGID_3_" x1="68.741" x2="63.461" y1="92.888" y2="78.808" gradientUnits="userSpaceOnUse"><stop offset="0" style="stop-color:#657180"/><stop offset="1" style="stop-color:#afb9c5"/></linearGradient><path fill="url(#SVGID_3_)" d="M96.5,87.318c-17.221,3.742-79.567,10.658-79.567,10.658l71.354-26.973 c0,0,20.729,17.383,25.813-0.406C114.1,70.598,113.721,83.576,96.5,87.318z"/><radialGradient id="SVGID_4_" cx="107.06" cy="95.747" r="18.48" gradientUnits="userSpaceOnUse"><stop offset="0" style="stop-color:#bed63a"/><stop offset="1" style="stop-color:#74b64a"/></radialGradient><circle cx="107.5" cy="102.347" r="10.12" fill="url(#SVGID_4_)" stroke="#17794E" stroke-width="2.64"/><g><rect width="13.199" height="3.521" x="100.9" y="100.587" fill="#FFF"/><rect width="3.52" height="13.2" x="105.74" y="95.747" fill="#FFF"/></g><g><radialGradient id="SVGID_5_" cx="65.514" cy="65.417" r="91.522" gradientUnits="userSpaceOnUse"><stop offset="0" style="stop-color:#f8dc00"/><stop offset="1" style="stop-color:#e76e34"/></radialGradient><path fill="url(#SVGID_5_)" stroke="#E76E34" stroke-width="2.64" d="M74.5,46.056v-28.16c0-4.86-3.939-8.8-8.801-8.8h-1.76 c-4.86,0-8.8,3.94-8.8,8.8v28.16h-9.68l19.36,23.76l19.36-23.76H74.5z"/></g></g></svg>