<svg xmlns="http://www.w3.org/2000/svg" xmlns:svg="http://www.w3.org/2000/svg" id="Layer_1" width="18.513" height="8.904" x="0" y="0" enable-background="new -10.719 10.182 40.815 19.919" version="1.1" viewBox="-10.719 10.182 18.513 8.904" xml:space="preserve"><metadata id="metadata11"/><path id="path3" stroke-miterlimit="3.864" d="m 3.7691007,10.4123 c 2.094337,-0.0014 3.7925601,1.694999 3.7934813,3.789336 l 9.179e-4,0.853947 c 9.179e-4,2.094337 -1.6959202,3.79256 -3.7897967,3.793482 l -10.4689215,0.0065 c -2.0934159,9.09e-4 -3.7916387,-1.695919 -3.7934817,-3.789336 l 0,-0.853947 c -0.0018,-2.093876 1.6954599,-3.79256 3.7893363,-3.793482 l 10.468461,-0.0065 z" style="fill:#707070;stroke:#000;stroke-width:.46059754;stroke-miterlimit:3.86369991"/><path id="path5" d="m 2.0625868,16.12463 c 0.09258,-9.09e-4 0.1671969,0.07186 0.1671969,0.16121 0,0.08797 -0.074617,0.161209 -0.1658151,0.161209 l -7.6813853,0.0046 c -0.091659,0 -0.1662757,-0.07186 -0.1667364,-0.161208 0,-0.08982 0.074156,-0.161209 0.1658152,-0.161209 l 7.6809247,-0.0046 z m 0,-1.654927 c 0.091659,4.61e-4 0.1662756,0.07231 0.1662756,0.16167 0,0.08935 -0.074617,0.16167 -0.1662756,0.16167 l -7.6809247,0.0046 c -0.09258,0 -0.1667363,-0.07231 -0.1667363,-0.16167 0,-0.08935 0.074156,-0.16167 0.1658151,-0.16167 l 7.6818459,-0.0046 z m -0.00184,-1.654006 c 0.09258,0 0.1671968,0.07186 0.1671968,0.160749 0,0.08935 -0.074617,0.16167 -0.1662757,0.16167 l -7.6818459,0.0046 c -0.091659,4.61e-4 -0.1653545,-0.07186 -0.1662756,-0.161209 0,-0.08843 0.074617,-0.16167 0.1662756,-0.16167 l 7.6809248,-0.0042 z" style="fill:#fff"/></svg>