<svg xmlns="http://www.w3.org/2000/svg" xmlns:xlink="http://www.w3.org/1999/xlink" id="Layer_1" width="26.703" height="22.297" x="0" y="0" enable-background="new 0 0 26.703 22.297" version="1.1" viewBox="0 0 26.703 22.297" xml:space="preserve"><g><path fill="#333" fill-rule="evenodd" stroke="#CDCCCC" stroke-miterlimit="3.864" d="M17.978,0.507 c4.547,0,8.231,3.686,8.231,8.232v4.838c0,4.547-3.685,8.232-8.231,8.232H8.732c-4.546,0-8.231-3.686-8.231-8.232V8.739 c0-4.547,3.686-8.232,8.231-8.232H17.978z" clip-rule="evenodd"/><path fill="#FFF" d="M17.516,13.955c0.4,0.4,0.451,1.04,0.064,1.428c-0.388,0.388-1.027,0.337-1.428-0.063l-2.797-2.8 l-2.797,2.8c-0.4,0.4-1.04,0.451-1.428,0.063s-0.337-1.027,0.063-1.428l2.8-2.797l-2.8-2.797c-0.4-0.4-0.451-1.04-0.063-1.428 s1.027-0.337,1.428,0.063l2.797,2.8l2.797-2.8c0.4-0.4,1.04-0.451,1.428-0.063c0.387,0.388,0.336,1.027-0.064,1.428l-2.799,2.797 L17.516,13.955z"/></g></svg>