<svg xmlns="http://www.w3.org/2000/svg" xmlns:xlink="http://www.w3.org/1999/xlink" id="Layer_1" width="26" height="26" x="0" style="enable-background:new 0 0 26 26" y="0" version="1.1" viewBox="0 0 26 26" xml:space="preserve"><circle style="fill:#ccc" cx="13" cy="13" r="13"/><circle style="fill:#999" cx="13" cy="13" r="11"/><rect style="fill:#f2f2f2" width="12" height="10" x="5" y="6"/><rect style="fill:#999" width="12" height="10" x="8" y="9"/><rect style="fill:#999" width="8" height="6" x="7" y="8"/><rect style="fill:#fff" width="12" height="10" x="9" y="10"/><path style="fill:#ffa600" d="M10,7c0,0,2,0,4,0s3,1,3,3s0,3,0,3h3l-5,5l-5-5h3c0,0,0-1,0-2s0-2-1-2C10.5,9,10,7,10,7z"/></svg>