<svg xmlns="http://www.w3.org/2000/svg" xmlns:xlink="http://www.w3.org/1999/xlink" id="Layer_1" width="26" height="26" x="0" style="enable-background:new 0 0 26 26" y="0" version="1.1" viewBox="0 0 26 26" xml:space="preserve"><circle style="fill:#ccc" cx="13" cy="13" r="13"/><circle style="fill:#997e4d" cx="13" cy="13" r="11"/><path style="fill:#fff" d="M4,13c0,0,2-6,9-6s9,6,9,6s-2,6-9,6S4,13,4,13z"/><circle cx="13" cy="13" r="4"/><circle style="fill:#fff" cx="12" cy="11" r="1"/><path style="fill:#ffa600" d="M6.317,22.521c-0.638,0.638-1.673,0.638-2.311,0l0,0c-0.639-0.638-0.638-1.673,0-2.311L20.211,4.479	c0.639-0.638,1.673-0.638,2.312,0l0,0c0.636,0.639,0.637,1.673,0,2.312L6.317,22.521z"/></svg>