<svg xmlns="http://www.w3.org/2000/svg" xmlns:xlink="http://www.w3.org/1999/xlink" id="Layer_1" width="26" height="26" x="0" style="enable-background:new 0 0 26 26" y="0" version="1.1" viewBox="0 0 26 26" xml:space="preserve"><circle style="fill:#ccc" cx="13" cy="13" r="13"/><circle style="fill:#997e4d" cx="13" cy="13" r="11"/><g><rect style="fill:#fff" width=".875" height="7" x="8.062" y="14"/><rect style="fill:#fff" width="7" height=".875" x="5" y="17.062"/><rect style="fill:#fff" width=".876" height="6.999" x="8.062" y="14" transform="matrix(-0.7071 -0.7071 0.7071 -0.7071 2.136 35.8848)"/><rect style="fill:#fff" width=".876" height="7" x="8.062" y="14" transform="matrix(-0.7065 0.7077 -0.7077 -0.7065 26.8898 23.8495)"/></g><g><rect style="fill:#fff" width="1.378" height="11.021" x="14.908" y="4.069" transform="matrix(0.3367 -0.9416 0.9416 0.3367 1.3254 21.0412)"/><rect style="fill:#fff" width="1.378" height="11.021" x="14.909" y="4.07" transform="matrix(-0.9415 -0.3371 0.3371 -0.9415 27.0539 23.8576)"/><rect style="fill:#fff" width="1.377" height="11.02" x="14.909" y="4.07" transform="matrix(-0.9043 0.4268 -0.4268 -0.9043 33.7921 11.5858)"/><rect style="fill:#fff" width="1.379" height="11.019" x="14.908" y="4.071" transform="matrix(0.4277 0.9039 -0.9039 0.4277 17.5862 -8.6157)"/></g></svg>