<svg xmlns="http://www.w3.org/2000/svg" xmlns:xlink="http://www.w3.org/1999/xlink" id="Layer_1" width="26" height="26" x="0" style="enable-background:new 0 0 26 26" y="0" version="1.1" viewBox="0 0 26 26" xml:space="preserve"><circle style="fill:#ccc" cx="13" cy="13" r="13"/><circle style="fill:#997e4d" cx="13" cy="13" r="11"/><rect style="fill:#fff" width="12" height="10" x="7" y="11"/><path style="fill:#fff" d="M13,3C9.687,3,7,5.687,7,9v3c0,3.313,2.687,6,6,6s6-2.687,6-6V9C19,5.687,16.313,3,13,3z M16,12	c0,1.657-1.343,3-3,3c-1.657,0-3-1.343-3-3V9c0-1.657,1.343-3,3-3c1.657,0,3,1.343,3,3V12z"/><path style="fill:#231f20" d="M14.5,14.5c0-0.829-0.672-1.5-1.5-1.5s-1.5,0.671-1.5,1.5c0,0.628,0.387,1.164,0.934,1.388L11.5,19h3	l-0.934-3.112C14.113,15.664,14.5,15.128,14.5,14.5z"/></svg>