<svg xmlns="http://www.w3.org/2000/svg" xmlns:svg="http://www.w3.org/2000/svg" id="Layer_1" width="16" height="16" version="1.1" viewBox="0 0 10.24 10.24" xml:space="preserve" style="fill:#000"><metadata id="metadata37"/><g id="g6" transform="matrix(0.02000004,0,0,0.02000626,0,-0.0016055)"><g id="g4"><path id="path2" d="M 316.02,187.316 H 195.971 c -4.742,0 -8.575,3.842 -8.575,8.575 V 315.94 c 0,4.733 3.833,8.575 8.575,8.575 H 316.02 c 4.742,0 8.575,-3.842 8.575,-8.575 V 195.891 c 0,-4.733 -3.833,-8.575 -8.575,-8.575 z" style="fill:#333"/></g></g><g id="g12" transform="matrix(0.02000004,0,0,0.02000626,0,-0.0016055)"><g id="g10"><path id="path8" d="M 341.882,102.098 262.701,3.135 c -3.267,-4.073 -10.136,-4.073 -13.403,0 l -79.172,98.963 c -2.058,2.572 -2.452,6.097 -1.029,9.072 1.432,2.975 4.433,4.862 7.726,4.862 h 40.911 v 40.911 c 0,4.733 3.833,8.575 8.575,8.575 h 59.39 c 4.742,0 8.575,-3.842 8.575,-8.575 v -40.911 h 40.911 c 3.301,0 6.294,-1.886 7.726,-4.862 1.424,-2.966 1.029,-6.499 -1.029,-9.072 z" style="fill:#333"/></g></g><g id="g18" transform="matrix(0.02000004,0,0,0.02000626,0,-0.0016055)"><g id="g16"><path id="path14" d="m 157.033,217.654 h -40.911 v -40.911 c 0,-3.293 -1.895,-6.303 -4.853,-7.726 -2.984,-1.423 -6.508,-1.029 -9.081,1.038 L 3.216,249.218 C 1.183,250.848 0,253.309 0,255.915 c 0,2.607 1.183,5.068 3.216,6.697 l 98.972,79.172 c 1.552,1.243 3.447,1.878 5.359,1.878 1.26,0 2.538,-0.283 3.721,-0.849 2.967,-1.432 4.853,-4.433 4.853,-7.726 v -40.911 h 40.911 c 4.742,0 8.575,-3.842 8.575,-8.575 V 226.22 c 0,-4.733 -3.841,-8.566 -8.574,-8.566 z" style="fill:#333"/></g></g><g id="g24" transform="matrix(0.02000004,0,0,0.02000626,0,-0.0016055)"><g id="g22"><path id="path20" d="m 342.885,400.66 c -1.415,-2.975 -4.408,-4.862 -7.709,-4.862 h -40.911 v -40.911 c 0,-4.733 -3.833,-8.575 -8.575,-8.575 H 226.3 c -4.742,0 -8.575,3.842 -8.575,8.575 v 40.911 h -40.911 c -3.301,0 -6.294,1.887 -7.726,4.862 -1.423,2.967 -1.029,6.5 1.029,9.072 l 79.172,98.972 c 1.629,2.032 4.099,3.216 6.697,3.216 2.598,0 5.068,-1.183 6.697,-3.216 l 79.172,-98.972 c 2.059,-2.572 2.454,-6.096 1.03,-9.072 z" style="fill:#333"/></g></g><g id="g30" transform="matrix(0.02000004,0,0,0.02000626,0,-0.0016055)"><g id="g28"><path id="path26" d="m 508.784,249.218 -98.972,-79.172 c -2.581,-2.067 -6.122,-2.461 -9.081,-1.038 -2.967,1.432 -4.853,4.433 -4.853,7.726 v 40.911 h -40.911 c -4.742,0 -8.575,3.842 -8.575,8.575 v 59.381 c 0,4.733 3.833,8.575 8.575,8.575 h 40.911 v 40.911 c 0,3.293 1.895,6.303 4.853,7.726 1.192,0.566 2.452,0.849 3.721,0.849 1.912,0 3.807,-0.643 5.359,-1.878 l 98.972,-79.172 c 2.032,-1.621 3.216,-4.09 3.216,-6.697 10e-4,-2.606 -1.182,-5.067 -3.215,-6.697 z" style="fill:#333"/></g></g></svg>