<svg xmlns="http://www.w3.org/2000/svg" xmlns:svg="http://www.w3.org/2000/svg" xmlns:xlink="http://www.w3.org/1999/xlink" id="svg2" width="26" height="26" x="0" y="0" baseProfile="tiny" version="1.1" viewBox="0 0 26 26" xml:space="preserve"><circle id="circle4" cx="13" cy="13" r="12" fill="gray" stroke="silver" stroke-width="2"/><path fill="#FFF" d="M9.481,14.531l-2.439,3.678l3.668-2.459c-0.226-0.185-0.449-0.386-0.666-0.602	C9.845,14.949,9.656,14.741,9.481,14.531z M16.796,8.46c-1.062-1.062-2.309-1.537-2.784-1.063c-0.145,0.146-0.201,0.363-0.179,0.626	c-0.009,0.214-0.037,0.412-0.077,0.593l-1.833,1.833c-0.562,0.159-1.103,0.17-1.394,0.159c-0.614-0.191-1.132-0.161-1.432,0.138	c-0.666,0.666-0.007,2.404,1.469,3.881c1.478,1.479,3.216,2.136,3.881,1.47c0.253-0.254,0.314-0.662,0.212-1.154l0.007,0.007	c0,0-0.106-0.845,0.155-1.707l1.726-1.726c0.209-0.053,0.44-0.086,0.697-0.094c0.257,0.021,0.47-0.036,0.614-0.179	C18.332,10.769,17.858,9.523,16.796,8.46z"/></svg>