<svg xmlns="http://www.w3.org/2000/svg" xmlns:svg="http://www.w3.org/2000/svg" xmlns:xlink="http://www.w3.org/1999/xlink" id="svg2" width="26" height="26" x="0" y="0" enable-background="new 0 0 26 26" version="1.1" viewBox="0 0 26 26" xml:space="preserve"><circle id="circle4" cx="13" cy="13" r="12" fill="gray" stroke="silver" stroke-width="2"/><path fill="#FFF" d="M12.913,7.086c0.001,0,0.002,0,0.004,0.001c0.001,0,0.002,0,0.003,0L12.913,7.086z M19.026,13.239	c0-3.38-2.727-6.128-6.109-6.152c-0.019-0.001-0.034-0.001-0.045-0.001c-1.741,0-3.321,0.729-4.439,1.894L6.972,7.5v4.299h4.244	l-1.474-1.493c0.786-0.837,1.894-1.357,3.13-1.358c0.012,0,0.018,0,0.021,0h0.008c2.359,0.015,4.263,1.934,4.262,4.29	c0.001,0.002,0,0.014,0.001,0.034c-0.019,2.356-1.937,4.257-4.29,4.256c-0.008,0.001-0.02,0-0.037,0l0.005,1.863	c0.006,0,0.016,0,0.031,0c3.381,0,6.13-2.729,6.152-6.114v-0.01v-0.013C19.026,13.254,19.026,13.248,19.026,13.239z"/></svg>