<svg xmlns="http://www.w3.org/2000/svg" xmlns:svg="http://www.w3.org/2000/svg" id="Layer_1" width="17" height="96" x="0" y="0" enable-background="new 0 0 14.649 80.907" version="1.0" viewBox="0 0 14.649 80.907" xml:space="preserve"><metadata id="metadata16"/><path id="path3" d="M 9.2259211,81.716582 L 0.00505198,81.716582 L -2.7755576e-17,-0.60690588 L 9.2259211,-0.60690588 C 12.054018,-0.60690588 14.346605,1.7150177 14.346605,4.5767808 L 14.346605,76.532896 C 14.347616,79.395681 12.054018,81.716582 9.2259211,81.716582 z" style="fill:#333"/><g id="g5" transform="matrix(1.0103955,0,0,1.0224234,-0.227339,-0.8338838)"><path id="path7" d="M 11.093,53.819 C 11.093,54.018 10.939,54.18 10.743,54.18 L 10.743,54.18 C 10.55,54.18 10.393,54.018 10.393,53.819 L 10.393,27.143 C 10.393,26.944 10.547,26.782 10.743,26.782 L 10.743,26.782 C 10.936,26.782 11.093,26.944 11.093,27.143 L 11.093,53.819 z" style="fill:#cececd"/><path id="path9" d="M 7.502,53.819 C 7.502,54.018 7.346,54.18 7.152,54.18 L 7.152,54.18 C 6.959,54.18 6.8,54.018 6.8,53.819 L 6.8,27.143 C 6.8,26.944 6.956,26.782 7.152,26.782 L 7.152,26.782 C 7.343,26.782 7.502,26.944 7.502,27.143 L 7.502,53.819 z" style="fill:#cececd"/><path id="path11" d="M 3.911,53.819 C 3.911,54.018 3.755,54.18 3.561,54.18 L 3.561,54.18 C 3.368,54.18 3.209,54.018 3.209,53.819 L 3.209,27.143 C 3.209,26.944 3.365,26.782 3.561,26.782 L 3.561,26.782 C 3.752,26.782 3.911,26.944 3.911,27.143 L 3.911,53.819 z" style="fill:#cececd"/></g></svg>