<svg xmlns="http://www.w3.org/2000/svg" xmlns:svg="http://www.w3.org/2000/svg" xmlns:xlink="http://www.w3.org/1999/xlink" id="svg548" width="333.07" height="340.19" version="1.0"><metadata id="metadata3"/><defs id="defs550"><linearGradient id="linearGradient650"><stop id="stop651" offset="0" style="stop-color:#000;stop-opacity:1"/><stop id="stop652" offset="1" style="stop-color:#fff;stop-opacity:1"/></linearGradient><linearGradient id="linearGradient653" x1="1" x2="1.167" y1=".531" y2=".539" gradientUnits="objectBoundingBox" spreadMethod="repeat" xlink:href="#linearGradient650"/><linearGradient id="linearGradient654" x1="1.222" x2="1.167" y1=".461" y2=".461" gradientUnits="objectBoundingBox" spreadMethod="repeat" xlink:href="#linearGradient650"/></defs><path style="fill:gray;fill-opacity:1;fill-rule:evenodd;stroke:none;stroke-width:1pt;stroke-linecap:butt;stroke-linejoin:miter;stroke-opacity:1" id="path694" d="M 459.65204,252.76892 A 166.53485,157.83234 0 1 1 126.58234,252.76892 A 166.53485,157.83234 0 1 1 459.65204,252.76892 z" transform="matrix(1,0,0,1.077694,-126.58234,-102.31259)"/><path style="fill:#fff;fill-opacity:1;fill-rule:evenodd;stroke:none;stroke-width:1pt;stroke-linecap:butt;stroke-linejoin:miter;stroke-opacity:1" id="path2390" d="M 259.58138,134.68991 L 99.230258,134.68991 L 99.230258,82.664936 L 28.818258,169.68993 L 98.439258,256.71593 L 100.02125,204.68991 L 258.24825,204.68991 L 259.58138,134.68991 z"/><path style="fill:#fff;fill-opacity:1;fill-rule:evenodd;stroke:none;stroke-width:1pt;stroke-linecap:butt;stroke-linejoin:miter;stroke-opacity:1" id="path2386" d="M 72.462595,144.28895 L 232.81373,144.28895 L 232.81373,82.263981 L 303.22572,169.28897 L 233.60473,256.31497 L 232.02273,204.28895 L 73.795725,204.28895 L 72.462595,144.28895 z"/></svg>