<svg xmlns="http://www.w3.org/2000/svg" xmlns:xlink="http://www.w3.org/1999/xlink" id="Layer_1" width="28.359" height="28.361" x="0" y="0" enable-background="new 0 0 28.359 28.361" version="1.1" viewBox="0 0 28.359 28.361" xml:space="preserve"><g><path fill="#624D9F" fill-rule="evenodd" stroke="#352063" stroke-miterlimit="3.864" d="M14.186,0.521 c7.552,0,13.674,6.122,13.674,13.673l0,0c0,7.553-6.122,13.674-13.674,13.674l0,0c-7.552,0-13.674-6.121-13.674-13.674l0,0 C0.512,6.644,6.634,0.521,14.186,0.521L14.186,0.521z" clip-rule="evenodd"/><path fill="#FFF" d="M15.442,9.194 M19.031,6.675c0.559-0.089,1.106,0.246,1.192,0.787c0.085,0.542-0.331,1.029-0.891,1.118 l-2.606,0.411c2.92,1.414,4.256,4.873,2.973,7.897c-1.323,3.117-4.923,4.571-8.04,3.248c-1.438-0.61-2.524-1.708-3.145-3.019 c-0.228-0.48,0.036-0.902,0.38-1.064c0.344-0.163,0.838-0.101,1.066,0.38c0.458,0.97,1.26,1.778,2.323,2.23 c2.304,0.978,4.964-0.097,5.942-2.401c0.977-2.301-0.101-4.947-2.407-5.927c-0.094-0.04-0.173-0.091-0.237-0.147l0.463,2.916 c0.089,0.56-0.246,1.107-0.788,1.193c-0.541,0.086-1.028-0.332-1.117-0.891l-0.617-3.909l-0.301-1.901l1.901-0.301L19.031,6.675z"/></g></svg>