<svg xmlns="http://www.w3.org/2000/svg" xmlns:ns="&amp;#38;#38;#38;#38;#38;#38;#38;#38;#38;#38;#38;#38;ns_sfw;" xmlns:osb="http://www.openswatchbook.org/uri/2009/osb" xmlns:svg="http://www.w3.org/2000/svg" xmlns:xlink="http://www.w3.org/1999/xlink" id="svg2" width="128" height="128" x="0" y="0" version="1.2" viewBox="0 0 128 128" xml:space="preserve"><defs id="defs39"><linearGradient id="linearGradient5286" osb:paint="solid"><stop style="stop-color:#000;stop-opacity:1" id="stop5288" offset="0"/></linearGradient><linearGradient id="linearGradient4106" osb:paint="gradient"><stop style="stop-color:#000;stop-opacity:1" id="stop4108" offset="0"/><stop style="stop-color:#000;stop-opacity:0" id="stop4110" offset="1"/></linearGradient><linearGradient id="linearGradient3839" x1="64.623" x2="59.005" y1="90.621" y2="80.086" gradientUnits="userSpaceOnUse" spreadMethod="pad"><stop id="stop3841" offset="0" style="stop-color:#00ff09;stop-opacity:1"/><stop style="stop-color:#006c13;stop-opacity:1" id="stop3843" offset="1"/></linearGradient><radialGradient id="SVGID_5_" cx="65.514" cy="65.417" r="91.522" gradientUnits="userSpaceOnUse"><stop style="stop-color:#eeb345;stop-opacity:1" id="stop49" offset="0"/><stop id="stop3980" offset=".833" style="stop-color:#f1be4f;stop-opacity:1"/><stop style="stop-color:#f5d45a;stop-opacity:1" id="stop51" offset="1"/></radialGradient><linearGradient id="SVGID_1_-3" x1="63.499" x2="63.499" y1="24.502" y2="101.951" gradientTransform="matrix(1,0,0,0.92044777,0,8.6711935)" gradientUnits="userSpaceOnUse"><stop id="stop10-8" offset="0" style="stop-color:#fcfcfc"/><stop id="stop12-2" offset="1" style="stop-color:#e6e6e6"/></linearGradient><linearGradient id="SVGID_2_-2" x1="70.383" x2="52.285" y1="100.732" y2="76.387" gradientUnits="userSpaceOnUse" spreadMethod="pad"><stop style="stop-color:#00ff09;stop-opacity:1" id="stop3835" offset="0"/><stop id="stop3837" offset="1" style="stop-color:#006c13;stop-opacity:1"/></linearGradient><linearGradient id="SVGID_3_-8" x1="68.682" x2="61.862" y1="95.811" y2="70.547" gradientUnits="userSpaceOnUse"><stop id="stop31-4" offset="0" style="stop-color:#657180;stop-opacity:1"/><stop id="stop33-6" offset="1" style="stop-color:#afb9c5;stop-opacity:1"/></linearGradient><linearGradient id="linearGradient4008" x1="44.139" x2="85.499" y1="39.456" y2="39.456" gradientTransform="translate(1.8046712,-0.8020761)" gradientUnits="userSpaceOnUse" xlink:href="#radialGradient3048"/><linearGradient id="linearGradient4062" x1="44.139" x2="85.499" y1="39.456" y2="39.456" gradientTransform="translate(1.8046712,-0.8020761)" gradientUnits="userSpaceOnUse" xlink:href="#radialGradient3048"/><radialGradient id="radialGradient3048" cx="65.514" cy="65.417" r="91.522" gradientUnits="userSpaceOnUse"><stop id="stop3050" offset="0" style="stop-color:#f07236;stop-opacity:1"/><stop style="stop-color:#efa51a;stop-opacity:1" id="stop3982" offset=".657"/><stop id="stop3052" offset="1" style="stop-color:#f8dc00;stop-opacity:1"/></radialGradient><linearGradient id="linearGradient4213" x1="44.139" x2="85.499" y1="39.456" y2="39.456" gradientTransform="matrix(0,-1.9815274,1.5742385,0,-8.885433,171.05239)" gradientUnits="userSpaceOnUse" xlink:href="#radialGradient3048"/><linearGradient id="linearGradient3087" x1="63.499" x2="63.499" y1="24.502" y2="101.951" gradientUnits="userSpaceOnUse"><stop id="stop3089" offset="0" style="stop-color:#fcfcfc"/><stop id="stop3091" offset="1" style="stop-color:#e6e6e6"/></linearGradient><linearGradient id="linearGradient3095" x1="66.129" x2="66.129" y1="104.843" y2="77.002" gradientUnits="userSpaceOnUse"><stop id="stop3097" offset="0" style="stop-color:#e0e0e0"/><stop id="stop3099" offset="1" style="stop-color:#999"/></linearGradient><linearGradient id="linearGradient3105" x1="68.682" x2="63.462" y1="92.852" y2="78.932" gradientUnits="userSpaceOnUse"><stop id="stop3107" offset="0" style="stop-color:#657180"/><stop id="stop3109" offset="1" style="stop-color:#afb9c5"/></linearGradient><linearGradient id="linearGradient4126" x1="142.563" x2="226.099" y1="-12.036" y2="-12.036" gradientTransform="translate(84.461969,44.019267)" gradientUnits="userSpaceOnUse" xlink:href="#linearGradient4106"/></defs><metadata id="metadata4"><ns:sfw><ns:slices/><ns:sliceSourceBounds width="117" height="90" x="5" y="19" bottomLeftOrigin="true"/></ns:sfw></metadata><path style="fill:#fff;fill-opacity:1;stroke:#433d3d;stroke-width:3.69816256;stroke-miterlimit:4;stroke-dasharray:none;stroke-opacity:1" id="path7-3" d="m 2.1915244,20.157182 c 0,-9.962758 7.5454408,-18.0382694 16.8519056,-18.0382694 l 89.52575,0 c 9.30646,0 16.85191,8.0755114 16.85191,18.0382694 l 0,65.388734 c 0,9.961631 -7.54545,18.038264 -16.85191,18.038264 l -89.52575,0 c -9.3064648,0 -16.8519056,-8.076633 -16.8519056,-18.038264 l 0,-65.388734 z"/><path style="fill:#8d9aaa;fill-opacity:1" id="path27-6" d="m 18.84423,102.00224 c -8.260498,0 -14.98237,-7.354545 -14.98237,-16.393973 l 0,-65.414726 c 0,-9.044171 6.721872,-16.3987039 14.98237,-16.3987039 l 89.67008,0 c 8.2605,0 14.98129,7.3545329 14.98129,16.3987039 l 0,65.414726 c 0,9.039428 -6.72079,16.393973 -14.98129,16.393973 l -89.67008,0 m 0,-4.123375 89.67008,0 c 6.18265,0 11.21322,-5.504952 11.21322,-12.270598 l 0,-65.414726 c 0,-6.769206 -5.03057,-12.2741432 -11.21322,-12.2741432 l -89.67008,0 c -6.183727,0 -11.2143062,5.5049372 -11.2143062,12.2741432 l 0,65.414726 c -0.00103,6.765646 5.0305792,12.270598 11.2143062,12.270598 l 0,0 z"/><g id="g6" transform="matrix(-0.08393974,0.06506434,0.06461148,0.08354226,97.605085,5.9133544)" style="fill:#280e00;fill-opacity:1;stroke:#000;stroke-width:18.88438673;stroke-linecap:butt;stroke-linejoin:bevel;stroke-miterlimit:4;stroke-dasharray:none;stroke-dashoffset:0;stroke-opacity:1"><g id="g8" style="fill:#280e00;fill-opacity:1;stroke:#000;stroke-width:18.88438673;stroke-linecap:butt;stroke-linejoin:bevel;stroke-miterlimit:4;stroke-dasharray:none;stroke-dashoffset:0;stroke-opacity:1"><path id="path10" d="m 902.6,119.8 -42.1,0 0,-93.3 C 860.5,17.4 853.1,10 844,10 l -695.4,0 c -9.1,0 -16.5,7.4 -16.5,16.5 l 0,93.3 -34.7,0 c -9.1,0 -16.5,7.4 -16.5,16.5 0,9.1 7.4,16.5 16.5,16.5 l 34.8,0 0,93.3 c 0,9.1 7.4,16.5 16.5,16.5 l 695.3,0 c 9.1,0 16.5,-7.4 16.5,-16.5 l 0,-93.3 25.6,0 0,134.1 -396.8,185.8 c -5.8,2.7 -9.5,8.5 -9.5,14.9 l 0,79.4 -42.1,0 c -9.1,0 -16.5,7.4 -16.5,16.5 l 0,390.1 c 0,9.1 7.4,16.5 16.5,16.5 l 120.8,0 c 9.1,0 16.5,-7.4 16.5,-16.5 l 0,-390.2 c 0,-9.1 -7.4,-16.5 -16.5,-16.5 l -45.8,0 0,-68.9 396.8,-185.9 c 5.8,-2.7 9.5,-8.5 9.5,-14.9 l 0,-160.9 c 0.1,-9.1 -7.3,-16.5 -16.4,-16.5 z m -106.1,-32.9 -259.9,0 c -9.1,0 -16.5,-7.4 -16.5,-16.5 0,-9.1 7.4,-16.5 16.5,-16.5 l 259.9,0 c 9.1,0 16.5,7.4 16.5,16.5 -0.1,9.1 -7.4,16.5 -16.5,16.5 z M 514.6,614.3 c 9.1,0 16.5,7.4 16.5,16.5 l 0,201 c 0,9.1 -7.4,16.5 -16.5,16.5 -9.1,0 -16.5,-7.4 -16.5,-16.5 l 0,-201 c 0.1,-9.2 7.4,-16.5 16.5,-16.5 z" style="fill:#280e00;fill-opacity:1;stroke:#000;stroke-width:18.88438673;stroke-linecap:butt;stroke-linejoin:bevel;stroke-miterlimit:4;stroke-dasharray:none;stroke-dashoffset:0;stroke-opacity:1"/></g></g></svg>