<svg xmlns="http://www.w3.org/2000/svg" xmlns:svg="http://www.w3.org/2000/svg" xmlns:xlink="http://www.w3.org/1999/xlink" id="svg38508" width="42" height="42" version="1.1" viewBox="0 0 42 42"><defs id="defs38505"><linearGradient id="linearGradient20969"><stop style="stop-color:#ffbbd7;stop-opacity:1" id="stop20965" offset="0"/><stop style="stop-color:#ffa5ca;stop-opacity:1" id="stop20967" offset="1"/></linearGradient><linearGradient id="linearGradient36002"><stop style="stop-color:#fff;stop-opacity:1" id="stop35998" offset="0"/><stop style="stop-color:#fff;stop-opacity:0" id="stop36000" offset="1"/></linearGradient><filter style="color-interpolation-filters:sRGB" id="filter37990-9-9" width="1.136" height="1.187" x="-.068" y="-.078"><feGaussianBlur id="feGaussianBlur37992-3-7" stdDeviation=".3"/><feOffset id="feOffset37994-2-5" dx="0" dy=".3"/></filter><linearGradient id="linearGradient42941" x1="60.663" x2="61.939" y1="55.481" y2="52.16" gradientUnits="userSpaceOnUse" xlink:href="#linearGradient20969"/><linearGradient id="linearGradient42943" x1="63.578" x2="63.121" y1="53.124" y2="51.13" gradientUnits="userSpaceOnUse" xlink:href="#linearGradient36002"/><linearGradient id="linearGradient42945" x1="63.578" x2="61.989" y1="53.124" y2="54.097" gradientUnits="userSpaceOnUse" xlink:href="#linearGradient36002"/></defs><g id="layer1" transform="translate(-152.84748,-194.2822)"><g id="g38085-5-6" transform="matrix(2.8861847,0,0,2.8861847,-10.403838,66.393885)"><path style="fill:#000;fill-opacity:1;stroke:none;stroke-width:.264583px;stroke-linecap:butt;stroke-linejoin:miter;stroke-opacity:1;filter:url(#filter37990-9-9)" id="path37440-8-5" d="m 65.27655,47.320612 -6.604657,7.131182 4.165619,2.15681 6.452007,-7.430413 z"/><path style="fill:#fff;fill-opacity:1;stroke:none;stroke-width:.264583px;stroke-linecap:butt;stroke-linejoin:miter;stroke-opacity:1" id="path34216-4-8" d="m 58.671893,54.451794 1.164783,-3.480681 4.283716,-4.860607 3.849332,1.873067 1.319795,1.194618 -6.452007,7.430413 z"/><path style="fill:#9cb6d0;fill-opacity:1;stroke:none;stroke-width:.265;stroke-linecap:butt;stroke-linejoin:miter;stroke-miterlimit:4;stroke-dasharray:none;stroke-opacity:1" id="path1239-0-7" d="m 65.747258,50.584059 -3.739087,-2.07789 2.112221,-2.395663 3.849332,1.873067 z"/><path style="fill:#ebbbda;fill-opacity:1;stroke:none;stroke-width:.265;stroke-linecap:butt;stroke-linejoin:miter;stroke-miterlimit:4;stroke-dasharray:none;stroke-opacity:1" id="path6674-2-5" d="m 59.836676,50.971113 2.171495,-2.464944 3.739087,2.07789 -2.169598,2.540091 z"/><path style="fill:#5479ea;fill-opacity:1;stroke:none;stroke-width:.264583px;stroke-linecap:butt;stroke-linejoin:miter;stroke-opacity:1" id="path12589-9-6" d="M 66.473225,52.422044 V 51.02752 l -0.725967,-0.443461 2.222466,-2.600486 1.319795,1.194618 z"/><path style="fill:#ff72aa;fill-opacity:1;stroke:none;stroke-width:.264583px;stroke-linecap:butt;stroke-linejoin:miter;stroke-opacity:1" id="path16086-6-5" d="m 62.837512,56.608604 0.740148,-3.484454 2.169598,-2.540091 0.725967,0.443461 v 1.394524 z"/><path style="fill:url(#linearGradient42941);fill-opacity:1;stroke:none;stroke-width:.264583px;stroke-linecap:butt;stroke-linejoin:miter;stroke-opacity:1" id="path20897-4-6" d="m 58.671893,54.451794 1.164783,-3.480681 3.740984,2.153037 -0.740148,3.484454 z"/><path style="fill:none;stroke:url(#linearGradient42943);stroke-width:.01;stroke-linecap:round;stroke-linejoin:round;stroke-miterlimit:4;stroke-dasharray:none;stroke-opacity:1" id="path35930-9-1" d="m 63.57766,53.12415 -3.740984,-2.153037 2.171494,-2.464945 3.739086,2.077892 z"/><path style="fill:none;stroke:url(#linearGradient42945);stroke-width:.01;stroke-linecap:round;stroke-linejoin:round;stroke-miterlimit:4;stroke-dasharray:none;stroke-opacity:1" id="path36965-3-4" d="m 58.671893,54.451794 1.164783,-3.480681 3.740984,2.153037 -0.740148,3.484454 z"/><path style="fill:#000;fill-opacity:1;stroke:none;stroke-width:.516991px;stroke-linecap:butt;stroke-linejoin:miter;stroke-opacity:1" id="path41415" d="m 68.343527,58.16964 2.425098,-2.24608 -2.425347,-2.258136 c 0.0027,1.501393 5.77e-4,3.002823 2.49e-4,4.504216 z"/></g></g><metadata id="metadata861"/></svg>