<svg xmlns="http://www.w3.org/2000/svg" xmlns:xlink="http://www.w3.org/1999/xlink" width="96" height="96" x="0" y="0" baseProfile="tiny" overflow="visible" version="1.2" viewBox="-17.25 -3.228 96 96" xml:space="preserve"><g><path fill="#FFF" d="M40.245,0.75c-3.26,0-39.495,0-39.495,0v79h60c0,0,0-57.821,0-60.688c0-1.682-0.81-3.904-1.754-5.062 c-1.58-1.936-10.316-9.098-12.142-10.773C45.666,2.138,41.152,0.75,40.245,0.75z"/><linearGradient id="SVGID_1_" x1="30.75" x2="30.75" y1="4.7" y2="75.801" gradientUnits="userSpaceOnUse"><stop offset="0" style="stop-color:#f0f1f3"/><stop offset="1" style="stop-color:#fbfdfd"/></linearGradient><path fill="url(#SVGID_1_)" d="M39.296,4.7c-2.935,0-35.546,0-35.546,0v71.1h54c0,0,0-52.039,0-54.619 c0-1.514-0.729-3.514-1.578-4.555c-1.423-1.743-9.285-8.188-10.928-9.696C44.175,5.949,40.112,4.7,39.296,4.7z"/></g><radialGradient id="SVGID_2_" cx="49.433" cy="10.279" r="16.128" gradientUnits="userSpaceOnUse"><stop offset="0" style="stop-color:#d4d4d3"/><stop offset="1" style="stop-color:#fbfdfd"/></radialGradient><path fill="url(#SVGID_2_)" d="M35.175,4.628c0,0-9.017,6.213-2.155,14.081c6.862,7.869,11.963,10.418,17.65,9.242	c5.687-1.177,5.529-1.826,6.314-3.395s0.932-5.307,0.353-8.13c-0.533-2.598-7.11-7.148-10.026-9.238	C43.011,4.106,40.686,4.562,35.175,4.628z"/><path fill="#FFF" d="M43.665,16.395c1.835,0,10.509-0.217,12.083,0.438c1.573,0.655,3.984,4.525,3.984,6.492v-8.531L39.931,1.287	c0,0,2.41,2.174,3.067,4.797C43.653,8.706,43.665,16.395,43.665,16.395z"/><path fill="none" stroke="#A1A9AD" stroke-linejoin="round" stroke-miterlimit="10" stroke-width="1.5" d="M41.531,0.75	c-3.26,0-40.781,0-40.781,0v79h60c0,0,0-57.384,0-60.25c0-0.764-0.073-3.548-1.018-4.706c-1.58-1.936-11.759-10.74-13.584-12.415	C44.96,1.29,42.438,0.75,41.531,0.75z"/><g><g><path fill="#FFF" d="M40.245,0.75c-3.26,0-39.495,0-39.495,0v79h60c0,0,0-57.821,0-60.688c0-1.682-0.81-3.904-1.754-5.062 c-1.58-1.936-10.316-9.098-12.142-10.773C45.666,2.138,41.152,0.75,40.245,0.75z"/><linearGradient id="SVGID_3_" x1="30.75" x2="30.75" y1="4.701" y2="75.8" gradientUnits="userSpaceOnUse"><stop offset="0" style="stop-color:#f0f1f3"/><stop offset="1" style="stop-color:#fbfdfd"/></linearGradient><path fill="url(#SVGID_3_)" d="M39.296,4.701c-2.935,0-35.546,0-35.546,0v71.1h54c0,0,0-52.039,0-54.619 c0-1.514-0.729-3.514-1.578-4.555c-1.423-1.743-9.285-8.188-10.928-9.696C44.175,5.949,40.112,4.701,39.296,4.701z"/></g><radialGradient id="SVGID_4_" cx="49.432" cy="10.28" r="16.128" gradientUnits="userSpaceOnUse"><stop offset="0" style="stop-color:#b1b3b4"/><stop offset=".264" style="stop-color:#c6c7c9"/><stop offset=".758" style="stop-color:#e5e6e9"/><stop offset="1" style="stop-color:#f0f1f4"/></radialGradient><path fill="url(#SVGID_4_)" d="M35.175,4.628c0,0-9.017,6.213-2.155,14.081c6.862,7.869,11.963,10.418,17.65,9.242 c5.687-1.177,5.529-1.826,6.314-3.395s0.932-5.307,0.353-8.13c-0.533-2.598-7.11-7.148-10.026-9.238 C43.011,4.106,40.686,4.562,35.175,4.628z"/><path fill="#FFF" d="M43.665,16.396c1.835,0,10.509-0.217,12.083,0.438c1.573,0.655,3.984,4.525,3.984,6.492v-8.531 L39.931,1.287c0,0,2.41,2.174,3.067,4.797C43.653,8.706,43.665,16.396,43.665,16.396z"/><path fill="none" stroke="#A1A9AD" stroke-linejoin="round" stroke-miterlimit="10" stroke-width="1.5" d="M41.531,0.75 c-3.26,0-40.781,0-40.781,0v79h60c0,0,0-57.383,0-60.25c0-0.764-0.073-3.548-1.018-4.706c-1.58-1.936-11.759-10.74-13.584-12.415 C44.96,1.29,42.438,0.75,41.531,0.75z"/></g><path fill="#9FC221" d="M33.977,48.296l-10.864,9.332h-7.948c-1.404,0-2.553,1.148-2.553,2.551v12.236	c0,1.403,1.148,2.551,2.553,2.551h7.13l11.682,10.035c0.744,0.64,1.354,0.359,1.354-0.623V48.919	C35.33,47.937,34.721,47.658,33.977,48.296z"/><linearGradient id="SVGID_5_" x1="23.971" x2="23.971" y1="85.344" y2="47.954" gradientUnits="userSpaceOnUse"><stop offset="0" style="stop-color:#86a51e"/><stop offset=".022" style="stop-color:#88a81e"/><stop offset=".137" style="stop-color:#93b31f"/><stop offset=".278" style="stop-color:#9abc20"/><stop offset=".475" style="stop-color:#9ec121"/><stop offset="1" style="stop-color:#9fc221"/></linearGradient><path fill="url(#SVGID_5_)" d="M33.977,48.296l-10.864,9.332h-7.948c-1.404,0-2.553,1.148-2.553,2.551v12.236	c0,1.403,1.148,2.551,2.553,2.551h7.13l11.682,10.035c0.744,0.64,1.354,0.359,1.354-0.623V48.919	C35.33,47.937,34.721,47.658,33.977,48.296z"/><linearGradient id="SVGID_6_" x1="51.129" x2="66.469" y1="66.233" y2="66.233" gradientUnits="userSpaceOnUse"><stop offset="0" style="stop-color:#86a51e"/><stop offset=".022" style="stop-color:#88a81e"/><stop offset=".137" style="stop-color:#93b31f"/><stop offset=".278" style="stop-color:#9abc20"/><stop offset=".475" style="stop-color:#9ec121"/><stop offset="1" style="stop-color:#9fc221"/></linearGradient><path fill="url(#SVGID_6_)" d="M56.215,40.972c-0.188-0.189-0.441-0.297-0.707-0.298c-0.311-0.015-0.52,0.103-0.709,0.288	l-2.846,2.811c-0.393,0.389-0.396,1.021-0.008,1.414c5.496,5.566,8.523,12.938,8.523,20.754c0,8.082-3.209,15.63-9.035,21.253	c-0.396,0.384-0.408,1.017-0.025,1.414l2.777,2.878c0.186,0.191,0.438,0.301,0.703,0.306c0.006,0,0.012,0,0.018,0	c0.258,0,0.508-0.101,0.693-0.28c7.01-6.764,10.869-15.845,10.869-25.57C66.469,56.535,62.826,47.667,56.215,40.972z"/><linearGradient id="SVGID_7_" x1="44.07" x2="56.303" y1="66.147" y2="66.147" gradientUnits="userSpaceOnUse"><stop offset="0" style="stop-color:#86a51e"/><stop offset=".022" style="stop-color:#88a81e"/><stop offset=".137" style="stop-color:#93b31f"/><stop offset=".278" style="stop-color:#9abc20"/><stop offset=".475" style="stop-color:#9ec121"/><stop offset="1" style="stop-color:#9fc221"/></linearGradient><path fill="url(#SVGID_7_)" d="M48.982,48.114c-0.188-0.188-0.441-0.296-0.707-0.298c-0.225-0.011-0.52,0.103-0.709,0.289	l-2.846,2.811c-0.393,0.389-0.396,1.021-0.008,1.414c3.604,3.65,5.59,8.484,5.59,13.611c0,5.301-2.105,10.252-5.926,13.939	c-0.191,0.184-0.301,0.436-0.307,0.701c-0.004,0.266,0.098,0.521,0.281,0.713l2.777,2.877c0.184,0.191,0.436,0.301,0.701,0.307	c0.006,0,0.012,0,0.018,0c0.26,0,0.508-0.102,0.695-0.281c5.004-4.828,7.76-11.312,7.76-18.256	C56.303,59.225,53.703,52.894,48.982,48.114z"/><path fill="#ECF2D2" d="M15.067,74.528V62.292c0-1.404,1.191-2.552,2.647-2.552h7.35l10.354-8.56l0.145-1.566	c0-0.982,0.512-1.592-0.986-0.951l-11.271,9.332h-7.523c-1.457,0-2.647,1.147-2.647,2.551v12.236c0,1.207,0.886,2.222,2.06,2.482	C15.12,75.029,15.067,74.786,15.067,74.528z"/><polygon fill="#ECF2D2" points="46.131 54.026 50.557 49.867 48.307 47.5 44.186 51.355"/><polygon fill="#ECF2D2" points="53.648 46.775 58.074 42.616 55.824 40.25 51.703 44.104"/><linearGradient id="SVGID_8_" x1="11.31" x2="15.989" y1="69.353" y2="74.032" gradientUnits="userSpaceOnUse"><stop offset="0" style="stop-color:#ecf2d2"/><stop offset=".142" style="stop-color:#eaf0cf"/><stop offset=".285" style="stop-color:#e4eac4"/><stop offset=".429" style="stop-color:#dae1b2"/><stop offset=".574" style="stop-color:#cbd497"/><stop offset=".719" style="stop-color:#b8c475"/><stop offset=".862" style="stop-color:#a0b24e"/><stop offset="1" style="stop-color:#839f20"/></linearGradient><path fill="url(#SVGID_8_)" d="M12.813,69.521v-1.47h-0.201v4.362c0,1.37,1.097,2.488,2.455,2.541v-2.912	C13.803,71.892,12.813,70.822,12.813,69.521z"/><path fill="#839F20" d="M34.176,82.109L22.495,72.074h-7.131c-0.102,0-0.198-0.018-0.297-0.029v2.912	c0.033,0.002,0.063,0.01,0.098,0.01h7.13l11.682,10.035c0.744,0.64,1.354,0.359,1.354-0.623v-2.145	C35.092,82.546,34.664,82.529,34.176,82.109z"/><polyline fill="#839F20" points="45.785 78.516 49.986 82.359 47.848 84.478 43.641 80.482 45.785 78.516"/><polyline fill="#839F20" points="52.846 85.844 57.047 89.687 54.908 91.806 50.701 87.81 52.846 85.844"/><path fill="none" stroke="#7A8A21" stroke-miterlimit="10" stroke-width="1.5" d="M33.977,48.296l-10.864,9.332h-7.948	c-1.404,0-2.553,1.148-2.553,2.551v12.236c0,1.403,1.148,2.551,2.553,2.551h7.13l11.682,10.035c0.744,0.64,1.354,0.359,1.354-0.623	V48.919C35.33,47.937,34.721,47.658,33.977,48.296z"/><path fill="none" stroke="#7A8A21" stroke-miterlimit="10" stroke-width="1.5" d="M56.215,40.972	c-0.188-0.189-0.441-0.297-0.707-0.298c-0.311-0.015-0.52,0.103-0.709,0.288l-2.846,2.811c-0.393,0.389-0.396,1.021-0.008,1.414	c5.496,5.566,8.523,12.938,8.523,20.754c0,8.082-3.209,15.63-9.035,21.253c-0.396,0.384-0.408,1.017-0.025,1.414l2.777,2.878	c0.186,0.191,0.438,0.301,0.703,0.306c0.006,0,0.012,0,0.018,0c0.258,0,0.508-0.101,0.693-0.28	c7.01-6.764,10.869-15.845,10.869-25.57C66.469,56.535,62.826,47.667,56.215,40.972z"/><path fill="none" stroke="#7A8A21" stroke-miterlimit="10" stroke-width="1.5" d="M48.982,48.114	c-0.188-0.188-0.441-0.296-0.707-0.298c-0.225-0.011-0.52,0.103-0.709,0.289l-2.846,2.811c-0.393,0.389-0.396,1.021-0.008,1.414	c3.604,3.65,5.59,8.484,5.59,13.611c0,5.301-2.105,10.252-5.926,13.939c-0.191,0.184-0.301,0.436-0.307,0.701	c-0.004,0.266,0.098,0.521,0.281,0.713l2.777,2.877c0.184,0.191,0.436,0.301,0.701,0.307c0.006,0,0.012,0,0.018,0	c0.26,0,0.508-0.102,0.695-0.281c5.004-4.828,7.76-11.312,7.76-18.256C56.303,59.225,53.703,52.894,48.982,48.114z"/></svg>