<svg xmlns="http://www.w3.org/2000/svg" xmlns:svg="http://www.w3.org/2000/svg" id="svg2" width="920" height="889" version="1.1" viewBox="0 0 920 889"><metadata id="metadata8"/><g id="g842" transform="matrix(1.2326881,0,0,1.2326881,-222.17978,-258.91642)"><rect style="fill:#000;stroke:#000;stroke-width:.995422;stroke-linecap:round;stroke-miterlimit:4;stroke-dasharray:none" id="rect869" width="615.678" height="421.567" x="245.569" y="390.538" ry="95.906"/><ellipse style="fill:none;stroke:#fff;stroke-width:44.311;stroke-linecap:round;stroke-miterlimit:4;stroke-dasharray:none" id="path865" cx="613.94" cy="595.932" rx="130.563" ry="129.906"/><circle style="fill:#fff;stroke:#000;stroke-width:1.18064;stroke-linecap:round;stroke-miterlimit:4;stroke-dasharray:none" id="path867" cx="337.805" cy="473.501" r="31.428"/><path id="rect871" d="m 544.35308,319.58381 c 45.60325,0.008 136.75135,0 136.75135,0 21.08328,0 43.54453,13.69986 50.36154,30.71718 9.18992,22.91343 27.52113,68.70108 27.52113,68.70108 6.81701,17.01731 -12.98172,30.71717 -44.39175,30.71717 -67.9105,0.008 -203.73318,0 -203.73318,0 -31.41005,0 -51.20878,-13.69986 -44.39177,-30.71717 9.18566,-22.89645 27.52113,-68.70108 27.52113,-68.70108 6.81701,-17.01732 29.27826,-30.71718 50.36155,-30.71718 z" transform="matrix(1,0,0,0.86120843,1.2610394,53.854652)" style="fill:#000;stroke:#000;stroke-width:.959938;stroke-linecap:round;stroke-miterlimit:4;stroke-dasharray:none"/><rect style="fill:#000;stroke:#000;stroke-width:1.01007;stroke-linecap:round;stroke-miterlimit:4;stroke-dasharray:none" id="rect878" width="122.577" height="67.015" x="305.614" y="359.338" ry="33.508"/></g></svg>