<svg xmlns="http://www.w3.org/2000/svg" xmlns:xlink="http://www.w3.org/1999/xlink" width="107" height="107" x="0" y="0" baseProfile="tiny" overflow="visible" version="1.2" viewBox="0 0 107 107" xml:space="preserve"><g><linearGradient id="SVGID_1_" x1="53.666" x2="53.666" y1="0" y2="107.334" gradientUnits="userSpaceOnUse"><stop offset="0" style="stop-color:#727270"/><stop offset="1" style="stop-color:#41413f"/></linearGradient><path fill="url(#SVGID_1_)" d="M107.3,99.3c0,4.4-3.6,8-8,8H8c-4.4,0-8-3.6-8-8V8c0-4.4,3.6-8,8-8h91.3c4.4,0,8,3.6,8,8V99.3z"/></g><circle cx="27.9" cy="26.6" r="8.4" fill="#FFF"/><circle cx="27.9" cy="50.8" r="8.4" fill="#FFF"/><g><g><circle cx="29.9" cy="79" r="12.9" fill="#33342E"/></g><g><circle cx="27.9" cy="76" r="12.9" fill="#FFF"/></g></g><circle cx="27.9" cy="76" r="4.7" fill="#67C8F0"/><path fill="#67C8F0" d="M27.9,89.2c-7.2,0-13.1-5.9-13.1-13.1s5.9-13.1,13.1-13.1S41,68.8,41,76S35.1,89.2,27.9,89.2z M27.9,66.9	c-5,0-9.1,4.1-9.1,9.1s4.1,9.1,9.1,9.1S37,81.1,37,76S32.9,66.9,27.9,66.9z"/><rect width="41.4" height="6.3" x="49" y="23.4" fill="#FFF"/><g><g><rect width="41.4" height="6.3" x="51" y="75.9" fill="#33342E"/></g><g><rect width="41.4" height="6.3" x="49" y="72.9" fill="#FFF"/></g></g><rect width="8.9" height="6.3" x="49" y="47.6" fill="#FFF"/><rect width="26.5" height="6.3" x="63.9" y="47.6" fill="#FFF"/></svg>