<svg xmlns="http://www.w3.org/2000/svg" xmlns:ns0="&amp;#38;ns_sfw;" xmlns:svg="http://www.w3.org/2000/svg" id="svg5179" width="128" height="128" x="0" y="0" version="1.2" viewBox="0 0 128 128" xml:space="preserve"><defs id="defs5216"><linearGradient id="SVGID_1_" x1="63.365" x2="63.365" y1="24.702" y2="102.149" gradientUnits="userSpaceOnUse"><stop id="stop5187" offset="0" style="stop-color:#4d4d4d"/><stop id="stop5189" offset="1" style="stop-color:#000"/></linearGradient><linearGradient id="SVGID_2_" x1="66.129" x2="66.129" y1="104.843" y2="77.002" gradientUnits="userSpaceOnUse"><stop id="stop5196" offset="0" style="stop-color:#e0e0e0"/><stop id="stop5198" offset="1" style="stop-color:#999"/></linearGradient></defs><metadata id="metadata5181"><ns0:sfw><ns0:slices/><ns0:sliceSourceBounds width="117" height="90" x="5" y="19" bottomLeftOrigin="true"/></ns0:sfw></metadata><g id="g4825"><path id="path5191" d="m 104.771,102.666 -82.814,0 c -6.19,0 -11.227,-5.037 -11.227,-11.23 l 0,-55.209 C 10.73,30.036 15.766,25 21.957,25 l 82.815,0 C 110.963,25 116,30.036 116,36.227 l 0,55.208 c 0,6.194 -5.037,11.231 -11.229,11.231 l 0,0 z" style="fill:url(#SVGID_1_)"/><path id="path5200" d="m 113.525,71.782 c 0,0 0.02,-0.042 0.052,-0.114 -0.018,0.041 -0.034,0.074 -0.052,0.114 z m 0,0 c -5.221,11.31 -14.791,12.181 -14.791,12.181 l -81.273,13.92 -3.946,4.193 c 2.36,1.872 5.337,3 8.577,3 l 82.815,0 c 7.629,0 13.837,-6.207 13.837,-13.84 l 0,-19.454 -5.219,0 z" style="fill:url(#SVGID_2_)"/><path id="path5202" d="m 104.906,22.192 c 7.629,0 13.837,6.207 13.837,13.836 l 0,55.208 c 0,7.633 -6.208,13.84 -13.837,13.84 l -82.815,0 c -7.629,0 -13.836,-6.207 -13.836,-13.84 l 0,-55.208 c 0,-7.629 6.207,-13.836 13.836,-13.836 l 82.815,0 m 0,5.22 -82.815,0 c -4.751,0 -8.616,3.865 -8.616,8.616 l 0,55.208 c 0,4.753 3.865,8.619 8.616,8.619 l 82.815,0 c 4.751,0 8.617,-3.866 8.617,-8.619 l 0,-55.208 c 0,-4.751 -3.866,-8.616 -8.617,-8.616 l 0,0 z" style="fill:#fff"/><path id="path5204" d="m 104.906,22.192 c 7.629,0 13.837,6.207 13.837,13.836 l 0,55.208 c 0,7.633 -6.208,13.84 -13.837,13.84 l -82.815,0 c -7.629,0 -13.836,-6.207 -13.836,-13.84 l 0,-55.208 c 0,-7.629 6.207,-13.836 13.836,-13.836 l 82.815,0 m 0,3.48 -82.815,0 c -5.71,0 -10.356,4.646 -10.356,10.356 l 0,55.208 c 0,5.713 4.646,10.359 10.356,10.359 l 82.815,0 c 5.711,0 10.357,-4.646 10.357,-10.359 l 0,-55.208 c 10e-4,-5.71 -4.646,-10.356 -10.357,-10.356 l 0,0 z" style="fill:#b0b9c4"/><g id="g4808"><rect style="fill:#afafaf;fill-opacity:1;stroke:none;stroke-opacity:1" id="rect4737" width="92.857" height="2.164" x="17.035" y="80.53"/><rect style="fill:#afafaf;fill-opacity:1;stroke:none;stroke-opacity:1" id="rect4731" width="92.857" height="2.164" x="17.035" y="46.935"/><rect id="rect4735" width="92.857" height="2.164" x="17.035" y="63.842" style="fill:#afafaf;fill-opacity:1;stroke:none;stroke-opacity:1"/></g><g id="Layer_1"><linearGradient id="SVGID_3_" x1="68.682" x2="63.462" y1="92.852" y2="78.932" gradientUnits="userSpaceOnUse"><stop id="stop5208" offset="0" style="stop-color:#657180"/><stop id="stop5210" offset="1" style="stop-color:#afb9c5"/></linearGradient><path id="path5212" d="M 96.125,87.346 C 79.1,91.045 17.461,97.883 17.461,97.883 L 88.003,71.217 c 0,0 20.494,17.185 25.521,-0.401 0.001,-0.001 -0.376,12.83 -17.399,16.53 z" style="fill:url(#SVGID_3_)"/></g></g></svg>