<svg xmlns="http://www.w3.org/2000/svg" xmlns:ns="&amp;#38;ns_sfw;" xmlns:svg="http://www.w3.org/2000/svg" id="svg35" width="128" height="128" x="0" y="0" version="1.2" viewBox="0 0 128 128" xml:space="preserve"><defs id="defs39"><linearGradient id="SVGID_1_" x1="63.365" x2="63.365" y1="24.702" y2="102.149" gradientUnits="userSpaceOnUse"><stop id="stop6" offset="0" style="stop-color:#4d4d4d"/><stop id="stop8" offset="1" style="stop-color:#000"/></linearGradient><linearGradient id="SVGID_2_" x1="66.129" x2="66.129" y1="104.843" y2="77.002" gradientUnits="userSpaceOnUse"><stop id="stop15" offset="0" style="stop-color:#e0e0e0"/><stop id="stop17" offset="1" style="stop-color:#999"/></linearGradient></defs><metadata id="metadata2"><ns:sfw><ns:slices/><ns:sliceSourceBounds width="117" height="90" x="5" y="19" bottomLeftOrigin="true"/></ns:sfw></metadata><g id="g1045"><path style="fill:#666" id="path4" d="m 122,93 c 0,8.837 -7.164,16 -16,16 H 21 C 12.164,109 5,101.837 5,93 V 35 C 5,26.164 12.164,19 21,19 h 85 c 8.836,0 16,7.164 16,16 z"/><path style="fill:url(#SVGID_1_)" id="path11" d="M 104.771,102.666 H 21.957 c -6.19,0 -11.227,-5.037 -11.227,-11.23 V 36.227 C 10.73,30.036 15.766,25 21.957,25 h 82.815 C 110.963,25 116,30.036 116,36.227 v 55.208 c 0,6.194 -5.037,11.231 -11.229,11.231 z"/><g id="g1024"><rect id="rect4731-62-9-7" width="92.857" height="1.5" x="15.809" y="36.5" style="fill:#6fa8dc;fill-opacity:.60000002;stroke:none;stroke-width:.832515;stroke-opacity:1"/><rect id="rect4731-62-9-6" width="92.857" height="1.5" x="15.809" y="76.5" style="fill:#6fa8dc;fill-opacity:.60000002;stroke:none;stroke-width:.832516;stroke-opacity:1"/><rect id="rect4731-62-9" width="92.857" height="1.5" x="15.809" y="56.5" style="fill:#6fa8dc;fill-opacity:.60000002;stroke:none;stroke-width:.832515;stroke-opacity:1"/><rect id="rect4731-62-9-1" width="92.857" height="1.5" x="15.809" y="66.5" style="fill:#6fa8dc;fill-opacity:.60000002;stroke:none;stroke-width:.832515;stroke-opacity:1"/><rect id="rect4731-7-5-3" width="2" height="65" x="74" y="31" style="fill:#8e7cc3;fill-opacity:1;stroke:none;stroke-width:.804287;stroke-opacity:1"/><rect id="rect4731-6" width="92.857" height="2" x="15.809" y="86" style="fill:#8e7cc3;fill-opacity:1;stroke:none;stroke-width:.961305;stroke-opacity:1"/><rect id="rect4731" width="92.857" height="2" x="15.809" y="46" style="fill:#8e7cc3;fill-opacity:1;stroke:none;stroke-width:.961305;stroke-opacity:1"/><rect id="rect4731-7" width="2" height="65" x="34" y="31" style="fill:#8e7cc3;fill-opacity:1;stroke:none;stroke-width:.804287;stroke-opacity:1"/></g><path style="fill:url(#SVGID_2_)" id="path20" d="m 113.525,71.782 c 0,0 0.02,-0.042 0.052,-0.114 -0.018,0.041 -0.034,0.074 -0.052,0.114 z m 0,0 c -5.221,11.31 -14.791,12.181 -14.791,12.181 l -81.273,13.92 -3.946,4.193 c 2.36,1.872 5.337,3 8.577,3 h 82.815 c 7.629,0 13.837,-6.207 13.837,-13.84 V 71.782 Z"/><path style="fill:#fff" id="path22" d="m 104.906,22.192 c 7.629,0 13.837,6.207 13.837,13.836 v 55.208 c 0,7.633 -6.208,13.84 -13.837,13.84 H 22.091 c -7.629,0 -13.836,-6.207 -13.836,-13.84 V 36.028 c 0,-7.629 6.207,-13.836 13.836,-13.836 h 82.815 m 0,5.22 H 22.091 c -4.751,0 -8.616,3.865 -8.616,8.616 v 55.208 c 0,4.753 3.865,8.619 8.616,8.619 h 82.815 c 4.751,0 8.617,-3.866 8.617,-8.619 V 36.028 c 0,-4.751 -3.866,-8.616 -8.617,-8.616 z"/><path style="fill:#b0b9c4" id="path24" d="m 104.906,22.192 c 7.629,0 13.837,6.207 13.837,13.836 v 55.208 c 0,7.633 -6.208,13.84 -13.837,13.84 H 22.091 c -7.629,0 -13.836,-6.207 -13.836,-13.84 V 36.028 c 0,-7.629 6.207,-13.836 13.836,-13.836 h 82.815 m 0,3.48 H 22.091 c -5.71,0 -10.356,4.646 -10.356,10.356 v 55.208 c 0,5.713 4.646,10.359 10.356,10.359 h 82.815 c 5.711,0 10.357,-4.646 10.357,-10.359 V 36.028 c 10e-4,-5.71 -4.646,-10.356 -10.357,-10.356 z"/><g id="Layer_1"><linearGradient id="SVGID_3_" x1="68.682" x2="63.462" y1="92.852" y2="78.932" gradientUnits="userSpaceOnUse"><stop style="stop-color:#657180" id="stop27" offset="0"/><stop style="stop-color:#afb9c5" id="stop29" offset="1"/></linearGradient><path id="path32" fill="url(#SVGID_3_)" d="M96.125,87.346C79.1,91.045,17.461,97.883,17.461,97.883l70.542-26.666 c0,0,20.494,17.185,25.521-0.401C113.525,70.815,113.148,83.646,96.125,87.346z"/></g></g></svg>